<?xml version="1.0" encoding="UTF-8"?>
<svg xmlns="http://www.w3.org/2000/svg" xmlns:xlink="http://www.w3.org/1999/xlink" version="1.2" >
<font id="Technika Bold">
<font-face  font-family="Technika" units-per-em="1000" ascent="680" descent="-178" font-style="normal" font-weight="700" font-stretch="normal" cap-height="680" x-height="500" underline-position="-75" underline-thickness="50" />
<missing-glyph  horiz-adv-x="211" d="" />
<glyph glyph-name="NULL" d="" />
<glyph glyph-name="CR" unicode="&#xd;" horiz-adv-x="250" d="" />
<glyph glyph-name="space" unicode="&#x20;" horiz-adv-x="211" d="" />
<glyph glyph-name="exclam" unicode="&#x21;" horiz-adv-x="308" d="M49 455 L76 200 L232 200 L259 455 L259 680 L49 680 L49 455 Z M61 159 L61 0 L247 0 L247 159 L61 159 Z " />
<glyph glyph-name="quotedbl" unicode="&#x22;" horiz-adv-x="486" d="M50 680 L90 386 L185 386 L225 680 L50 680 Z M261 680 L301 386 L396 386 L436 680 L261 680 Z " />
<glyph glyph-name="numbersign" unicode="&#x23;" horiz-adv-x="769" d="M104 511 L104 413 L207 413 L170 269 L49 269 L49 171 L147 171 L105 0 L206 0 L248 171 L439 171 L397 0 L498 0 L540 171 L665 171 L665 269 L563 269 L600 413 L720 413 L720 511 L623 511 L665 680 L564 680 L522 511 L331 511 L373 680 L272 680 L230 511 L104 511 Z M271 269 L308 413 L499 413 L462 269 L271 269 Z " />
<glyph glyph-name="dollar" unicode="&#x24;" horiz-adv-x="620" d="M239 -82 L385 -82 L385 4 C533 27 596 125 596 213 C596 319 539 386 427 412 C375 424 348 428 310 435 C263 444 251 457 251 479 C251 505 280 528 360 528 C430 528 484 510 539 477 L539 645 C497 665 437 677 385 680 L385 762 L239 762 L239 678 C102 656 25 565 25 468 C25 358 98 297 191 273 C246 259 264 255 310 247 C349 240 369 226 369 200 C369 169 331 154 266 154 C191 154 120 171 48 211 L48 36 C102 16 168 6 239 2 L239 -82 Z " />
<glyph glyph-name="percent" unicode="&#x25;" horiz-adv-x="940" d="M228 276 C348 276 416 357 416 483 C416 609 348 690 228 690 C108 690 40 609 40 483 C40 357 108 276 228 276 L228 276 Z M210 0 L318 0 L730 680 L622 680 L210 0 Z M228 389 C194 389 166 411 166 483 C166 555 194 577 228 577 C262 577 290 555 290 483 C290 411 262 389 228 389 L228 389 Z M712 -10 C832 -10 900 71 900 197 C900 323 832 404 712 404 C592 404 524 323 524 197 C524 71 592 -10 712 -10 L712 -10 Z M712 103 C678 103 650 125 650 197 C650 269 678 291 712 291 C746 291 774 269 774 197 C774 125 746 103 712 103 L712 103 Z " />
<glyph glyph-name="ampersand" unicode="&#x26;" horiz-adv-x="787" d="M297 -16 C399 -16 464 19 516 61 L576 0 L792 0 L648 157 C702 220 726 310 712 390 L548 390 C558 350 551 306 529 272 L448 354 C529 390 576 453 576 524 C576 600 514 696 354 696 C187 696 121 601 121 528 C121 474 144 435 175 400 C116 373 40 314 40 213 C40 87 147 -16 297 -16 L297 -16 Z M345 441 C313 464 286 488 286 522 C286 554 314 581 357 581 C396 581 422 555 422 525 C422 494 390 463 345 441 L345 441 Z M326 132 C275 132 238 168 238 212 C238 240 252 265 286 285 L414 163 C393 147 364 132 326 132 L326 132 Z " />
<glyph glyph-name="quotesingle" unicode="&#x27;" horiz-adv-x="275" d="M50 680 L90 386 L185 386 L225 680 L50 680 Z " />
<glyph glyph-name="parenleft" unicode="&#x28;" horiz-adv-x="314" d="M314 -132 L314 -48 C224 -25 160 102 160 336 C160 570 224 697 314 720 L314 804 C149 781 30 603 30 336 C30 69 149 -109 314 -132 L314 -132 Z " />
<glyph glyph-name="parenright" unicode="&#x29;" horiz-adv-x="314" d="M0 -132 C165 -109 284 69 284 336 C284 603 165 781 0 804 L0 720 C90 697 154 570 154 336 C154 102 90 -25 0 -48 L0 -132 Z " />
<glyph glyph-name="asterisk" unicode="&#x2a;" horiz-adv-x="426" d="M130 533 L50 490 L94 414 L171 462 L169 371 L257 371 L255 462 L332 414 L376 490 L295 533 L376 577 L332 653 L255 604 L257 696 L169 696 L171 604 L94 653 L50 577 L130 533 Z " />
<glyph glyph-name="plus" unicode="&#x2b;" horiz-adv-x="584" d="M240 0 L343 0 L343 187 L534 187 L534 290 L343 290 L343 475 L240 475 L240 290 L50 290 L50 187 L240 187 L240 0 Z " />
<glyph glyph-name="comma" unicode="&#x2c;" horiz-adv-x="262" d="M30 -135 L156 -135 L236 159 L60 159 L30 -135 Z " />
<glyph glyph-name="hyphen" unicode="&#x2d;" horiz-adv-x="385" d="M50 339 L50 226 L335 226 L335 339 L50 339 Z " />
<glyph glyph-name="period" unicode="&#x2e;" horiz-adv-x="286" d="M50 0 L236 0 L236 159 L50 159 L50 0 Z " />
<glyph glyph-name="slash" unicode="&#x2f;" horiz-adv-x="530" d="M367 680 L50 0 L163 0 L480 680 L367 680 Z " />
<glyph glyph-name="zero" unicode="0" horiz-adv-x="620" d="M20 331 C20 100 130 -19 310 -19 C490 -19 600 100 600 331 C600 561 490 680 310 680 C130 680 20 561 20 331 L20 331 Z M215 331 C215 479 258 522 310 522 C362 522 405 479 405 331 C405 183 362 139 310 139 C258 139 215 183 215 331 L215 331 Z " />
<glyph glyph-name="one" unicode="1" horiz-adv-x="620" d="M255 485 L255 0 L447 0 L447 663 L284 663 L97 587 L97 485 L255 485 Z " />
<glyph glyph-name="two" unicode="2" horiz-adv-x="620" d="M59 0 L562 0 L562 151 L320 151 L320 155 C343 171 379 198 408 222 C453 262 540 339 540 452 C540 578 456 680 281 680 C192 680 121 660 65 633 L65 479 C111 500 164 515 217 515 C280 515 338 490 338 421 C338 357 286 315 218 261 C153 209 112 178 59 140 L59 0 Z " />
<glyph glyph-name="three" unicode="3" horiz-adv-x="620" d="M268 -21 C468 -21 569 74 569 197 C569 276 509 327 462 343 L462 347 C505 369 550 417 550 486 C550 611 428 680 288 680 C191 680 119 659 79 639 L79 491 C115 511 171 530 232 530 C298 530 341 505 341 463 C341 418 301 396 245 396 L193 396 L193 270 L251 270 C317 270 350 245 350 202 C350 156 307 129 236 129 C173 129 107 146 78 162 L78 6 C116 -6 174 -21 268 -21 L268 -21 Z " />
<glyph glyph-name="four" unicode="4" horiz-adv-x="620" d="M330 0 L516 0 L516 134 L586 134 L586 276 L513 276 L513 663 L289 663 L21 280 L21 134 L330 134 L330 0 Z M182 276 L327 492 L330 492 L330 276 L182 276 Z " />
<glyph glyph-name="five" unicode="5" horiz-adv-x="620" d="M261 -18 C453 -18 552 95 552 215 C552 350 457 430 328 430 C272 430 239 415 226 406 L222 406 L222 518 L512 518 L512 663 L76 663 L76 259 L209 255 C219 278 242 299 280 299 C318 299 354 273 354 215 C354 153 302 123 234 123 C179 123 134 130 71 183 L71 22 C108 4 159 -18 261 -18 L261 -18 Z " />
<glyph glyph-name="six" unicode="6" horiz-adv-x="620" d="M26 336 C26 96 153 -17 322 -17 C498 -17 592 96 592 213 C593 349 492 438 366 438 C297 438 245 411 214 377 L210 377 C209 467 262 548 376 548 C446 548 499 520 525 497 L525 648 C483 667 428 680 349 680 C144 680 26 540 26 336 L26 336 Z M228 213 C228 273 269 307 315 307 C361 307 400 273 400 213 C400 159 369 122 315 122 C260 122 229 159 228 213 L228 213 Z " />
<glyph glyph-name="seven" unicode="7" horiz-adv-x="620" d="M73 522 L362 522 L118 0 L319 0 L560 523 L560 663 L73 663 L73 522 Z " />
<glyph glyph-name="eight" unicode="8" horiz-adv-x="620" d="M310 -16 C507 -16 596 83 596 190 C596 284 535 325 486 343 L486 347 C532 372 572 418 572 486 C572 584 482 682 310 682 C138 682 47 584 47 486 C47 418 88 376 134 351 L134 347 C85 329 24 284 24 190 C24 83 113 -16 310 -16 L310 -16 Z M310 392 C264 392 227 423 227 467 C227 512 264 544 310 544 C356 544 393 512 393 467 C393 423 356 392 310 392 L310 392 Z M310 117 C258 117 217 155 217 204 C217 254 258 291 310 291 C362 291 403 254 403 204 C403 155 362 117 310 117 L310 117 Z " />
<glyph glyph-name="nine" unicode="9" horiz-adv-x="620" d="M270 -17 C466 -17 597 84 597 341 C597 568 471 681 298 681 C122 681 23 568 22 452 C22 315 128 223 254 223 C328 223 390 251 415 286 L419 286 C420 194 366 119 242 119 C172 119 121 147 95 167 L95 16 C137 -3 191 -17 270 -17 L270 -17 Z M303 350 C257 350 216 384 216 448 C216 505 249 542 303 542 C358 542 388 505 389 448 C390 384 349 350 303 350 L303 350 Z " />
<glyph glyph-name="colon" unicode="&#x3a;" horiz-adv-x="286" d="M50 341 L236 341 L236 500 L50 500 L50 341 Z M50 0 L236 0 L236 159 L50 159 L50 0 Z " />
<glyph glyph-name="semicolon" unicode="&#x3b;" horiz-adv-x="286" d="M50 341 L236 341 L236 500 L50 500 L50 341 Z M30 -135 L156 -135 L236 159 L60 159 L30 -135 Z " />
<glyph glyph-name="less" unicode="&#x3c;" horiz-adv-x="584" d="M534 -3 L534 112 L178 236 L178 240 L534 364 L534 479 L50 289 L50 187 L534 -3 Z " />
<glyph glyph-name="equal" unicode="&#x3d;" horiz-adv-x="584" d="M50 282 L534 282 L534 385 L50 385 L50 282 Z M50 94 L534 94 L534 197 L50 197 L50 94 Z " />
<glyph glyph-name="greater" unicode="&#x3e;" horiz-adv-x="584" d="M50 -3 L534 187 L534 289 L50 479 L50 364 L406 240 L406 236 L50 112 L50 -3 Z " />
<glyph glyph-name="question" unicode="&#x3f;" horiz-adv-x="482" d="M99 199 L276 199 L276 237 C276 270 295 294 340 322 C395 357 442 409 442 485 C442 607 352 697 188 697 C121 697 60 682 20 664 L20 503 C49 525 87 543 134 543 C192 543 227 515 227 474 C227 434 191 406 159 383 C114 350 99 327 99 257 L99 199 Z M94 0 L280 0 L280 159 L94 159 L94 0 Z " />
<glyph glyph-name="at" unicode="&#x40;" horiz-adv-x="945" d="M475 -179 C579 -179 662 -150 728 -109 L728 -10 C674 -51 586 -96 475 -96 C276 -96 124 58 124 259 C124 460 276 613 475 613 C674 613 821 479 821 299 C821 182 753 114 707 114 L701 114 L701 336 C701 462 602 513 462 513 C386 513 332 495 303 483 L303 370 C340 391 390 405 439 405 C506 405 532 384 532 347 L532 331 C508 333 490 334 457 334 C330 334 243 282 243 177 C243 85 312 22 394 22 C461 22 514 55 538 96 L541 96 L541 25 L669 25 C825 25 908 157 908 299 C908 527 717 696 475 696 C233 696 37 510 37 259 C37 7 233 -179 475 -179 L475 -179 Z M452 144 C423 144 401 161 401 190 C401 226 430 251 482 251 L532 251 L532 222 C534 169 490 144 452 144 L452 144 Z " />
<glyph glyph-name="A" unicode="A" horiz-adv-x="704" d="M498 0 L699 0 L495 680 L208 680 L5 0 L206 0 L243 141 L460 141 L498 0 Z M280 280 L347 531 L356 531 L423 280 L280 280 Z " />
<glyph glyph-name="B" unicode="B" horiz-adv-x="698" d="M80 0 L413 0 C588 0 658 98 658 184 C658 299 580 337 529 350 L529 354 C575 372 627 415 627 498 C627 592 552 680 396 680 L80 680 L80 0 Z M276 402 L276 534 L366 534 C406 534 432 503 432 468 C432 433 406 402 366 402 L276 402 Z M276 146 L276 288 L387 288 C429 288 456 253 456 218 C456 179 429 146 387 146 L276 146 Z " />
<glyph glyph-name="C" unicode="C" horiz-adv-x="611" d="M393 -11 C474 -11 542 10 583 31 L583 202 C544 181 499 163 428 163 C357 163 254 217 254 340 C254 463 348 521 439 521 C501 521 544 507 582 488 L582 657 C542 675 492 689 412 689 C211 689 40 557 40 340 C40 123 193 -11 393 -11 L393 -11 Z " />
<glyph glyph-name="D" unicode="D" horiz-adv-x="738" d="M80 0 L349 0 C544 0 698 135 698 340 C698 545 544 680 349 680 L80 680 L80 0 Z M276 169 L276 511 L317 511 C411 511 483 450 483 340 C483 230 411 169 317 169 L276 169 Z " />
<glyph glyph-name="E" unicode="E" horiz-adv-x="608" d="M80 0 L549 0 L549 155 L276 155 L276 265 L540 265 L540 416 L276 416 L276 525 L549 525 L549 680 L80 680 L80 0 Z " />
<glyph glyph-name="F" unicode="F" horiz-adv-x="585" d="M80 680 L80 0 L276 0 L276 263 L542 263 L542 414 L276 414 L276 525 L545 525 L545 680 L80 680 Z " />
<glyph glyph-name="G" unicode="G" horiz-adv-x="699" d="M403 -16 C524 -16 608 21 649 42 L649 343 L458 343 L458 159 C444 156 429 154 414 154 C338 154 254 212 254 340 C254 478 328 546 455 546 C525 546 585 522 622 502 L622 662 C582 680 516 705 426 705 C195 705 40 562 40 340 C40 118 213 -16 403 -16 L403 -16 Z " />
<glyph glyph-name="H" unicode="H" horiz-adv-x="753" d="M80 680 L80 0 L276 0 L276 266 L477 266 L477 0 L673 0 L673 680 L477 680 L477 420 L276 420 L276 680 L80 680 Z " />
<glyph glyph-name="I" unicode="I" horiz-adv-x="356" d="M80 0 L276 0 L276 680 L80 680 L80 0 Z " />
<glyph glyph-name="J" unicode="J" horiz-adv-x="459" d="M145 -12 C298 -12 384 87 384 233 L384 680 L188 680 L188 240 C188 184 146 147 84 147 C52 147 31 155 11 164 L11 7 C40 -3 95 -12 145 -12 L145 -12 Z " />
<glyph glyph-name="K" unicode="K" horiz-adv-x="715" d="M708 0 L478 351 L705 680 L466 680 L276 367 L276 680 L80 680 L80 0 L276 0 L276 327 L473 0 L708 0 Z " />
<glyph glyph-name="L" unicode="L" horiz-adv-x="539" d="M80 0 L519 0 L519 161 L276 161 L276 680 L80 680 L80 0 Z " />
<glyph glyph-name="M" unicode="M" horiz-adv-x="902" d="M80 0 L267 0 L267 415 L270 415 L446 126 L460 126 L628 416 L631 416 L631 0 L822 0 L822 680 L595 680 L455 439 L452 439 L312 680 L80 680 L80 0 Z " />
<glyph glyph-name="N" unicode="N" horiz-adv-x="804" d="M80 0 L276 0 L276 408 L279 408 L485 0 L724 0 L724 680 L528 680 L528 274 L525 274 L321 680 L80 680 L80 0 Z " />
<glyph glyph-name="O" unicode="O" horiz-adv-x="760" d="M381 -16 C584 -16 720 113 720 340 C720 567 584 696 381 696 C179 696 40 567 40 340 C40 113 179 -16 381 -16 L381 -16 Z M381 158 C294 158 250 228 250 340 C250 452 294 522 381 522 C469 522 510 452 510 340 C510 228 469 158 381 158 L381 158 Z " />
<glyph glyph-name="P" unicode="P" horiz-adv-x="659" d="M80 0 L276 0 L276 220 L376 220 C535 220 634 321 634 446 C634 571 535 680 376 680 L80 680 L80 0 Z M276 366 L276 534 L353 534 C396 534 435 498 435 450 C435 401 396 366 353 366 L276 366 Z " />
<glyph glyph-name="Q" unicode="Q" horiz-adv-x="760" d="M566 57 C666 110 720 199 720 340 C720 567 584 696 381 696 C179 696 40 567 40 340 C40 117 174 -12 371 -16 C460 -72 595 -94 716 -74 L719 74 C675 61 618 54 566 57 L566 57 Z M250 340 C250 452 294 522 381 522 C469 522 510 452 510 340 C510 228 469 158 381 158 C294 158 250 228 250 340 L250 340 Z " />
<glyph glyph-name="R" unicode="R" horiz-adv-x="687" d="M80 0 L276 0 L276 239 L326 239 L444 0 L665 0 L540 210 C527 232 511 252 502 258 L503 262 C563 289 648 340 648 456 C648 578 551 680 392 680 L80 680 L80 0 Z M276 366 L276 535 L355 535 C408 535 439 494 439 451 C439 408 408 366 355 366 L276 366 Z " />
<glyph glyph-name="S" unicode="S" horiz-adv-x="618" d="M291 -16 C477 -16 580 101 580 214 C580 325 523 390 412 417 C367 428 342 432 308 439 C262 449 242 462 242 488 C242 518 276 537 352 537 C435 537 504 511 538 492 L538 661 C494 680 422 696 342 696 C173 696 48 607 48 469 C48 364 107 298 199 275 C250 262 277 256 321 245 C358 236 383 224 383 197 C383 163 347 144 281 144 C191 144 100 183 56 214 L56 36 C111 5 189 -16 291 -16 L291 -16 Z " />
<glyph glyph-name="T" unicode="T" horiz-adv-x="571" d="M188 0 L384 0 L384 521 L553 521 L553 680 L18 680 L18 521 L188 521 L188 0 Z " />
<glyph glyph-name="U" unicode="U" horiz-adv-x="736" d="M368 -16 C528 -16 661 61 661 251 L661 680 L465 680 L465 269 C465 192 423 158 368 158 C313 158 271 192 271 269 L271 680 L75 680 L75 251 C75 61 208 -16 368 -16 L368 -16 Z " />
<glyph glyph-name="V" unicode="V" horiz-adv-x="686" d="M209 0 L477 0 L681 680 L461 680 L345 171 L341 171 L225 680 L5 680 L209 0 Z " />
<glyph glyph-name="W" unicode="W" horiz-adv-x="984" d="M165 0 L385 0 L477 361 L481 361 L562 0 L785 0 L969 680 L756 680 L664 262 L660 262 L579 680 L389 680 L296 262 L292 262 L224 680 L15 680 L165 0 Z " />
<glyph glyph-name="X" unicode="X" horiz-adv-x="728" d="M12 0 L241 0 L363 218 L367 218 L481 0 L709 0 L515 337 L716 680 L483 680 L371 450 L367 450 L259 680 L27 680 L219 338 L12 0 Z " />
<glyph glyph-name="Y" unicode="Y" horiz-adv-x="671" d="M235 0 L431 0 L431 249 L666 680 L449 680 L338 437 L334 437 L227 680 L5 680 L235 249 L235 0 Z " />
<glyph glyph-name="Z" unicode="Z" horiz-adv-x="594" d="M30 0 L564 0 L564 159 L270 159 L559 537 L559 680 L36 680 L36 521 L314 521 L30 150 L30 0 Z " />
<glyph glyph-name="bracketleft" unicode="&#x5b;" horiz-adv-x="278" d="M35 -105 L258 -105 L258 -27 L153 -27 L153 707 L258 707 L258 785 L35 785 L35 -105 Z " />
<glyph glyph-name="backslash" unicode="&#x5c;" horiz-adv-x="440" d="M-40 680 L277 0 L390 0 L73 680 L-40 680 Z " />
<glyph glyph-name="bracketright" unicode="&#x5d;" horiz-adv-x="278" d="M20 -105 L243 -105 L243 785 L20 785 L20 707 L125 707 L125 -27 L20 -27 L20 -105 Z " />
<glyph glyph-name="asciicircum" unicode="&#x5e;" horiz-adv-x="470" d="M50 341 L156 341 L233 560 L237 560 L314 341 L420 341 L286 681 L184 681 L50 341 Z " />
<glyph glyph-name="underscore" unicode="&#x5f;" horiz-adv-x="850" d="M50 -16 L50 -70 L800 -70 L800 -16 L50 -16 Z " />
<glyph glyph-name="grave" unicode="&#x60;" horiz-adv-x="600" d="M162 541 L317 541 L231 680 L19 680 L162 541 Z " />
<glyph glyph-name="a" unicode="a" horiz-adv-x="579" d="M261 517 C177 517 118 497 86 484 L86 360 C126 383 182 398 235 398 C309 398 338 375 338 335 L338 317 C311 319 291 320 255 320 C110 320 20 263 20 155 C20 53 96 -16 186 -16 C260 -16 307 13 333 58 L337 58 C337 37 339 17 342 0 L529 0 C526 33 524 67 524 100 L524 323 C524 461 415 517 261 517 L261 517 Z M338 229 L338 197 C340 139 292 111 250 111 C218 111 194 130 194 162 C194 202 225 229 283 229 L338 229 Z " />
<glyph glyph-name="b" unicode="b" horiz-adv-x="635" d="M251 680 L55 680 L55 0 L242 0 L245 57 L249 59 C275 14 316 -16 392 -16 C500 -16 601 95 601 245 C601 410 515 516 392 516 C322 516 275 485 255 447 L251 447 L251 680 Z M323 366 C358 366 401 341 401 250 C401 159 358 134 323 134 C289 134 245 159 245 250 C245 341 289 366 323 366 L323 366 Z " />
<glyph glyph-name="c" unicode="c" horiz-adv-x="503" d="M324 -12 C399 -12 449 7 473 20 L473 163 C449 145 416 132 367 132 C290 132 232 179 232 258 C232 347 301 380 366 380 C415 380 449 367 473 346 L473 483 C449 496 399 511 324 511 C174 511 34 427 34 250 C34 73 174 -12 324 -12 L324 -12 Z " />
<glyph glyph-name="d" unicode="d" horiz-adv-x="636" d="M581 680 L385 680 L385 448 L381 448 C363 485 318 516 247 516 C138 516 34 423 34 245 C34 84 146 -16 256 -16 C325 -16 361 14 387 59 L391 57 L394 0 L581 0 L581 680 Z M313 366 C347 366 391 341 391 250 C391 159 347 134 313 134 C278 134 235 159 235 250 C235 341 278 366 313 366 L313 366 Z " />
<glyph glyph-name="e" unicode="e" horiz-adv-x="588" d="M296 514 C162 514 34 423 34 250 C34 73 170 -14 307 -14 C396 -14 462 7 505 32 L505 165 C453 134 399 119 344 119 C282 119 224 147 219 211 L554 211 C558 428 439 514 296 514 L296 514 Z M300 393 C345 393 376 363 379 309 L219 309 C222 362 255 393 300 393 L300 393 Z " />
<glyph glyph-name="f" unicode="f" horiz-adv-x="382" d="M81 381 L81 0 L278 0 L278 381 L372 381 L372 500 L276 500 L276 519 C276 551 308 566 337 566 C359 566 380 558 391 549 L391 683 C356 693 326 696 289 696 C165 696 81 617 81 506 L81 500 L24 500 L24 381 L81 381 Z " />
<glyph glyph-name="g" unicode="g" horiz-adv-x="634" d="M252 514 C146 514 34 429 34 262 C34 113 149 32 248 32 C320 32 364 65 384 91 L387 89 L387 66 C387 18 339 -41 240 -41 C187 -41 137 -28 95 2 L95 -142 C134 -158 198 -178 282 -178 C432 -178 579 -105 579 82 L579 500 L389 500 L389 442 L386 442 C362 486 324 514 252 514 L252 514 Z M312 363 C355 363 388 329 388 269 C388 209 355 175 312 175 C269 175 235 209 235 269 C235 329 269 363 312 363 L312 363 Z " />
<glyph glyph-name="h" unicode="h" horiz-adv-x="611" d="M251 680 L55 680 L55 0 L251 0 L251 291 C251 335 276 353 308 353 C340 353 365 335 365 291 L365 0 L561 0 L561 346 C561 458 480 516 393 516 C326 516 280 487 255 448 L251 448 L251 680 Z " />
<glyph glyph-name="i" unicode="i" horiz-adv-x="306" d="M55 541 L251 541 L251 680 L55 680 L55 541 Z M55 0 L251 0 L251 500 L55 500 L55 0 Z " />
<glyph glyph-name="j" unicode="j" horiz-adv-x="322" d="M76 680 L76 541 L272 541 L272 680 L76 680 Z M-49 -29 L-51 -154 C-18 -168 19 -173 57 -173 C190 -173 272 -96 272 23 L272 500 L76 500 L76 30 C76 -9 40 -39 2 -39 C-16 -39 -31 -37 -49 -29 L-49 -29 Z " />
<glyph glyph-name="k" unicode="k" horiz-adv-x="625" d="M616 0 L447 283 L598 500 L365 500 L251 281 L251 680 L55 680 L55 0 L251 0 L251 252 L391 0 L616 0 Z " />
<glyph glyph-name="l" unicode="l" horiz-adv-x="306" d="M55 0 L251 0 L251 680 L55 680 L55 0 Z " />
<glyph glyph-name="m" unicode="m" horiz-adv-x="921" d="M55 0 L251 0 L251 291 C251 335 276 353 308 353 C340 353 365 335 365 291 L365 0 L561 0 L561 291 C561 335 586 353 618 353 C650 353 675 335 675 291 L675 0 L871 0 L871 346 C871 458 790 516 703 516 C626 516 572 486 540 442 L536 442 C506 491 450 516 393 516 C326 516 276 486 249 442 L245 442 L245 500 L55 500 L55 0 Z " />
<glyph glyph-name="n" unicode="n" horiz-adv-x="611" d="M55 0 L251 0 L251 291 C251 335 276 353 308 353 C340 353 365 335 365 291 L365 0 L561 0 L561 346 C561 458 480 516 393 516 C326 516 276 486 249 442 L245 442 L245 500 L55 500 L55 0 Z " />
<glyph glyph-name="o" unicode="o" horiz-adv-x="624" d="M34 250 C34 76 153 -14 312 -14 C471 -14 590 76 590 250 C590 424 471 514 312 514 C153 514 34 424 34 250 L34 250 Z M231 250 C231 341 277 364 312 364 C347 364 393 341 393 250 C393 159 347 136 312 136 C277 136 231 159 231 250 L231 250 Z " />
<glyph glyph-name="p" unicode="p" horiz-adv-x="635" d="M392 516 C319 516 274 484 249 442 L245 442 L245 500 L55 500 L55 -160 L251 -160 L251 51 L255 53 C278 13 316 -16 392 -16 C500 -16 601 95 601 245 C601 410 515 516 392 516 L392 516 Z M323 366 C358 366 401 341 401 250 C401 159 358 134 323 134 C289 134 245 159 245 250 C245 341 289 366 323 366 L323 366 Z " />
<glyph glyph-name="q" unicode="q" horiz-adv-x="636" d="M247 516 C138 516 34 423 34 245 C34 84 146 -16 256 -16 C325 -16 357 13 381 53 L385 51 L385 -160 L581 -160 L581 500 L391 500 L391 442 L387 442 C365 484 321 516 247 516 L247 516 Z M313 366 C347 366 391 341 391 250 C391 159 347 134 313 134 C278 134 235 159 235 250 C235 341 278 366 313 366 L313 366 Z " />
<glyph glyph-name="r" unicode="r" horiz-adv-x="409" d="M55 500 L55 0 L251 0 L251 270 C251 324 292 352 335 352 C364 352 383 346 399 337 L399 500 C387 505 374 509 356 509 C309 509 270 481 249 435 L245 435 L245 500 L55 500 Z " />
<glyph glyph-name="s" unicode="s" horiz-adv-x="502" d="M283 513 C115 513 35 429 35 346 C35 269 75 223 149 201 C180 192 192 189 221 184 C259 177 270 162 270 146 C270 127 251 110 200 110 C134 110 80 137 40 167 L40 25 C88 -2 156 -13 215 -13 C386 -13 472 74 472 165 C472 240 418 293 353 307 C318 315 303 318 279 322 C242 328 228 338 228 357 C228 378 255 393 300 393 C353 393 403 377 436 355 L436 480 C409 495 350 513 283 513 L283 513 Z " />
<glyph glyph-name="t" unicode="t" horiz-adv-x="422" d="M262 -8 C313 -8 359 2 401 20 L401 147 C384 142 365 137 344 137 C315 137 283 154 283 203 L283 381 L401 381 L401 500 L283 500 L283 620 L86 620 L86 500 L11 500 L11 381 L86 381 L86 159 C86 55 155 -8 262 -8 L262 -8 Z " />
<glyph glyph-name="u" unicode="u" horiz-adv-x="611" d="M556 500 L360 500 L360 206 C360 162 335 144 303 144 C271 144 246 162 246 206 L246 500 L50 500 L50 168 C50 48 123 -16 220 -16 C295 -16 352 18 372 62 L374 60 L377 0 L556 0 L556 500 Z " />
<glyph glyph-name="v" unicode="v" horiz-adv-x="578" d="M155 0 L423 0 L573 500 L370 500 L291 167 L287 167 L208 500 L5 500 L155 0 Z " />
<glyph glyph-name="w" unicode="w" horiz-adv-x="841" d="M134 0 L363 0 L418 319 L422 319 L477 0 L706 0 L836 500 L641 500 L586 177 L583 177 L527 500 L313 500 L257 177 L254 177 L200 500 L5 500 L134 0 Z " />
<glyph glyph-name="x" unicode="x" horiz-adv-x="627" d="M224 0 L310 169 L314 169 L400 0 L622 0 L453 260 L596 500 L382 500 L314 353 L310 353 L238 500 L27 500 L174 260 L5 0 L224 0 Z " />
<glyph glyph-name="y" unicode="y" horiz-adv-x="582" d="M296 185 L292 185 L213 500 L5 500 L200 15 C192 -11 165 -34 126 -34 C105 -34 83 -27 65 -17 L65 -155 C98 -166 136 -172 172 -172 C298 -172 362 -94 396 1 L577 500 L375 500 L296 185 Z " />
<glyph glyph-name="z" unicode="z" horiz-adv-x="503" d="M25 0 L478 0 L478 143 L243 143 L469 362 L469 500 L39 500 L39 357 L247 357 L25 138 L25 0 Z " />
<glyph glyph-name="braceleft" unicode="&#x7b;" horiz-adv-x="310" d="M300 -104 L300 -41 C258 -36 216 9 216 69 L216 230 C216 291 172 329 134 338 L134 342 C172 351 216 389 216 450 L216 611 C216 671 258 716 300 721 L300 784 C189 777 98 701 98 582 L98 476 C98 424 70 387 35 380 L35 300 C70 293 98 256 98 204 L98 98 C98 -21 189 -97 300 -104 L300 -104 Z " />
<glyph glyph-name="bar" unicode="&#x7c;" horiz-adv-x="203" d="M50 -160 L153 -160 L153 818 L50 818 L50 -160 Z " />
<glyph glyph-name="braceright" unicode="&#x7d;" horiz-adv-x="310" d="M10 -104 C121 -97 212 -21 212 98 L212 204 C212 256 240 293 275 300 L275 380 C240 387 212 424 212 476 L212 582 C212 701 121 777 10 784 L10 721 C52 716 94 671 94 611 L94 450 C94 389 138 351 176 342 L176 338 C138 329 94 291 94 230 L94 69 C94 9 52 -36 10 -41 L10 -104 Z " />
<glyph glyph-name="asciitilde" unicode="&#x7e;" horiz-adv-x="584" d="M403 159 C460 159 485 183 503 201 L503 303 C480 281 447 263 414 263 C346 263 273 320 194 320 C137 320 99 290 81 270 L81 162 C104 193 146 218 190 218 C269 218 328 159 403 159 L403 159 Z " />
<glyph glyph-name="exclamdown" unicode="&#xa1;" horiz-adv-x="308" d="M61 500 L61 341 L247 341 L247 500 L61 500 Z M49 45 L49 -180 L259 -180 L259 45 L232 300 L76 300 L49 45 Z " />
<glyph glyph-name="cent" unicode="&#xa2;" horiz-adv-x="528" d="M251 -87 L388 -87 L388 -10 C430 -5 469 6 498 21 L498 185 C465 157 422 133 363 133 C285 133 222 180 222 250 C222 320 285 367 363 367 C422 367 465 346 498 320 L498 484 C466 499 427 507 388 511 L388 587 L251 587 L251 510 C127 487 34 400 34 250 C34 99 127 12 251 -10 L251 -87 Z " />
<glyph glyph-name="sterling" unicode="&#xa3;" horiz-adv-x="588" d="M39 0 L557 0 L557 169 L223 169 L221 173 C255 196 279 219 291 249 C300 272 301 291 300 309 L472 309 L472 396 L296 396 C295 417 291 440 291 461 C291 515 341 546 408 546 C451 546 494 534 530 508 L530 658 C478 684 422 697 350 697 C189 697 84 603 84 470 C84 445 88 418 91 396 L39 396 L39 309 L107 309 C109 299 109 287 109 276 C109 233 97 196 39 169 L39 0 Z " />
<glyph glyph-name="yen" unicode="&#xa5;" horiz-adv-x="703" d="M250 0 L453 0 L453 171 L611 171 L611 259 L453 259 L453 260 L486 314 L611 314 L611 402 L529 402 L674 680 L450 680 L348 429 L343 429 L248 680 L12 680 L167 402 L96 402 L96 314 L216 314 L250 260 L250 259 L96 259 L96 171 L250 171 L250 0 Z " />
<glyph glyph-name="brokenbar" unicode="&#xa6;" horiz-adv-x="203" d="M50 364 L153 364 L153 818 L50 818 L50 364 Z M50 -160 L153 -160 L153 294 L50 294 L50 -160 Z " />
<glyph glyph-name="section" unicode="&#xa7;" horiz-adv-x="642" d="M306 -170 C476 -170 576 -79 576 17 C576 61 562 89 532 118 C577 147 605 191 605 261 C605 367 544 418 435 451 C399 462 350 477 321 485 C290 494 280 506 280 526 C280 553 314 569 367 569 C434 569 492 546 532 516 L532 655 C473 683 402 697 334 697 C173 697 72 619 72 523 C72 479 90 435 128 405 C74 382 32 327 32 267 C32 185 72 141 142 107 C183 88 244 68 303 50 C341 38 355 25 355 8 C355 -23 326 -31 266 -31 C199 -31 116 -9 82 15 L82 -119 C117 -139 200 -170 306 -170 L306 -170 Z M405 188 C395 192 378 199 358 205 C244 238 208 252 208 297 C208 316 221 335 242 346 C252 342 266 338 282 334 C398 305 424 274 424 229 C424 215 417 200 405 188 L405 188 Z " />
<glyph glyph-name="dieresis" unicode="&#xa8;" horiz-adv-x="600" d="M49 553 L214 553 L214 680 L49 680 L49 553 Z M255 553 L420 553 L420 680 L255 680 L255 553 Z " />
<glyph glyph-name="copyright" unicode="&#xa9;" horiz-adv-x="772" d="M386 -16 C593 -16 742 143 742 340 C742 537 593 696 386 696 C179 696 30 537 30 340 C30 143 179 -16 386 -16 L386 -16 Z M386 68 C226 68 114 190 114 340 C114 490 226 612 386 612 C546 612 658 490 658 340 C658 190 546 68 386 68 L386 68 Z M405 148 C450 148 483 158 505 172 L505 265 C484 250 454 241 416 241 C344 241 308 287 308 340 C308 392 344 439 416 439 C454 439 484 430 505 415 L505 508 C483 522 450 532 405 532 C289 532 204 458 204 340 C204 222 289 148 405 148 L405 148 Z " />
<glyph glyph-name="ordfeminine" unicode="&#xaa;" horiz-adv-x="403" d="M162 457 C203 457 233 470 252 494 L254 494 C254 485 255 472 257 467 L363 467 C362 476 360 495 360 527 L360 673 C360 745 298 777 200 777 C157 777 109 769 81 757 L81 682 C111 698 149 704 186 704 C225 704 251 692 251 668 L251 665 C236 665 206 663 182 660 C100 650 40 625 40 555 C40 477 103 457 162 457 L162 457 Z M193 531 C170 531 153 543 153 564 C153 586 175 598 210 602 C227 604 241 605 251 605 L251 586 C251 561 232 531 193 531 L193 531 Z " />
<glyph glyph-name="guillemotleft" unicode="&#xab;" horiz-adv-x="512" d="M240 20 L240 170 L148 248 L148 252 L240 330 L240 480 L50 314 L50 186 L240 20 Z M462 20 L462 170 L370 248 L370 252 L462 330 L462 480 L272 314 L272 186 L462 20 Z " />
<glyph glyph-name="logicalnot" unicode="&#xac;" horiz-adv-x="584" d="M431 86 L534 86 L534 290 L50 290 L50 187 L431 187 L431 86 Z " />
<glyph glyph-name="registered" unicode="&#xae;" horiz-adv-x="772" d="M386 -16 C593 -16 742 143 742 340 C742 537 593 696 386 696 C179 696 30 537 30 340 C30 143 179 -16 386 -16 L386 -16 Z M386 68 C226 68 114 190 114 340 C114 490 226 612 386 612 C546 612 658 490 658 340 C658 190 546 68 386 68 L386 68 Z M246 156 L343 156 L343 283 L391 283 L456 156 L565 156 L476 292 C511 306 553 336 553 402 C553 469 495 524 408 524 L246 524 L246 156 Z M343 354 L343 440 L409 440 C434 440 452 420 452 396 C452 374 434 354 409 354 L343 354 Z " />
<glyph glyph-name="macron" unicode="&#xaf;" horiz-adv-x="600" d="M49 556 L383 556 L383 666 L49 666 L49 556 Z " />
<glyph glyph-name="degree" unicode="&#xb0;" horiz-adv-x="394" d="M197 403 C278 403 344 469 344 550 C344 631 278 697 197 697 C116 697 50 631 50 550 C50 469 116 403 197 403 L197 403 Z M197 490 C165 490 137 516 137 550 C137 584 165 610 197 610 C229 610 257 584 257 550 C257 516 229 490 197 490 L197 490 Z " />
<glyph glyph-name="plusminus" unicode="&#xb1;" horiz-adv-x="584" d="M240 144 L343 144 L343 333 L534 333 L534 436 L343 436 L343 625 L240 625 L240 436 L50 436 L50 333 L240 333 L240 144 Z M50 0 L534 0 L534 103 L50 103 L50 0 Z " />
<glyph glyph-name="uni00B2" unicode="&#xb2;" horiz-adv-x="398" d="M46 467 L363 467 L363 567 L219 567 L219 569 C231 576 252 592 268 604 C297 627 348 673 348 744 C348 820 294 886 182 886 C127 886 83 874 48 857 L48 756 C78 769 110 776 141 776 C181 776 214 763 214 724 C214 685 181 659 140 628 C100 597 78 580 46 559 L46 467 Z " />
<glyph glyph-name="uni00B3" unicode="&#xb3;" horiz-adv-x="383" d="M157 456 C284 456 347 514 347 590 C347 637 312 668 283 679 L283 681 C309 695 336 725 336 764 C336 843 258 886 170 886 C110 886 64 873 37 861 L37 764 C61 776 95 787 135 787 C174 787 197 773 197 749 C197 725 173 713 141 713 L109 713 L109 631 L145 631 C183 631 203 617 203 593 C203 567 176 555 135 555 C97 555 56 566 33 576 L33 472 C63 464 98 456 157 456 L157 456 Z " />
<glyph glyph-name="acute" unicode="&#xb4;" horiz-adv-x="600" d="M49 541 L204 541 L347 680 L135 680 L49 541 Z " />
<glyph glyph-name="paragraph" unicode="&#xb6;" horiz-adv-x="558" d="M237 0 L340 0 L340 680 L227 680 C129 680 50 600 50 502 C50 404 129 325 227 325 L237 325 L237 0 Z M405 0 L508 0 L508 680 L405 680 L405 0 Z " />
<glyph glyph-name="periodcentered" unicode="&#xb7;" horiz-adv-x="276" d="M50 177 L226 177 L226 328 L50 328 L50 177 Z " />
<glyph glyph-name="cedilla" unicode="&#xb8;" horiz-adv-x="600" d="M135 -195 C205 -195 277 -168 277 -97 C277 -56 252 -22 192 -22 L202 27 L109 27 L82 -75 C93 -73 104 -72 115 -72 C138 -72 155 -80 155 -99 C155 -118 135 -126 110 -126 C96 -126 82 -123 69 -119 L69 -186 C89 -193 112 -195 135 -195 L135 -195 Z " />
<glyph glyph-name="uni00B9" unicode="&#xb9;" horiz-adv-x="328" d="M127 467 L254 467 L254 875 L146 875 L27 835 L27 768 L127 768 L127 467 Z " />
<glyph glyph-name="ordmasculine" unicode="&#xba;" horiz-adv-x="432" d="M216 457 C311 457 392 511 392 617 C392 723 311 777 216 777 C121 777 40 723 40 617 C40 511 121 457 216 457 L216 457 Z M216 541 C186 541 153 564 153 617 C153 670 186 693 216 693 C246 693 279 670 279 617 C279 564 246 541 216 541 L216 541 Z " />
<glyph glyph-name="guillemotright" unicode="&#xbb;" horiz-adv-x="512" d="M50 20 L240 186 L240 314 L50 480 L50 330 L142 252 L142 248 L50 170 L50 20 Z M272 20 L462 186 L462 314 L272 480 L272 330 L364 252 L364 248 L272 170 L272 20 Z " />
<glyph glyph-name="onequarter" unicode="&#xbc;" horiz-adv-x="893" d="M127 272 L254 272 L254 680 L146 680 L27 640 L27 573 L127 573 L127 272 Z M625 680 L138 0 L259 0 L746 680 L625 680 Z M696 0 L823 0 L823 80 L868 80 L868 174 L823 174 L823 408 L671 408 L507 176 L507 80 L696 80 L696 0 Z M613 174 L694 295 L696 295 L696 174 L613 174 Z " />
<glyph glyph-name="onehalf" unicode="&#xbd;" horiz-adv-x="934" d="M127 272 L254 272 L254 680 L146 680 L27 640 L27 573 L127 573 L127 272 Z M625 680 L138 0 L259 0 L746 680 L625 680 Z M582 0 L899 0 L899 100 L755 100 L755 102 C767 109 788 125 804 137 C833 160 884 206 884 277 C884 353 830 419 718 419 C663 419 619 407 584 390 L584 289 C614 302 646 309 677 309 C717 309 750 296 750 257 C750 218 717 192 676 161 C636 130 614 113 582 92 L582 0 Z " />
<glyph glyph-name="threequarters" unicode="&#xbe;" horiz-adv-x="948" d="M157 271 C284 271 347 329 347 405 C347 452 312 483 283 494 L283 496 C309 510 336 540 336 579 C336 658 258 701 170 701 C110 701 64 688 37 676 L37 579 C61 591 95 602 135 602 C174 602 197 588 197 564 C197 540 173 528 141 528 L109 528 L109 446 L145 446 C183 446 203 432 203 408 C203 382 176 370 135 370 C97 370 56 381 33 391 L33 287 C63 279 98 271 157 271 L157 271 Z M680 680 L193 0 L314 0 L801 680 L680 680 Z M751 0 L878 0 L878 80 L923 80 L923 174 L878 174 L878 408 L726 408 L562 176 L562 80 L751 80 L751 0 Z M668 174 L749 295 L751 295 L751 174 L668 174 Z " />
<glyph glyph-name="questiondown" unicode="&#xbf;" horiz-adv-x="482" d="M202 341 L388 341 L388 500 L202 500 L202 341 Z M294 -198 C361 -198 422 -183 462 -165 L462 -3 C433 -26 395 -43 348 -43 C290 -43 255 -15 255 26 C255 66 291 94 323 117 C368 150 383 173 383 243 L383 301 L206 301 L206 263 C206 230 187 206 142 178 C87 143 40 91 40 15 C40 -107 130 -197 294 -198 L294 -198 Z " />
<glyph glyph-name="Agrave" unicode="&#xc0;" horiz-adv-x="704" d="M445 721 L366 875 L138 875 L279 721 L445 721 Z M498 0 L699 0 L495 680 L208 680 L5 0 L206 0 L243 141 L460 141 L498 0 Z M280 280 L347 531 L356 531 L423 280 L280 280 Z " />
<glyph glyph-name="Aacute" unicode="&#xc1;" horiz-adv-x="704" d="M555 875 L327 875 L248 721 L414 721 L555 875 Z M498 0 L699 0 L495 680 L208 680 L5 0 L206 0 L243 141 L460 141 L498 0 Z M280 280 L347 531 L356 531 L423 280 L280 280 Z " />
<glyph glyph-name="Acircumflex" unicode="&#xc2;" horiz-adv-x="704" d="M350 794 L354 794 L410 721 L578 721 L453 875 L251 875 L126 721 L294 721 L350 794 Z M498 0 L699 0 L495 680 L208 680 L5 0 L206 0 L243 141 L460 141 L498 0 Z M280 280 L347 531 L356 531 L423 280 L280 280 Z " />
<glyph glyph-name="Atilde" unicode="&#xc3;" horiz-adv-x="704" d="M281 751 C320 751 396 713 454 713 C522 713 560 774 572 851 L456 871 C453 853 441 838 423 838 C384 838 308 875 250 875 C183 875 143 815 132 738 L248 718 C251 737 263 751 281 751 L281 751 Z M498 0 L699 0 L495 680 L208 680 L5 0 L206 0 L243 141 L460 141 L498 0 Z M280 280 L347 531 L356 531 L423 280 L280 280 Z " />
<glyph glyph-name="Adieresis" unicode="&#xc4;" horiz-adv-x="704" d="M331 863 L146 863 L146 732 L331 732 L331 863 Z M557 863 L372 863 L372 732 L557 732 L557 863 Z M498 0 L699 0 L495 680 L208 680 L5 0 L206 0 L243 141 L460 141 L498 0 Z M280 280 L347 531 L356 531 L423 280 L280 280 Z " />
<glyph glyph-name="Aring" unicode="&#xc5;" horiz-adv-x="704" d="M353 698 C457 698 529 751 529 829 C529 907 457 960 353 960 C249 960 175 907 175 829 C175 751 249 698 353 698 L353 698 Z M353 882 C390 882 419 858 419 829 C419 800 390 775 353 775 C315 775 286 800 286 829 C286 858 315 882 353 882 L353 882 Z M498 0 L699 0 L495 680 L208 680 L5 0 L206 0 L243 141 L460 141 L498 0 Z M280 280 L347 531 L356 531 L423 280 L280 280 Z " />
<glyph glyph-name="AE" unicode="&#xc6;" horiz-adv-x="1049" d="M5 0 L247 0 L310 124 L521 124 L521 0 L990 0 L990 155 L718 155 L718 265 L981 265 L981 416 L718 416 L718 525 L989 525 L989 680 L380 680 L5 0 Z M388 279 L517 533 L521 533 L521 279 L388 279 Z " />
<glyph glyph-name="Ccedilla" unicode="&#xc7;" horiz-adv-x="611" d="M583 31 L583 202 C544 181 499 163 428 163 C357 163 254 217 254 340 C254 463 348 521 439 521 C501 521 544 507 582 488 L582 657 C542 675 492 689 412 689 C211 689 40 557 40 340 C40 147 161 19 329 -6 L308 -75 C319 -73 340 -72 351 -72 C374 -72 391 -80 391 -99 C391 -118 371 -126 346 -126 C327 -126 308 -123 295 -119 L295 -186 C315 -193 343 -195 371 -195 C451 -195 523 -168 523 -97 C523 -56 498 -22 426 -22 L429 -10 C494 -5 548 13 583 31 L583 31 Z " />
<glyph glyph-name="Egrave" unicode="&#xc8;" horiz-adv-x="608" d="M253 721 L419 721 L340 875 L112 875 L253 721 Z M80 0 L549 0 L549 155 L276 155 L276 265 L540 265 L540 416 L276 416 L276 525 L549 525 L549 680 L80 680 L80 0 Z " />
<glyph glyph-name="Eacute" unicode="&#xc9;" horiz-adv-x="608" d="M222 721 L388 721 L529 875 L301 875 L222 721 Z M80 0 L549 0 L549 155 L276 155 L276 265 L540 265 L540 416 L276 416 L276 525 L549 525 L549 680 L80 680 L80 0 Z " />
<glyph glyph-name="Ecircumflex" unicode="&#xca;" horiz-adv-x="608" d="M100 721 L268 721 L324 794 L328 794 L384 721 L552 721 L427 875 L225 875 L100 721 Z M80 0 L549 0 L549 155 L276 155 L276 265 L540 265 L540 416 L276 416 L276 525 L549 525 L549 680 L80 680 L80 0 Z " />
<glyph glyph-name="Edieresis" unicode="&#xcb;" horiz-adv-x="608" d="M120 732 L305 732 L305 863 L120 863 L120 732 Z M346 732 L531 732 L531 863 L346 863 L346 732 Z M80 0 L549 0 L549 155 L276 155 L276 265 L540 265 L540 416 L276 416 L276 525 L549 525 L549 680 L80 680 L80 0 Z " />
<glyph glyph-name="Igrave" unicode="&#xcc;" horiz-adv-x="356" d="M105 721 L271 721 L192 875 L-36 875 L105 721 Z M80 0 L276 0 L276 680 L80 680 L80 0 Z " />
<glyph glyph-name="Iacute" unicode="&#xcd;" horiz-adv-x="356" d="M74 721 L240 721 L381 875 L153 875 L74 721 Z M80 0 L276 0 L276 680 L80 680 L80 0 Z " />
<glyph glyph-name="Icircumflex" unicode="&#xce;" horiz-adv-x="356" d="M-48 721 L120 721 L176 794 L180 794 L236 721 L404 721 L279 875 L77 875 L-48 721 Z M80 0 L276 0 L276 680 L80 680 L80 0 Z " />
<glyph glyph-name="Idieresis" unicode="&#xcf;" horiz-adv-x="356" d="M-28 732 L157 732 L157 863 L-28 863 L-28 732 Z M198 732 L383 732 L383 863 L198 863 L198 732 Z M80 0 L276 0 L276 680 L80 680 L80 0 Z " />
<glyph glyph-name="Eth" unicode="&#xd0;" horiz-adv-x="738" d="M349 680 L80 680 L80 395 L9 395 L9 285 L80 285 L80 0 L349 0 C544 0 698 135 698 340 C698 545 544 680 349 680 L349 680 Z M317 169 L276 169 L276 285 L383 285 L383 395 L276 395 L276 511 L317 511 C411 511 483 450 483 340 C483 230 411 169 317 169 L317 169 Z " />
<glyph glyph-name="Ntilde" unicode="&#xd1;" horiz-adv-x="804" d="M504 713 C572 713 610 774 622 851 L506 871 C503 853 491 838 473 838 C434 838 358 875 300 875 C233 875 193 815 182 738 L298 718 C301 737 313 751 331 751 C370 751 446 713 504 713 L504 713 Z M80 0 L276 0 L276 408 L279 408 L485 0 L724 0 L724 680 L528 680 L528 274 L525 274 L321 680 L80 680 L80 0 Z " />
<glyph glyph-name="Ograve" unicode="&#xd2;" horiz-adv-x="760" d="M307 721 L473 721 L394 875 L166 875 L307 721 Z M381 -16 C584 -16 720 113 720 340 C720 567 584 696 381 696 C179 696 40 567 40 340 C40 113 179 -16 381 -16 L381 -16 Z M381 158 C294 158 250 228 250 340 C250 452 294 522 381 522 C469 522 510 452 510 340 C510 228 469 158 381 158 L381 158 Z " />
<glyph glyph-name="Oacute" unicode="&#xd3;" horiz-adv-x="760" d="M276 721 L442 721 L583 875 L355 875 L276 721 Z M381 -16 C584 -16 720 113 720 340 C720 567 584 696 381 696 C179 696 40 567 40 340 C40 113 179 -16 381 -16 L381 -16 Z M381 158 C294 158 250 228 250 340 C250 452 294 522 381 522 C469 522 510 452 510 340 C510 228 469 158 381 158 L381 158 Z " />
<glyph glyph-name="Ocircumflex" unicode="&#xd4;" horiz-adv-x="760" d="M154 721 L322 721 L378 794 L382 794 L438 721 L606 721 L481 875 L279 875 L154 721 Z M381 -16 C584 -16 720 113 720 340 C720 567 584 696 381 696 C179 696 40 567 40 340 C40 113 179 -16 381 -16 L381 -16 Z M381 158 C294 158 250 228 250 340 C250 452 294 522 381 522 C469 522 510 452 510 340 C510 228 469 158 381 158 L381 158 Z " />
<glyph glyph-name="Otilde" unicode="&#xd5;" horiz-adv-x="760" d="M482 713 C550 713 588 774 600 851 L484 871 C481 853 469 838 451 838 C412 838 336 875 278 875 C211 875 171 815 160 738 L276 718 C279 737 291 751 309 751 C348 751 424 713 482 713 L482 713 Z M381 -16 C584 -16 720 113 720 340 C720 567 584 696 381 696 C179 696 40 567 40 340 C40 113 179 -16 381 -16 L381 -16 Z M381 158 C294 158 250 228 250 340 C250 452 294 522 381 522 C469 522 510 452 510 340 C510 228 469 158 381 158 L381 158 Z " />
<glyph glyph-name="Odieresis" unicode="&#xd6;" horiz-adv-x="760" d="M174 732 L359 732 L359 863 L174 863 L174 732 Z M400 732 L585 732 L585 863 L400 863 L400 732 Z M381 -16 C584 -16 720 113 720 340 C720 567 584 696 381 696 C179 696 40 567 40 340 C40 113 179 -16 381 -16 L381 -16 Z M381 158 C294 158 250 228 250 340 C250 452 294 522 381 522 C469 522 510 452 510 340 C510 228 469 158 381 158 L381 158 Z " />
<glyph glyph-name="multiply" unicode="&#xd7;" horiz-adv-x="528" d="M405 24 L478 96 L337 236 L477 376 L404 449 L264 309 L122 452 L50 379 L192 237 L54 99 L127 26 L265 164 L405 24 Z " />
<glyph glyph-name="Oslash" unicode="&#xd8;" horiz-adv-x="760" d="M611 618 L677 723 L566 723 L531 668 C487 686 437 696 381 696 C179 696 40 567 40 340 C40 217 80 124 150 63 L82 -44 L193 -44 L229 13 C274 -6 325 -16 381 -16 C584 -16 720 113 720 340 C720 463 680 558 611 618 L611 618 Z M250 340 C250 452 294 522 381 522 C401 522 418 519 433 512 L264 245 C255 271 250 303 250 340 L250 340 Z M381 158 C361 158 343 162 327 169 L496 437 C505 410 510 377 510 340 C510 228 469 158 381 158 L381 158 Z " />
<glyph glyph-name="Ugrave" unicode="&#xd9;" horiz-adv-x="736" d="M295 721 L461 721 L382 875 L154 875 L295 721 Z M368 -16 C528 -16 661 61 661 251 L661 680 L465 680 L465 269 C465 192 423 158 368 158 C313 158 271 192 271 269 L271 680 L75 680 L75 251 C75 61 208 -16 368 -16 L368 -16 Z " />
<glyph glyph-name="Uacute" unicode="&#xda;" horiz-adv-x="736" d="M264 721 L430 721 L571 875 L343 875 L264 721 Z M368 -16 C528 -16 661 61 661 251 L661 680 L465 680 L465 269 C465 192 423 158 368 158 C313 158 271 192 271 269 L271 680 L75 680 L75 251 C75 61 208 -16 368 -16 L368 -16 Z " />
<glyph glyph-name="Ucircumflex" unicode="&#xdb;" horiz-adv-x="736" d="M142 721 L310 721 L366 794 L370 794 L426 721 L594 721 L469 875 L267 875 L142 721 Z M368 -16 C528 -16 661 61 661 251 L661 680 L465 680 L465 269 C465 192 423 158 368 158 C313 158 271 192 271 269 L271 680 L75 680 L75 251 C75 61 208 -16 368 -16 L368 -16 Z " />
<glyph glyph-name="Udieresis" unicode="&#xdc;" horiz-adv-x="736" d="M162 732 L347 732 L347 863 L162 863 L162 732 Z M388 732 L573 732 L573 863 L388 863 L388 732 Z M368 -16 C528 -16 661 61 661 251 L661 680 L465 680 L465 269 C465 192 423 158 368 158 C313 158 271 192 271 269 L271 680 L75 680 L75 251 C75 61 208 -16 368 -16 L368 -16 Z " />
<glyph glyph-name="Yacute" unicode="&#xdd;" horiz-adv-x="671" d="M229 721 L395 721 L536 875 L308 875 L229 721 Z M235 0 L431 0 L431 249 L666 680 L449 680 L338 437 L334 437 L227 680 L5 680 L235 249 L235 0 Z " />
<glyph glyph-name="Thorn" unicode="&#xde;" horiz-adv-x="709" d="M80 680 L80 0 L291 0 L291 106 L426 106 C585 106 684 216 684 341 C684 466 585 575 426 575 L291 575 L291 680 L80 680 Z M394 261 L291 261 L291 420 L394 420 C437 420 470 383 470 340 C470 297 437 261 394 261 L394 261 Z " />
<glyph glyph-name="germandbls" unicode="&#xdf;" horiz-adv-x="639" d="M403 -8 C525 -8 605 77 605 199 C605 303 546 360 495 376 L495 380 C539 406 567 450 567 508 C567 590 499 696 324 696 C161 696 55 623 55 453 L55 0 L260 0 L260 486 C260 518 279 555 325 555 C367 555 388 528 388 494 C388 454 360 431 322 431 C317 431 313 431 307 432 L307 314 C312 315 315 315 322 315 C355 315 396 296 396 221 C396 171 372 137 333 137 C323 137 315 138 310 139 L310 8 C326 0 362 -8 403 -8 L403 -8 Z " />
<glyph glyph-name="agrave" unicode="&#xe0;" horiz-adv-x="579" d="M221 541 L376 541 L290 680 L78 680 L221 541 Z M261 517 C177 517 118 497 86 484 L86 360 C126 383 182 398 235 398 C309 398 338 375 338 335 L338 317 C311 319 291 320 255 320 C110 320 20 263 20 155 C20 53 96 -16 186 -16 C260 -16 307 13 333 58 L337 58 C337 37 339 17 342 0 L529 0 C526 33 524 67 524 100 L524 323 C524 461 415 517 261 517 L261 517 Z M338 229 L338 197 C340 139 292 111 250 111 C218 111 194 130 194 162 C194 202 225 229 283 229 L338 229 Z " />
<glyph glyph-name="aacute" unicode="&#xe1;" horiz-adv-x="579" d="M188 541 L343 541 L486 680 L274 680 L188 541 Z M261 517 C177 517 118 497 86 484 L86 360 C126 383 182 398 235 398 C309 398 338 375 338 335 L338 317 C311 319 291 320 255 320 C110 320 20 263 20 155 C20 53 96 -16 186 -16 C260 -16 307 13 333 58 L337 58 C337 37 339 17 342 0 L529 0 C526 33 524 67 524 100 L524 323 C524 461 415 517 261 517 L261 517 Z M338 229 L338 197 C340 139 292 111 250 111 C218 111 194 130 194 162 C194 202 225 229 283 229 L338 229 Z " />
<glyph glyph-name="acircumflex" unicode="&#xe2;" horiz-adv-x="579" d="M83 541 L235 541 L275 607 L279 607 L319 541 L471 541 L377 680 L177 680 L83 541 Z M261 517 C177 517 118 497 86 484 L86 360 C126 383 182 398 235 398 C309 398 338 375 338 335 L338 317 C311 319 291 320 255 320 C110 320 20 263 20 155 C20 53 96 -16 186 -16 C260 -16 307 13 333 58 L337 58 C337 37 339 17 342 0 L529 0 C526 33 524 67 524 100 L524 323 C524 461 415 517 261 517 L261 517 Z M338 229 L338 197 C340 139 292 111 250 111 C218 111 194 130 194 162 C194 202 225 229 283 229 L338 229 Z " />
<glyph glyph-name="atilde" unicode="&#xe3;" horiz-adv-x="579" d="M183 542 C185 557 197 571 214 571 C248 571 318 538 370 538 C427 538 467 590 477 662 L371 681 C369 669 359 652 340 652 C306 652 236 684 184 684 C129 684 89 638 77 561 L183 542 Z M261 517 C177 517 118 497 86 484 L86 360 C126 383 182 398 235 398 C309 398 338 375 338 335 L338 317 C311 319 291 320 255 320 C110 320 20 263 20 155 C20 53 96 -16 186 -16 C260 -16 307 13 333 58 L337 58 C337 37 339 17 342 0 L529 0 C526 33 524 67 524 100 L524 323 C524 461 415 517 261 517 L261 517 Z M338 229 L338 197 C340 139 292 111 250 111 C218 111 194 130 194 162 C194 202 225 229 283 229 L338 229 Z " />
<glyph glyph-name="adieresis" unicode="&#xe4;" horiz-adv-x="579" d="M91 553 L256 553 L256 680 L91 680 L91 553 Z M297 553 L462 553 L462 680 L297 680 L297 553 Z M261 517 C177 517 118 497 86 484 L86 360 C126 383 182 398 235 398 C309 398 338 375 338 335 L338 317 C311 319 291 320 255 320 C110 320 20 263 20 155 C20 53 96 -16 186 -16 C260 -16 307 13 333 58 L337 58 C337 37 339 17 342 0 L529 0 C526 33 524 67 524 100 L524 323 C524 461 415 517 261 517 L261 517 Z M338 229 L338 197 C340 139 292 111 250 111 C218 111 194 130 194 162 C194 202 225 229 283 229 L338 229 Z " />
<glyph glyph-name="aring" unicode="&#xe5;" horiz-adv-x="579" d="M278 532 C366 532 428 577 428 644 C428 711 366 756 278 756 C190 756 126 711 126 644 C126 577 190 532 278 532 L278 532 Z M278 599 C247 599 220 619 220 644 C220 668 247 688 278 688 C308 688 335 668 335 644 C335 619 308 599 278 599 L278 599 Z M261 517 C177 517 118 497 86 484 L86 360 C126 383 182 398 235 398 C309 398 338 375 338 335 L338 317 C311 319 291 320 255 320 C110 320 20 263 20 155 C20 53 96 -16 186 -16 C260 -16 307 13 333 58 L337 58 C337 37 339 17 342 0 L529 0 C526 33 524 67 524 100 L524 323 C524 461 415 517 261 517 L261 517 Z M338 229 L338 197 C340 139 292 111 250 111 C218 111 194 130 194 162 C194 202 225 229 283 229 L338 229 Z " />
<glyph glyph-name="ae" unicode="&#xe6;" horiz-adv-x="894" d="M196 -16 C287 -16 359 8 416 63 C468 11 539 -16 613 -16 C702 -16 768 5 811 30 L811 163 C759 132 705 117 650 117 C588 117 530 147 525 211 L860 211 C864 428 745 516 602 516 C550 516 490 499 446 460 C400 502 341 517 261 517 C177 517 118 497 86 484 L86 360 C126 383 182 398 235 398 C309 398 338 375 338 335 L338 314 C311 316 291 317 255 317 C110 317 20 263 20 155 C20 53 96 -16 196 -16 L196 -16 Z M525 309 C528 362 561 395 606 395 C651 395 682 363 685 309 L525 309 Z M250 111 C218 111 194 130 194 162 C194 202 225 226 283 226 L338 226 L338 197 C338 139 292 111 250 111 L250 111 Z " />
<glyph glyph-name="ccedilla" unicode="&#xe7;" horiz-adv-x="503" d="M366 380 C415 380 449 367 473 346 L473 483 C449 496 399 511 324 511 C174 511 34 427 34 250 C34 109 123 26 235 -1 L211 -93 C222 -91 233 -90 244 -90 C267 -90 284 -98 284 -117 C284 -136 264 -144 239 -144 C225 -144 211 -141 198 -137 L198 -204 C218 -211 241 -213 264 -213 C334 -213 406 -186 406 -115 C406 -74 381 -40 321 -40 L327 -12 C400 -12 449 7 473 20 L473 163 C449 145 416 132 367 132 C290 132 232 179 232 258 C232 347 301 380 366 380 L366 380 Z " />
<glyph glyph-name="egrave" unicode="&#xe8;" horiz-adv-x="588" d="M240 541 L395 541 L309 680 L97 680 L240 541 Z M296 514 C162 514 34 423 34 250 C34 73 170 -14 307 -14 C396 -14 462 7 505 32 L505 165 C453 134 399 119 344 119 C282 119 224 147 219 211 L554 211 C558 428 439 514 296 514 L296 514 Z M300 393 C345 393 376 363 379 309 L219 309 C222 362 255 393 300 393 L300 393 Z " />
<glyph glyph-name="eacute" unicode="&#xe9;" horiz-adv-x="588" d="M207 541 L362 541 L505 680 L293 680 L207 541 Z M296 514 C162 514 34 423 34 250 C34 73 170 -14 307 -14 C396 -14 462 7 505 32 L505 165 C453 134 399 119 344 119 C282 119 224 147 219 211 L554 211 C558 428 439 514 296 514 L296 514 Z M300 393 C345 393 376 363 379 309 L219 309 C222 362 255 393 300 393 L300 393 Z " />
<glyph glyph-name="ecircumflex" unicode="&#xea;" horiz-adv-x="588" d="M102 541 L254 541 L294 607 L298 607 L338 541 L490 541 L396 680 L196 680 L102 541 Z M296 514 C162 514 34 423 34 250 C34 73 170 -14 307 -14 C396 -14 462 7 505 32 L505 165 C453 134 399 119 344 119 C282 119 224 147 219 211 L554 211 C558 428 439 514 296 514 L296 514 Z M300 393 C345 393 376 363 379 309 L219 309 C222 362 255 393 300 393 L300 393 Z " />
<glyph glyph-name="edieresis" unicode="&#xeb;" horiz-adv-x="588" d="M110 553 L275 553 L275 680 L110 680 L110 553 Z M316 553 L481 553 L481 680 L316 680 L316 553 Z M296 514 C162 514 34 423 34 250 C34 73 170 -14 307 -14 C396 -14 462 7 505 32 L505 165 C453 134 399 119 344 119 C282 119 224 147 219 211 L554 211 C558 428 439 514 296 514 L296 514 Z M300 393 C345 393 376 363 379 309 L219 309 C222 362 255 393 300 393 L300 393 Z " />
<glyph glyph-name="igrave" unicode="&#xec;" horiz-adv-x="306" d="M97 541 L252 541 L166 680 L-46 680 L97 541 Z M55 0 L251 0 L251 500 L55 500 L55 0 Z " />
<glyph glyph-name="iacute" unicode="&#xed;" horiz-adv-x="306" d="M64 541 L219 541 L362 680 L150 680 L64 541 Z M55 0 L251 0 L251 500 L55 500 L55 0 Z " />
<glyph glyph-name="icircumflex" unicode="&#xee;" horiz-adv-x="306" d="M-41 541 L111 541 L151 607 L155 607 L195 541 L347 541 L253 680 L53 680 L-41 541 Z M55 0 L251 0 L251 500 L55 500 L55 0 Z " />
<glyph glyph-name="idieresis" unicode="&#xef;" horiz-adv-x="306" d="M-33 553 L132 553 L132 680 L-33 680 L-33 553 Z M173 553 L338 553 L338 680 L173 680 L173 553 Z M55 0 L251 0 L251 500 L55 500 L55 0 Z " />
<glyph glyph-name="eth" unicode="&#xf0;" horiz-adv-x="628" d="M34 237 C34 72 162 -16 321 -16 C479 -16 608 100 608 279 C608 398 559 496 500 567 L568 582 L553 649 L443 625 C414 650 387 668 362 680 L161 680 C198 662 244 632 284 592 L204 575 L219 508 L333 532 C347 511 359 488 368 463 L366 461 C366 461 335 480 278 480 C161 480 34 402 34 237 L34 237 Z M238 237 C238 316 284 342 321 342 C358 342 404 316 404 237 C404 158 358 132 321 132 C284 132 238 158 238 237 L238 237 Z " />
<glyph glyph-name="ntilde" unicode="&#xf1;" horiz-adv-x="611" d="M212 542 C214 557 226 571 243 571 C277 571 347 538 399 538 C456 538 496 590 506 662 L400 681 C398 669 388 652 369 652 C335 652 265 684 213 684 C158 684 118 638 106 561 L212 542 Z M55 0 L251 0 L251 291 C251 335 276 353 308 353 C340 353 365 335 365 291 L365 0 L561 0 L561 346 C561 458 480 516 393 516 C326 516 276 486 249 442 L245 442 L245 500 L55 500 L55 0 Z " />
<glyph glyph-name="ograve" unicode="&#xf2;" horiz-adv-x="624" d="M256 541 L411 541 L325 680 L113 680 L256 541 Z M34 250 C34 76 153 -14 312 -14 C471 -14 590 76 590 250 C590 424 471 514 312 514 C153 514 34 424 34 250 L34 250 Z M231 250 C231 341 277 364 312 364 C347 364 393 341 393 250 C393 159 347 136 312 136 C277 136 231 159 231 250 L231 250 Z " />
<glyph glyph-name="oacute" unicode="&#xf3;" horiz-adv-x="624" d="M223 541 L378 541 L521 680 L309 680 L223 541 Z M34 250 C34 76 153 -14 312 -14 C471 -14 590 76 590 250 C590 424 471 514 312 514 C153 514 34 424 34 250 L34 250 Z M231 250 C231 341 277 364 312 364 C347 364 393 341 393 250 C393 159 347 136 312 136 C277 136 231 159 231 250 L231 250 Z " />
<glyph glyph-name="ocircumflex" unicode="&#xf4;" horiz-adv-x="624" d="M118 541 L270 541 L310 607 L314 607 L354 541 L506 541 L412 680 L212 680 L118 541 Z M34 250 C34 76 153 -14 312 -14 C471 -14 590 76 590 250 C590 424 471 514 312 514 C153 514 34 424 34 250 L34 250 Z M231 250 C231 341 277 364 312 364 C347 364 393 341 393 250 C393 159 347 136 312 136 C277 136 231 159 231 250 L231 250 Z " />
<glyph glyph-name="otilde" unicode="&#xf5;" horiz-adv-x="624" d="M218 542 C220 557 232 571 249 571 C283 571 353 538 405 538 C462 538 502 590 512 662 L406 681 C404 669 394 652 375 652 C341 652 271 684 219 684 C164 684 124 638 112 561 L218 542 Z M34 250 C34 76 153 -14 312 -14 C471 -14 590 76 590 250 C590 424 471 514 312 514 C153 514 34 424 34 250 L34 250 Z M231 250 C231 341 277 364 312 364 C347 364 393 341 393 250 C393 159 347 136 312 136 C277 136 231 159 231 250 L231 250 Z " />
<glyph glyph-name="odieresis" unicode="&#xf6;" horiz-adv-x="624" d="M126 553 L291 553 L291 680 L126 680 L126 553 Z M332 553 L497 553 L497 680 L332 680 L332 553 Z M34 250 C34 76 153 -14 312 -14 C471 -14 590 76 590 250 C590 424 471 514 312 514 C153 514 34 424 34 250 L34 250 Z M231 250 C231 341 277 364 312 364 C347 364 393 341 393 250 C393 159 347 136 312 136 C277 136 231 159 231 250 L231 250 Z " />
<glyph glyph-name="divide" unicode="&#xf7;" horiz-adv-x="584" d="M226 372 L354 372 L354 475 L226 475 L226 372 Z M50 187 L534 187 L534 290 L50 290 L50 187 Z M226 0 L354 0 L354 103 L226 103 L226 0 Z " />
<glyph glyph-name="oslash" unicode="&#xf8;" horiz-adv-x="624" d="M500 457 L557 543 L455 543 L424 497 C390 508 352 514 312 514 C153 514 34 424 34 250 C34 157 68 87 125 43 L68 -43 L170 -43 L201 3 C234 -8 272 -14 312 -14 C471 -14 590 76 590 250 C590 343 556 412 500 457 L500 457 Z M312 364 C322 364 334 362 345 357 L238 196 C234 210 231 228 231 250 C231 341 277 364 312 364 L312 364 Z M312 136 C302 136 291 138 280 143 L386 304 C390 290 393 272 393 250 C393 159 347 136 312 136 L312 136 Z " />
<glyph glyph-name="ugrave" unicode="&#xf9;" horiz-adv-x="611" d="M250 541 L405 541 L319 680 L107 680 L250 541 Z M556 500 L360 500 L360 206 C360 162 335 144 303 144 C271 144 246 162 246 206 L246 500 L50 500 L50 168 C50 48 123 -16 220 -16 C295 -16 352 18 372 62 L374 60 L377 0 L556 0 L556 500 Z " />
<glyph glyph-name="uacute" unicode="&#xfa;" horiz-adv-x="611" d="M217 541 L372 541 L515 680 L303 680 L217 541 Z M556 500 L360 500 L360 206 C360 162 335 144 303 144 C271 144 246 162 246 206 L246 500 L50 500 L50 168 C50 48 123 -16 220 -16 C295 -16 352 18 372 62 L374 60 L377 0 L556 0 L556 500 Z " />
<glyph glyph-name="ucircumflex" unicode="&#xfb;" horiz-adv-x="611" d="M112 541 L264 541 L304 607 L308 607 L348 541 L500 541 L406 680 L206 680 L112 541 Z M556 500 L360 500 L360 206 C360 162 335 144 303 144 C271 144 246 162 246 206 L246 500 L50 500 L50 168 C50 48 123 -16 220 -16 C295 -16 352 18 372 62 L374 60 L377 0 L556 0 L556 500 Z " />
<glyph glyph-name="udieresis" unicode="&#xfc;" horiz-adv-x="611" d="M120 553 L285 553 L285 680 L120 680 L120 553 Z M326 553 L491 553 L491 680 L326 680 L326 553 Z M556 500 L360 500 L360 206 C360 162 335 144 303 144 C271 144 246 162 246 206 L246 500 L50 500 L50 168 C50 48 123 -16 220 -16 C295 -16 352 18 372 62 L374 60 L377 0 L556 0 L556 500 Z " />
<glyph glyph-name="yacute" unicode="&#xfd;" horiz-adv-x="582" d="M202 541 L357 541 L500 680 L288 680 L202 541 Z M296 185 L292 185 L213 500 L5 500 L200 15 C192 -11 165 -34 126 -34 C105 -34 83 -27 65 -17 L65 -155 C98 -166 136 -172 172 -172 C298 -172 362 -94 396 1 L577 500 L375 500 L296 185 Z " />
<glyph glyph-name="thorn" unicode="&#xfe;" horiz-adv-x="635" d="M55 -160 L251 -160 L251 51 L255 53 C278 13 316 -16 392 -16 C500 -16 601 95 601 250 C601 425 500 516 392 516 C316 516 278 486 255 447 L251 449 L251 680 L55 680 L55 -160 Z M323 134 C289 134 245 159 245 250 C245 341 289 366 323 366 C358 366 401 341 401 250 C401 159 358 134 323 134 L323 134 Z " />
<glyph glyph-name="ydieresis" unicode="&#xff;" horiz-adv-x="582" d="M105 553 L270 553 L270 680 L105 680 L105 553 Z M311 553 L476 553 L476 680 L311 680 L311 553 Z M296 185 L292 185 L213 500 L5 500 L200 15 C192 -11 165 -34 126 -34 C105 -34 83 -27 65 -17 L65 -155 C98 -166 136 -172 172 -172 C298 -172 362 -94 396 1 L577 500 L375 500 L296 185 Z " />
<glyph glyph-name="Amacron" unicode="&#x100;" horiz-adv-x="704" d="M533 853 L171 853 L171 743 L533 743 L533 853 Z M498 0 L699 0 L495 680 L208 680 L5 0 L206 0 L243 141 L460 141 L498 0 Z M280 280 L347 531 L356 531 L423 280 L280 280 Z " />
<glyph glyph-name="amacron" unicode="&#x101;" horiz-adv-x="579" d="M110 556 L444 556 L444 666 L110 666 L110 556 Z M261 517 C177 517 118 497 86 484 L86 360 C126 383 182 398 235 398 C309 398 338 375 338 335 L338 317 C311 319 291 320 255 320 C110 320 20 263 20 155 C20 53 96 -16 186 -16 C260 -16 307 13 333 58 L337 58 C337 37 339 17 342 0 L529 0 C526 33 524 67 524 100 L524 323 C524 461 415 517 261 517 L261 517 Z M338 229 L338 197 C340 139 292 111 250 111 C218 111 194 130 194 162 C194 202 225 229 283 229 L338 229 Z " />
<glyph glyph-name="Abreve" unicode="&#x102;" horiz-adv-x="704" d="M352 712 C496 712 565 811 565 875 L420 875 C420 855 408 811 352 811 C296 811 284 855 284 875 L139 875 C139 813 208 712 352 712 L352 712 Z M498 0 L699 0 L495 680 L208 680 L5 0 L206 0 L243 141 L460 141 L498 0 Z M280 280 L347 531 L356 531 L423 280 L280 280 Z " />
<glyph glyph-name="abreve" unicode="&#x103;" horiz-adv-x="579" d="M277 532 C421 532 468 631 468 680 L333 680 C333 661 318 628 277 628 C236 628 221 661 221 680 L86 680 C86 633 133 532 277 532 L277 532 Z M261 517 C177 517 118 497 86 484 L86 360 C126 383 182 398 235 398 C309 398 338 375 338 335 L338 317 C311 319 291 320 255 320 C110 320 20 263 20 155 C20 53 96 -16 186 -16 C260 -16 307 13 333 58 L337 58 C337 37 339 17 342 0 L529 0 C526 33 524 67 524 100 L524 323 C524 461 415 517 261 517 L261 517 Z M338 229 L338 197 C340 139 292 111 250 111 C218 111 194 130 194 162 C194 202 225 229 283 229 L338 229 Z " />
<glyph glyph-name="Aogonek" unicode="&#x104;" horiz-adv-x="704" d="M631 -58 C631 -27 671 -10 699 0 L495 680 L208 680 L5 0 L206 0 L243 141 L460 141 L498 0 L575 0 C543 -20 515 -52 515 -87 C515 -143 563 -178 629 -178 C658 -178 677 -174 699 -166 L699 -81 C690 -86 677 -90 665 -90 C649 -90 631 -79 631 -58 L631 -58 Z M280 280 L347 531 L356 531 L423 280 L280 280 Z " />
<glyph glyph-name="aogonek" unicode="&#x105;" horiz-adv-x="579" d="M461 -58 C461 -27 501 -10 529 0 C526 33 524 67 524 100 L524 323 C524 461 415 517 261 517 C177 517 118 497 86 484 L86 360 C126 383 182 398 235 398 C309 398 338 375 338 335 L338 317 C311 319 291 320 255 320 C110 320 20 263 20 155 C20 53 96 -16 186 -16 C260 -16 307 13 333 58 L337 58 C337 37 339 17 342 0 L405 0 C373 -20 345 -52 345 -87 C345 -143 393 -178 459 -178 C488 -178 507 -174 529 -166 L529 -81 C520 -86 507 -90 495 -90 C479 -90 461 -79 461 -58 L461 -58 Z M250 111 C218 111 194 130 194 162 C194 202 225 229 283 229 L338 229 L338 197 C340 139 292 111 250 111 L250 111 Z " />
<glyph glyph-name="Cacute" unicode="&#x106;" horiz-adv-x="611" d="M287 721 L453 721 L594 875 L366 875 L287 721 Z M393 -11 C474 -11 542 10 583 31 L583 202 C544 181 499 163 428 163 C357 163 254 217 254 340 C254 463 348 521 439 521 C501 521 544 507 582 488 L582 657 C542 675 492 689 412 689 C211 689 40 557 40 340 C40 123 193 -11 393 -11 L393 -11 Z " />
<glyph glyph-name="cacute" unicode="&#x107;" horiz-adv-x="503" d="M213 541 L368 541 L511 680 L299 680 L213 541 Z M324 -12 C399 -12 449 7 473 20 L473 163 C449 145 416 132 367 132 C290 132 232 179 232 258 C232 347 301 380 366 380 C415 380 449 367 473 346 L473 483 C449 496 399 511 324 511 C174 511 34 427 34 250 C34 73 174 -12 324 -12 L324 -12 Z " />
<glyph glyph-name="Ccircumflex" unicode="&#x108;" horiz-adv-x="611" d="M165 721 L333 721 L389 794 L393 794 L449 721 L617 721 L492 875 L290 875 L165 721 Z M393 -11 C474 -11 542 10 583 31 L583 202 C544 181 499 163 428 163 C357 163 254 217 254 340 C254 463 348 521 439 521 C501 521 544 507 582 488 L582 657 C542 675 492 689 412 689 C211 689 40 557 40 340 C40 123 193 -11 393 -11 L393 -11 Z " />
<glyph glyph-name="ccircumflex" unicode="&#x109;" horiz-adv-x="503" d="M108 541 L260 541 L300 607 L304 607 L344 541 L496 541 L402 680 L202 680 L108 541 Z M324 -12 C399 -12 449 7 473 20 L473 163 C449 145 416 132 367 132 C290 132 232 179 232 258 C232 347 301 380 366 380 C415 380 449 367 473 346 L473 483 C449 496 399 511 324 511 C174 511 34 427 34 250 C34 73 174 -12 324 -12 L324 -12 Z " />
<glyph glyph-name="Cdotaccent" unicode="&#x10a;" horiz-adv-x="611" d="M288 728 L494 728 L494 867 L288 867 L288 728 Z M393 -11 C474 -11 542 10 583 31 L583 202 C544 181 499 163 428 163 C357 163 254 217 254 340 C254 463 348 521 439 521 C501 521 544 507 582 488 L582 657 C542 675 492 689 412 689 C211 689 40 557 40 340 C40 123 193 -11 393 -11 L393 -11 Z " />
<glyph glyph-name="cdotaccent" unicode="&#x10b;" horiz-adv-x="503" d="M199 541 L405 541 L405 680 L199 680 L199 541 Z M324 -12 C399 -12 449 7 473 20 L473 163 C449 145 416 132 367 132 C290 132 232 179 232 258 C232 347 301 380 366 380 C415 380 449 367 473 346 L473 483 C449 496 399 511 324 511 C174 511 34 427 34 250 C34 73 174 -12 324 -12 L324 -12 Z " />
<glyph glyph-name="Ccaron" unicode="&#x10c;" horiz-adv-x="611" d="M288 721 L494 721 L631 875 L461 875 L393 801 L389 801 L321 875 L151 875 L288 721 Z M393 -11 C474 -11 542 10 583 31 L583 202 C544 181 499 163 428 163 C357 163 254 217 254 340 C254 463 348 521 439 521 C501 521 544 507 582 488 L582 657 C542 675 492 689 412 689 C211 689 40 557 40 340 C40 123 193 -11 393 -11 L393 -11 Z " />
<glyph glyph-name="ccaron" unicode="&#x10d;" horiz-adv-x="503" d="M202 541 L402 541 L505 680 L351 680 L304 614 L300 614 L253 680 L99 680 L202 541 Z M324 -12 C399 -12 449 7 473 20 L473 163 C449 145 416 132 367 132 C290 132 232 179 232 258 C232 347 301 380 366 380 C415 380 449 367 473 346 L473 483 C449 496 399 511 324 511 C174 511 34 427 34 250 C34 73 174 -12 324 -12 L324 -12 Z " />
<glyph glyph-name="Dcaron" unicode="&#x10e;" horiz-adv-x="738" d="M223 721 L429 721 L566 875 L396 875 L328 801 L324 801 L256 875 L86 875 L223 721 Z M80 0 L349 0 C544 0 698 135 698 340 C698 545 544 680 349 680 L80 680 L80 0 Z M276 169 L276 511 L317 511 C411 511 483 450 483 340 C483 230 411 169 317 169 L276 169 Z " />
<glyph glyph-name="dcaron" unicode="&#x10f;" horiz-adv-x="636" d="M581 680 L385 680 L385 448 L381 448 C363 485 318 516 247 516 C138 516 34 423 34 245 C34 84 146 -16 256 -16 C325 -16 361 14 387 59 L391 57 L394 0 L581 0 L581 680 Z M634 481 L751 481 L797 680 L634 680 L634 481 Z M313 366 C347 366 391 341 391 250 C391 159 347 134 313 134 C278 134 235 159 235 250 C235 341 278 366 313 366 L313 366 Z " />
<glyph glyph-name="Dcroat" unicode="&#x110;" horiz-adv-x="738" d="M349 680 L80 680 L80 395 L9 395 L9 285 L80 285 L80 0 L349 0 C544 0 698 135 698 340 C698 545 544 680 349 680 L349 680 Z M317 169 L276 169 L276 285 L383 285 L383 395 L276 395 L276 511 L317 511 C411 511 483 450 483 340 C483 230 411 169 317 169 L317 169 Z " />
<glyph glyph-name="dcroat" unicode="&#x111;" horiz-adv-x="636" d="M646 629 L581 629 L581 680 L385 680 L385 629 L306 629 L306 539 L385 539 L385 448 L381 448 C363 485 318 516 247 516 C138 516 34 423 34 245 C34 84 146 -16 256 -16 C325 -16 361 14 387 59 L391 57 L394 0 L581 0 L581 539 L646 539 L646 629 Z M313 134 C278 134 235 159 235 250 C235 341 278 366 313 366 C347 366 391 341 391 250 C391 159 347 134 313 134 L313 134 Z " />
<glyph glyph-name="Emacron" unicode="&#x112;" horiz-adv-x="608" d="M145 743 L507 743 L507 853 L145 853 L145 743 Z M80 0 L549 0 L549 155 L276 155 L276 265 L540 265 L540 416 L276 416 L276 525 L549 525 L549 680 L80 680 L80 0 Z " />
<glyph glyph-name="emacron" unicode="&#x113;" horiz-adv-x="588" d="M129 556 L463 556 L463 666 L129 666 L129 556 Z M296 514 C162 514 34 423 34 250 C34 73 170 -14 307 -14 C396 -14 462 7 505 32 L505 165 C453 134 399 119 344 119 C282 119 224 147 219 211 L554 211 C558 428 439 514 296 514 L296 514 Z M300 393 C345 393 376 363 379 309 L219 309 C222 362 255 393 300 393 L300 393 Z " />
<glyph glyph-name="Ebreve" unicode="&#x114;" horiz-adv-x="608" d="M326 712 C470 712 539 811 539 875 L394 875 C394 855 382 811 326 811 C270 811 258 855 258 875 L113 875 C113 813 182 712 326 712 L326 712 Z M80 0 L549 0 L549 155 L276 155 L276 265 L540 265 L540 416 L276 416 L276 525 L549 525 L549 680 L80 680 L80 0 Z " />
<glyph glyph-name="ebreve" unicode="&#x115;" horiz-adv-x="588" d="M296 532 C440 532 487 631 487 680 L352 680 C352 661 337 628 296 628 C255 628 240 661 240 680 L105 680 C105 633 152 532 296 532 L296 532 Z M296 514 C162 514 34 423 34 250 C34 73 170 -14 307 -14 C396 -14 462 7 505 32 L505 165 C453 134 399 119 344 119 C282 119 224 147 219 211 L554 211 C558 428 439 514 296 514 L296 514 Z M300 393 C345 393 376 363 379 309 L219 309 C222 362 255 393 300 393 L300 393 Z " />
<glyph glyph-name="Edotaccent" unicode="&#x116;" horiz-adv-x="608" d="M223 728 L429 728 L429 867 L223 867 L223 728 Z M80 0 L549 0 L549 155 L276 155 L276 265 L540 265 L540 416 L276 416 L276 525 L549 525 L549 680 L80 680 L80 0 Z " />
<glyph glyph-name="edotaccent" unicode="&#x117;" horiz-adv-x="588" d="M193 541 L399 541 L399 680 L193 680 L193 541 Z M296 514 C162 514 34 423 34 250 C34 73 170 -14 307 -14 C396 -14 462 7 505 32 L505 165 C453 134 399 119 344 119 C282 119 224 147 219 211 L554 211 C558 428 439 514 296 514 L296 514 Z M300 393 C345 393 376 363 379 309 L219 309 C222 362 255 393 300 393 L300 393 Z " />
<glyph glyph-name="Eogonek" unicode="&#x118;" horiz-adv-x="608" d="M549 525 L549 680 L80 680 L80 0 L425 0 C393 -20 365 -52 365 -87 C365 -143 413 -178 479 -178 C508 -178 527 -174 549 -166 L549 -81 C540 -86 527 -90 515 -90 C499 -90 481 -79 481 -58 C481 -27 521 -10 549 0 L549 155 L276 155 L276 265 L540 265 L540 416 L276 416 L276 525 L549 525 Z " />
<glyph glyph-name="eogonek" unicode="&#x119;" horiz-adv-x="588" d="M296 514 C162 514 34 423 34 250 C34 73 170 -14 307 -14 C316 -14 325 -14 334 -13 C326 -26 321 -40 321 -55 C321 -111 369 -146 435 -146 C464 -146 483 -142 505 -134 L505 -49 C496 -54 483 -58 471 -58 C455 -58 437 -47 437 -26 C437 -10 448 2 462 12 C478 18 492 25 505 32 L505 165 C453 134 399 119 344 119 C282 119 224 147 219 211 L554 211 C558 428 439 514 296 514 L296 514 Z M219 309 C222 362 255 393 300 393 C345 393 376 363 379 309 L219 309 Z " />
<glyph glyph-name="Ecaron" unicode="&#x11a;" horiz-adv-x="608" d="M223 721 L429 721 L566 875 L396 875 L328 801 L324 801 L256 875 L86 875 L223 721 Z M80 0 L549 0 L549 155 L276 155 L276 265 L540 265 L540 416 L276 416 L276 525 L549 525 L549 680 L80 680 L80 0 Z " />
<glyph glyph-name="ecaron" unicode="&#x11b;" horiz-adv-x="588" d="M196 541 L396 541 L499 680 L345 680 L298 614 L294 614 L247 680 L93 680 L196 541 Z M296 514 C162 514 34 423 34 250 C34 73 170 -14 307 -14 C396 -14 462 7 505 32 L505 165 C453 134 399 119 344 119 C282 119 224 147 219 211 L554 211 C558 428 439 514 296 514 L296 514 Z M300 393 C345 393 376 363 379 309 L219 309 C222 362 255 393 300 393 L300 393 Z " />
<glyph glyph-name="Gcircumflex" unicode="&#x11c;" horiz-adv-x="699" d="M184 721 L352 721 L408 794 L412 794 L468 721 L636 721 L511 875 L309 875 L184 721 Z M403 -16 C524 -16 608 21 649 42 L649 343 L458 343 L458 159 C444 156 429 154 414 154 C338 154 254 212 254 340 C254 478 328 546 455 546 C525 546 585 522 622 502 L622 662 C582 680 516 705 426 705 C195 705 40 562 40 340 C40 118 213 -16 403 -16 L403 -16 Z " />
<glyph glyph-name="gcircumflex" unicode="&#x11d;" horiz-adv-x="634" d="M122 541 L274 541 L314 607 L318 607 L358 541 L510 541 L416 680 L216 680 L122 541 Z M252 514 C146 514 34 429 34 262 C34 113 149 32 248 32 C320 32 364 65 384 91 L387 89 L387 66 C387 18 339 -41 240 -41 C187 -41 137 -28 95 2 L95 -142 C134 -158 198 -178 282 -178 C432 -178 579 -105 579 82 L579 500 L389 500 L389 442 L386 442 C362 486 324 514 252 514 L252 514 Z M312 363 C355 363 388 329 388 269 C388 209 355 175 312 175 C269 175 235 209 235 269 C235 329 269 363 312 363 L312 363 Z " />
<glyph glyph-name="Gbreve" unicode="&#x11e;" horiz-adv-x="699" d="M410 712 C554 712 623 811 623 875 L478 875 C478 855 466 811 410 811 C354 811 342 855 342 875 L197 875 C197 813 266 712 410 712 L410 712 Z M403 -16 C524 -16 608 21 649 42 L649 343 L458 343 L458 159 C444 156 429 154 414 154 C338 154 254 212 254 340 C254 478 328 546 455 546 C525 546 585 522 622 502 L622 662 C582 680 516 705 426 705 C195 705 40 562 40 340 C40 118 213 -16 403 -16 L403 -16 Z " />
<glyph glyph-name="gbreve" unicode="&#x11f;" horiz-adv-x="634" d="M316 532 C460 532 507 631 507 680 L372 680 C372 661 357 628 316 628 C275 628 260 661 260 680 L125 680 C125 633 172 532 316 532 L316 532 Z M252 514 C146 514 34 429 34 262 C34 113 149 32 248 32 C320 32 364 65 384 91 L387 89 L387 66 C387 18 339 -41 240 -41 C187 -41 137 -28 95 2 L95 -142 C134 -158 198 -178 282 -178 C432 -178 579 -105 579 82 L579 500 L389 500 L389 442 L386 442 C362 486 324 514 252 514 L252 514 Z M312 363 C355 363 388 329 388 269 C388 209 355 175 312 175 C269 175 235 209 235 269 C235 329 269 363 312 363 L312 363 Z " />
<glyph glyph-name="Gdotaccent" unicode="&#x120;" horiz-adv-x="699" d="M307 728 L513 728 L513 867 L307 867 L307 728 Z M403 -16 C524 -16 608 21 649 42 L649 343 L458 343 L458 159 C444 156 429 154 414 154 C338 154 254 212 254 340 C254 478 328 546 455 546 C525 546 585 522 622 502 L622 662 C582 680 516 705 426 705 C195 705 40 562 40 340 C40 118 213 -16 403 -16 L403 -16 Z " />
<glyph glyph-name="gdotaccent" unicode="&#x121;" horiz-adv-x="634" d="M213 541 L419 541 L419 680 L213 680 L213 541 Z M252 514 C146 514 34 429 34 262 C34 113 149 32 248 32 C320 32 364 65 384 91 L387 89 L387 66 C387 18 339 -41 240 -41 C187 -41 137 -28 95 2 L95 -142 C134 -158 198 -178 282 -178 C432 -178 579 -105 579 82 L579 500 L389 500 L389 442 L386 442 C362 486 324 514 252 514 L252 514 Z M312 363 C355 363 388 329 388 269 C388 209 355 175 312 175 C269 175 235 209 235 269 C235 329 269 363 312 363 L312 363 Z " />
<glyph glyph-name="Gcommaaccent" unicode="&#x122;" horiz-adv-x="699" d="M403 -16 C524 -16 608 21 649 42 L649 343 L458 343 L458 159 C444 156 429 154 414 154 C338 154 254 212 254 340 C254 478 328 546 455 546 C525 546 585 522 622 502 L622 662 C582 680 516 705 426 705 C195 705 40 562 40 340 C40 118 213 -16 403 -16 L403 -16 Z M292 -196 L421 -196 L508 -60 L330 -60 L292 -196 Z " />
<glyph glyph-name="gcommaaccent" unicode="&#x123;" horiz-adv-x="634" d="M218 562 L396 562 L434 698 L305 698 L218 562 Z M252 514 C146 514 34 429 34 262 C34 113 149 32 248 32 C320 32 364 65 384 91 L387 89 L387 66 C387 18 339 -41 240 -41 C187 -41 137 -28 95 2 L95 -142 C134 -158 198 -178 282 -178 C432 -178 579 -105 579 82 L579 500 L389 500 L389 442 L386 442 C362 486 324 514 252 514 L252 514 Z M312 363 C355 363 388 329 388 269 C388 209 355 175 312 175 C269 175 235 209 235 269 C235 329 269 363 312 363 L312 363 Z " />
<glyph glyph-name="Hcircumflex" unicode="&#x124;" horiz-adv-x="753" d="M150 721 L318 721 L374 794 L378 794 L434 721 L602 721 L477 875 L275 875 L150 721 Z M80 680 L80 0 L276 0 L276 266 L477 266 L477 0 L673 0 L673 680 L477 680 L477 420 L276 420 L276 680 L80 680 Z " />
<glyph glyph-name="hcircumflex" unicode="&#x125;" horiz-adv-x="611" d="M86 721 L254 721 L310 794 L314 794 L370 721 L538 721 L413 875 L211 875 L86 721 Z M251 680 L55 680 L55 0 L251 0 L251 291 C251 335 276 353 308 353 C340 353 365 335 365 291 L365 0 L561 0 L561 346 C561 458 480 516 393 516 C326 516 280 487 255 448 L251 448 L251 680 Z " />
<glyph glyph-name="Hbar" unicode="&#x126;" horiz-adv-x="753" d="M730 594 L673 594 L673 680 L477 680 L477 594 L276 594 L276 680 L80 680 L80 594 L23 594 L23 501 L80 501 L80 0 L276 0 L276 266 L477 266 L477 0 L673 0 L673 501 L730 501 L730 594 Z M477 420 L276 420 L276 501 L477 501 L477 420 Z " />
<glyph glyph-name="hbar" unicode="&#x127;" horiz-adv-x="611" d="M393 516 C326 516 280 487 255 448 L251 448 L251 539 L333 539 L333 629 L251 629 L251 680 L55 680 L55 629 L0 629 L0 539 L55 539 L55 0 L251 0 L251 291 C251 335 276 353 308 353 C340 353 365 335 365 291 L365 0 L561 0 L561 346 C561 458 480 516 393 516 L393 516 Z " />
<glyph glyph-name="Itilde" unicode="&#x128;" horiz-adv-x="356" d="M280 713 C348 713 386 774 398 851 L282 871 C279 853 267 838 249 838 C210 838 134 875 76 875 C9 875 -31 815 -42 738 L74 718 C77 737 89 751 107 751 C146 751 222 713 280 713 L280 713 Z M80 0 L276 0 L276 680 L80 680 L80 0 Z " />
<glyph glyph-name="itilde" unicode="&#x129;" horiz-adv-x="306" d="M59 542 C61 557 73 571 90 571 C124 571 194 538 246 538 C303 538 343 590 353 662 L247 681 C245 669 235 652 216 652 C182 652 112 684 60 684 C5 684 -35 638 -47 561 L59 542 Z M55 0 L251 0 L251 500 L55 500 L55 0 Z " />
<glyph glyph-name="Imacron" unicode="&#x12a;" horiz-adv-x="356" d="M-3 743 L359 743 L359 853 L-3 853 L-3 743 Z M80 0 L276 0 L276 680 L80 680 L80 0 Z " />
<glyph glyph-name="imacron" unicode="&#x12b;" horiz-adv-x="306" d="M-14 556 L320 556 L320 666 L-14 666 L-14 556 Z M55 0 L251 0 L251 500 L55 500 L55 0 Z " />
<glyph glyph-name="Ibreve" unicode="&#x12c;" horiz-adv-x="356" d="M178 712 C322 712 391 811 391 875 L246 875 C246 855 234 811 178 811 C122 811 110 855 110 875 L-35 875 C-35 813 34 712 178 712 L178 712 Z M80 0 L276 0 L276 680 L80 680 L80 0 Z " />
<glyph glyph-name="ibreve" unicode="&#x12d;" horiz-adv-x="306" d="M153 532 C297 532 344 631 344 680 L209 680 C209 661 194 628 153 628 C112 628 97 661 97 680 L-38 680 C-38 633 9 532 153 532 L153 532 Z M55 0 L251 0 L251 500 L55 500 L55 0 Z " />
<glyph glyph-name="Iogonek" unicode="&#x12e;" horiz-adv-x="356" d="M276 0 L276 680 L80 680 L80 0 L152 0 C120 -20 92 -52 92 -87 C92 -143 140 -178 206 -178 C235 -178 254 -174 276 -166 L276 -81 C267 -86 254 -90 242 -90 C226 -90 208 -79 208 -58 C208 -27 248 -10 276 0 L276 0 Z " />
<glyph glyph-name="iogonek" unicode="&#x12f;" horiz-adv-x="306" d="M50 680 L50 541 L256 541 L256 680 L50 680 Z M55 0 L127 0 C95 -20 67 -52 67 -87 C67 -143 115 -178 181 -178 C210 -178 229 -174 251 -166 L251 -81 C242 -86 229 -90 217 -90 C201 -90 183 -79 183 -58 C183 -27 223 -10 251 0 L251 500 L55 500 L55 0 Z " />
<glyph glyph-name="Idotaccent" unicode="&#x130;" horiz-adv-x="356" d="M75 728 L281 728 L281 867 L75 867 L75 728 Z M80 0 L276 0 L276 680 L80 680 L80 0 Z " />
<glyph glyph-name="dotlessi" unicode="&#x131;" horiz-adv-x="306" d="M55 0 L251 0 L251 500 L55 500 L55 0 Z " />
<glyph glyph-name="IJ" unicode="&#x132;" horiz-adv-x="815" d="M80 0 L276 0 L276 680 L80 680 L80 0 Z M501 -12 C654 -12 740 87 740 233 L740 680 L544 680 L544 240 C544 184 502 147 440 147 C408 147 387 155 367 164 L367 7 C396 -3 451 -12 501 -12 L501 -12 Z " />
<glyph glyph-name="ij" unicode="&#x133;" horiz-adv-x="628" d="M55 541 L251 541 L251 680 L55 680 L55 541 Z M382 680 L382 541 L578 541 L578 680 L382 680 Z M55 0 L251 0 L251 500 L55 500 L55 0 Z M257 -29 L255 -154 C288 -168 325 -173 363 -173 C496 -173 578 -96 578 23 L578 500 L382 500 L382 30 C382 -9 346 -39 308 -39 C290 -39 275 -37 257 -29 L257 -29 Z " />
<glyph glyph-name="Jcircumflex" unicode="&#x134;" horiz-adv-x="459" d="M40 721 L208 721 L264 794 L268 794 L324 721 L492 721 L367 875 L165 875 L40 721 Z M145 -12 C298 -12 384 87 384 233 L384 680 L188 680 L188 240 C188 184 146 147 84 147 C52 147 31 155 11 164 L11 7 C40 -3 95 -12 145 -12 L145 -12 Z " />
<glyph glyph-name="jcircumflex" unicode="&#x135;" horiz-adv-x="319" d="M-19 541 L132 541 L173 607 L177 607 L217 541 L369 541 L275 680 L75 680 L-19 541 Z M57 -173 C190 -173 272 -96 272 23 L272 500 L76 500 L76 30 C76 -9 40 -39 2 -39 C-16 -39 -31 -37 -49 -29 L-51 -154 C-18 -168 19 -173 57 -173 L57 -173 Z " />
<glyph glyph-name="Kcommaaccent" unicode="&#x136;" horiz-adv-x="715" d="M478 351 L705 680 L466 680 L276 367 L276 680 L80 680 L80 0 L276 0 L276 327 L473 0 L708 0 L478 351 Z M256 -177 L385 -177 L472 -41 L294 -41 L256 -177 Z " />
<glyph glyph-name="kcommaaccent" unicode="&#x137;" horiz-adv-x="625" d="M251 252 L391 0 L616 0 L447 283 L598 500 L365 500 L251 281 L251 680 L55 680 L55 0 L251 0 L251 252 Z M197 -177 L326 -177 L406 -41 L235 -41 L197 -177 Z " />
<glyph glyph-name="Lacute" unicode="&#x139;" horiz-adv-x="539" d="M72 721 L238 721 L379 875 L151 875 L72 721 Z M80 0 L519 0 L519 161 L276 161 L276 680 L80 680 L80 0 Z " />
<glyph glyph-name="lacute" unicode="&#x13a;" horiz-adv-x="306" d="M49 721 L215 721 L356 875 L128 875 L49 721 Z M55 0 L251 0 L251 680 L55 680 L55 0 Z " />
<glyph glyph-name="Lcommaaccent" unicode="&#x13b;" horiz-adv-x="539" d="M80 0 L519 0 L519 161 L276 161 L276 680 L80 680 L80 0 Z M158 -177 L287 -177 L374 -41 L196 -41 L158 -177 Z " />
<glyph glyph-name="lcommaaccent" unicode="&#x13c;" horiz-adv-x="306" d="M55 0 L251 0 L251 680 L55 680 L55 0 Z M35 -177 L164 -177 L244 -41 L73 -41 L35 -177 Z " />
<glyph glyph-name="Lcaron" unicode="&#x13d;" horiz-adv-x="526" d="M80 0 L519 0 L519 161 L276 161 L276 680 L80 680 L80 0 Z M319 491 L436 491 L482 680 L319 680 L319 491 Z " />
<glyph glyph-name="lcaron" unicode="&#x13e;" horiz-adv-x="306" d="M55 0 L251 0 L251 680 L55 680 L55 0 Z M294 481 L411 481 L457 680 L294 680 L294 481 Z " />
<glyph glyph-name="Ldot" unicode="&#x13f;" horiz-adv-x="539" d="M80 0 L519 0 L519 161 L276 161 L276 680 L80 680 L80 0 Z M316 298 L492 298 L492 449 L316 449 L316 298 Z " />
<glyph glyph-name="ldot" unicode="&#x140;" horiz-adv-x="471" d="M55 0 L251 0 L251 680 L55 680 L55 0 Z M300 197 L476 197 L476 348 L300 348 L300 197 Z " />
<glyph glyph-name="Lslash" unicode="&#x141;" horiz-adv-x="539" d="M276 161 L276 300 L460 388 L460 507 L276 419 L276 680 L80 680 L80 325 L11 292 L11 173 L80 206 L80 0 L519 0 L519 161 L276 161 Z " />
<glyph glyph-name="lslash" unicode="&#x142;" horiz-adv-x="306" d="M317 500 L251 469 L251 680 L55 680 L55 375 L-10 344 L-10 225 L55 256 L55 0 L251 0 L251 350 L317 381 L317 500 Z " />
<glyph glyph-name="Nacute" unicode="&#x143;" horiz-adv-x="804" d="M298 721 L464 721 L605 875 L377 875 L298 721 Z M80 0 L276 0 L276 408 L279 408 L485 0 L724 0 L724 680 L528 680 L528 274 L525 274 L321 680 L80 680 L80 0 Z " />
<glyph glyph-name="nacute" unicode="&#x144;" horiz-adv-x="611" d="M217 541 L372 541 L515 680 L303 680 L217 541 Z M55 0 L251 0 L251 291 C251 335 276 353 308 353 C340 353 365 335 365 291 L365 0 L561 0 L561 346 C561 458 480 516 393 516 C326 516 276 486 249 442 L245 442 L245 500 L55 500 L55 0 Z " />
<glyph glyph-name="Ncommaaccent" unicode="&#x145;" horiz-adv-x="804" d="M80 0 L276 0 L276 408 L279 408 L485 0 L724 0 L724 680 L528 680 L528 274 L525 274 L321 680 L80 680 L80 0 Z M284 -177 L413 -177 L500 -41 L322 -41 L284 -177 Z " />
<glyph glyph-name="ncommaaccent" unicode="&#x146;" horiz-adv-x="611" d="M55 0 L251 0 L251 291 C251 335 276 353 308 353 C340 353 365 335 365 291 L365 0 L561 0 L561 346 C561 458 480 516 393 516 C326 516 276 486 249 442 L245 442 L245 500 L55 500 L55 0 Z M188 -177 L317 -177 L397 -41 L226 -41 L188 -177 Z " />
<glyph glyph-name="Ncaron" unicode="&#x147;" horiz-adv-x="804" d="M299 721 L505 721 L642 875 L472 875 L404 801 L400 801 L332 875 L162 875 L299 721 Z M80 0 L276 0 L276 408 L279 408 L485 0 L724 0 L724 680 L528 680 L528 274 L525 274 L321 680 L80 680 L80 0 Z " />
<glyph glyph-name="ncaron" unicode="&#x148;" horiz-adv-x="611" d="M206 541 L406 541 L509 680 L355 680 L308 614 L304 614 L257 680 L103 680 L206 541 Z M55 0 L251 0 L251 291 C251 335 276 353 308 353 C340 353 365 335 365 291 L365 0 L561 0 L561 346 C561 458 480 516 393 516 C326 516 276 486 249 442 L245 442 L245 500 L55 500 L55 0 Z " />
<glyph glyph-name="napostrophe" unicode="&#x149;" horiz-adv-x="611" d="M63 544 L192 544 L279 680 L101 680 L63 544 Z M55 0 L251 0 L251 291 C251 335 276 353 308 353 C340 353 365 335 365 291 L365 0 L561 0 L561 346 C561 458 480 516 393 516 C326 516 276 486 249 442 L245 442 L245 500 L55 500 L55 0 Z " />
<glyph glyph-name="Eng" unicode="&#x14a;" horiz-adv-x="777" d="M450 -177 C602 -177 711 -89 711 57 L711 680 L515 680 L515 274 L512 274 L308 680 L67 680 L67 0 L263 0 L263 408 L266 408 L484 -23 C471 -30 452 -33 431 -33 C408 -33 383 -28 362 -20 L332 -156 C360 -166 405 -177 450 -177 L450 -177 Z " />
<glyph glyph-name="eng" unicode="&#x14b;" horiz-adv-x="611" d="M350 -177 C489 -177 561 -96 561 23 L561 346 C561 458 480 516 393 516 C326 516 276 486 249 442 L245 442 L245 500 L55 500 L55 0 L251 0 L251 291 C251 335 276 353 308 353 C340 353 365 335 365 291 L365 25 C365 -14 343 -33 307 -33 C296 -33 285 -32 275 -28 L246 -159 C275 -170 314 -177 350 -177 L350 -177 Z " />
<glyph glyph-name="Omacron" unicode="&#x14c;" horiz-adv-x="760" d="M199 743 L561 743 L561 853 L199 853 L199 743 Z M381 -16 C584 -16 720 113 720 340 C720 567 584 696 381 696 C179 696 40 567 40 340 C40 113 179 -16 381 -16 L381 -16 Z M381 158 C294 158 250 228 250 340 C250 452 294 522 381 522 C469 522 510 452 510 340 C510 228 469 158 381 158 L381 158 Z " />
<glyph glyph-name="omacron" unicode="&#x14d;" horiz-adv-x="624" d="M145 556 L479 556 L479 666 L145 666 L145 556 Z M34 250 C34 76 153 -14 312 -14 C471 -14 590 76 590 250 C590 424 471 514 312 514 C153 514 34 424 34 250 L34 250 Z M231 250 C231 341 277 364 312 364 C347 364 393 341 393 250 C393 159 347 136 312 136 C277 136 231 159 231 250 L231 250 Z " />
<glyph glyph-name="Obreve" unicode="&#x14e;" horiz-adv-x="760" d="M380 712 C524 712 593 811 593 875 L448 875 C448 855 436 811 380 811 C324 811 312 855 312 875 L167 875 C167 813 236 712 380 712 L380 712 Z M381 -16 C584 -16 720 113 720 340 C720 567 584 696 381 696 C179 696 40 567 40 340 C40 113 179 -16 381 -16 L381 -16 Z M381 158 C294 158 250 228 250 340 C250 452 294 522 381 522 C469 522 510 452 510 340 C510 228 469 158 381 158 L381 158 Z " />
<glyph glyph-name="obreve" unicode="&#x14f;" horiz-adv-x="624" d="M312 532 C456 532 503 631 503 680 L368 680 C368 661 353 628 312 628 C271 628 256 661 256 680 L121 680 C121 633 168 532 312 532 L312 532 Z M34 250 C34 76 153 -14 312 -14 C471 -14 590 76 590 250 C590 424 471 514 312 514 C153 514 34 424 34 250 L34 250 Z M231 250 C231 341 277 364 312 364 C347 364 393 341 393 250 C393 159 347 136 312 136 C277 136 231 159 231 250 L231 250 Z " />
<glyph glyph-name="Ohungarumlaut" unicode="&#x150;" horiz-adv-x="760" d="M187 721 L333 721 L474 875 L265 875 L187 721 Z M425 721 L571 721 L712 875 L502 875 L425 721 Z M381 -16 C584 -16 720 113 720 340 C720 567 584 696 381 696 C179 696 40 567 40 340 C40 113 179 -16 381 -16 L381 -16 Z M381 158 C294 158 250 228 250 340 C250 452 294 522 381 522 C469 522 510 452 510 340 C510 228 469 158 381 158 L381 158 Z " />
<glyph glyph-name="ohungarumlaut" unicode="&#x151;" horiz-adv-x="624" d="M126 541 L258 541 L361 680 L172 680 L126 541 Z M343 541 L475 541 L578 680 L389 680 L343 541 Z M34 250 C34 76 153 -14 312 -14 C471 -14 590 76 590 250 C590 424 471 514 312 514 C153 514 34 424 34 250 L34 250 Z M231 250 C231 341 277 364 312 364 C347 364 393 341 393 250 C393 159 347 136 312 136 C277 136 231 159 231 250 L231 250 Z " />
<glyph glyph-name="OE" unicode="&#x152;" horiz-adv-x="1090" d="M402 -16 C473 -16 522 0 522 0 L1031 0 L1031 155 L722 155 C740 189 753 227 760 265 L1022 265 L1022 418 L758 418 C750 461 738 495 722 525 L1031 525 L1031 680 L522 680 C522 680 471 696 402 696 C198 696 40 567 40 340 C40 113 198 -16 402 -16 L402 -16 Z M402 158 C315 158 264 228 264 340 C264 452 315 522 402 522 C491 522 542 452 542 340 C542 228 491 158 402 158 L402 158 Z " />
<glyph glyph-name="oe" unicode="&#x153;" horiz-adv-x="948" d="M312 -16 C385 -16 448 4 494 42 C542 3 603 -16 667 -16 C756 -16 822 5 865 30 L865 163 C813 132 759 117 704 117 C642 117 584 147 579 211 L914 211 C918 428 799 516 656 516 C595 516 537 497 493 460 C447 497 385 516 312 516 C153 516 34 424 34 250 C34 76 153 -16 312 -16 L312 -16 Z M579 309 C582 362 615 395 660 395 C705 395 736 363 739 309 L579 309 Z M312 134 C277 134 231 159 231 250 C231 341 277 366 312 366 C347 366 393 341 393 250 C393 159 347 134 312 134 L312 134 Z " />
<glyph glyph-name="Racute" unicode="&#x154;" horiz-adv-x="687" d="M241 721 L407 721 L548 875 L320 875 L241 721 Z M80 0 L276 0 L276 239 L326 239 L444 0 L665 0 L540 210 C527 232 511 252 502 258 L503 262 C563 289 648 340 648 456 C648 578 551 680 392 680 L80 680 L80 0 Z M276 366 L276 535 L355 535 C408 535 439 494 439 451 C439 408 408 366 355 366 L276 366 Z " />
<glyph glyph-name="racute" unicode="&#x155;" horiz-adv-x="409" d="M145 541 L300 541 L443 680 L231 680 L145 541 Z M55 500 L55 0 L251 0 L251 270 C251 324 292 352 335 352 C364 352 383 346 399 337 L399 500 C387 505 374 509 356 509 C309 509 270 481 249 435 L245 435 L245 500 L55 500 Z " />
<glyph glyph-name="Rcommaaccent" unicode="&#x156;" horiz-adv-x="687" d="M80 0 L276 0 L276 239 L326 239 L444 0 L665 0 L540 210 C527 232 511 252 502 258 L503 262 C563 289 648 340 648 456 C648 578 551 680 392 680 L80 680 L80 0 Z M276 366 L276 535 L355 535 C408 535 439 494 439 451 C439 408 408 366 355 366 L276 366 Z M247 -177 L376 -177 L463 -41 L285 -41 L247 -177 Z " />
<glyph glyph-name="rcommaaccent" unicode="&#x157;" horiz-adv-x="409" d="M55 500 L55 0 L251 0 L251 270 C251 324 292 352 335 352 C364 352 383 346 399 337 L399 500 C387 505 374 509 356 509 C309 509 270 481 249 435 L245 435 L245 500 L55 500 Z M19 -177 L148 -177 L228 -41 L57 -41 L19 -177 Z " />
<glyph glyph-name="Rcaron" unicode="&#x158;" horiz-adv-x="687" d="M242 721 L448 721 L585 875 L415 875 L347 801 L343 801 L275 875 L105 875 L242 721 Z M80 0 L276 0 L276 239 L326 239 L444 0 L665 0 L540 210 C527 232 511 252 502 258 L503 262 C563 289 648 340 648 456 C648 578 551 680 392 680 L80 680 L80 0 Z M276 366 L276 535 L355 535 C408 535 439 494 439 451 C439 408 408 366 355 366 L276 366 Z " />
<glyph glyph-name="rcaron" unicode="&#x159;" horiz-adv-x="409" d="M134 541 L334 541 L437 680 L283 680 L236 614 L232 614 L185 680 L31 680 L134 541 Z M55 500 L55 0 L251 0 L251 270 C251 324 292 352 335 352 C364 352 383 346 399 337 L399 500 C387 505 374 509 356 509 C309 509 270 481 249 435 L245 435 L245 500 L55 500 Z " />
<glyph glyph-name="Sacute" unicode="&#x15a;" horiz-adv-x="618" d="M221 721 L387 721 L528 875 L300 875 L221 721 Z M291 -16 C477 -16 580 101 580 214 C580 325 523 390 412 417 C367 428 342 432 308 439 C262 449 242 462 242 488 C242 518 276 537 352 537 C435 537 504 511 538 492 L538 661 C494 680 422 696 342 696 C173 696 48 607 48 469 C48 364 107 298 199 275 C250 262 277 256 321 245 C358 236 383 224 383 197 C383 163 347 144 281 144 C191 144 100 183 56 214 L56 36 C111 5 189 -16 291 -16 L291 -16 Z " />
<glyph glyph-name="sacute" unicode="&#x15b;" horiz-adv-x="502" d="M170 541 L325 541 L468 680 L256 680 L170 541 Z M283 513 C115 513 35 429 35 346 C35 269 75 223 149 201 C180 192 192 189 221 184 C259 177 270 162 270 146 C270 127 251 110 200 110 C134 110 80 137 40 167 L40 25 C88 -2 156 -13 215 -13 C386 -13 472 74 472 165 C472 240 418 293 353 307 C318 315 303 318 279 322 C242 328 228 338 228 357 C228 378 255 393 300 393 C353 393 403 377 436 355 L436 480 C409 495 350 513 283 513 L283 513 Z " />
<glyph glyph-name="Scircumflex" unicode="&#x15c;" horiz-adv-x="618" d="M99 721 L267 721 L323 794 L327 794 L383 721 L551 721 L426 875 L224 875 L99 721 Z M291 -16 C477 -16 580 101 580 214 C580 325 523 390 412 417 C367 428 342 432 308 439 C262 449 242 462 242 488 C242 518 276 537 352 537 C435 537 504 511 538 492 L538 661 C494 680 422 696 342 696 C173 696 48 607 48 469 C48 364 107 298 199 275 C250 262 277 256 321 245 C358 236 383 224 383 197 C383 163 347 144 281 144 C191 144 100 183 56 214 L56 36 C111 5 189 -16 291 -16 L291 -16 Z " />
<glyph glyph-name="scircumflex" unicode="&#x15d;" horiz-adv-x="502" d="M65 541 L217 541 L257 607 L261 607 L301 541 L453 541 L359 680 L159 680 L65 541 Z M283 513 C115 513 35 429 35 346 C35 269 75 223 149 201 C180 192 192 189 221 184 C259 177 270 162 270 146 C270 127 251 110 200 110 C134 110 80 137 40 167 L40 25 C88 -2 156 -13 215 -13 C386 -13 472 74 472 165 C472 240 418 293 353 307 C318 315 303 318 279 322 C242 328 228 338 228 357 C228 378 255 393 300 393 C353 393 403 377 436 355 L436 480 C409 495 350 513 283 513 L283 513 Z " />
<glyph glyph-name="Scedilla" unicode="&#x15e;" horiz-adv-x="618" d="M580 214 C580 325 523 390 412 417 C367 428 342 432 308 439 C262 449 242 462 242 488 C242 518 276 537 352 537 C435 537 504 511 538 492 L538 661 C494 680 422 696 342 696 C173 696 48 607 48 469 C48 364 107 298 199 275 C250 262 277 256 321 245 C358 236 383 224 383 197 C383 163 347 144 281 144 C191 144 100 183 56 214 L56 36 C99 12 157 -7 230 -13 L206 -91 C217 -89 238 -88 249 -88 C272 -88 289 -96 289 -115 C289 -134 269 -142 244 -142 C225 -142 206 -139 193 -135 L193 -202 C213 -209 241 -211 269 -211 C349 -211 421 -184 421 -113 C421 -72 396 -38 324 -38 L329 -14 C491 0 580 109 580 214 L580 214 Z " />
<glyph glyph-name="scedilla" unicode="&#x15f;" horiz-adv-x="502" d="M472 165 C472 240 418 293 353 307 C318 315 303 318 279 322 C242 328 228 338 228 357 C228 378 255 393 300 393 C353 393 403 377 436 355 L436 480 C409 495 350 513 283 513 C115 513 35 429 35 346 C35 269 75 223 149 201 C180 192 192 189 221 184 C259 177 270 162 270 146 C270 127 251 110 200 110 C134 110 80 137 40 167 L40 25 C79 3 131 -8 181 -12 L159 -95 C170 -93 181 -92 192 -92 C215 -92 232 -100 232 -119 C232 -138 212 -146 187 -146 C173 -146 159 -143 146 -139 L146 -206 C166 -213 189 -215 212 -215 C282 -215 354 -188 354 -117 C354 -76 329 -42 269 -42 L276 -9 C406 9 472 85 472 165 L472 165 Z " />
<glyph glyph-name="Scaron" unicode="&#x160;" horiz-adv-x="618" d="M222 721 L428 721 L565 875 L395 875 L327 801 L323 801 L255 875 L85 875 L222 721 Z M291 -16 C477 -16 580 101 580 214 C580 325 523 390 412 417 C367 428 342 432 308 439 C262 449 242 462 242 488 C242 518 276 537 352 537 C435 537 504 511 538 492 L538 661 C494 680 422 696 342 696 C173 696 48 607 48 469 C48 364 107 298 199 275 C250 262 277 256 321 245 C358 236 383 224 383 197 C383 163 347 144 281 144 C191 144 100 183 56 214 L56 36 C111 5 189 -16 291 -16 L291 -16 Z " />
<glyph glyph-name="scaron" unicode="&#x161;" horiz-adv-x="502" d="M159 541 L359 541 L462 680 L308 680 L261 614 L257 614 L210 680 L56 680 L159 541 Z M283 513 C115 513 35 429 35 346 C35 269 75 223 149 201 C180 192 192 189 221 184 C259 177 270 162 270 146 C270 127 251 110 200 110 C134 110 80 137 40 167 L40 25 C88 -2 156 -13 215 -13 C386 -13 472 74 472 165 C472 240 418 293 353 307 C318 315 303 318 279 322 C242 328 228 338 228 357 C228 378 255 393 300 393 C353 393 403 377 436 355 L436 480 C409 495 350 513 283 513 L283 513 Z " />
<glyph glyph-name="uni0162" unicode="&#x162;" horiz-adv-x="571" d="M384 0 L384 521 L553 521 L553 680 L18 680 L18 521 L188 521 L188 0 L218 0 L195 -75 C206 -73 227 -72 238 -72 C261 -72 278 -80 278 -99 C278 -118 258 -126 233 -126 C214 -126 195 -123 182 -119 L182 -186 C202 -193 230 -195 258 -195 C338 -195 410 -168 410 -97 C410 -56 385 -22 313 -22 L317 0 L384 0 Z " />
<glyph glyph-name="uni0163" unicode="&#x163;" horiz-adv-x="422" d="M401 381 L401 500 L283 500 L283 620 L86 620 L86 500 L11 500 L11 381 L86 381 L86 159 C86 94 113 45 159 17 L135 -75 C146 -73 157 -72 168 -72 C191 -72 208 -80 208 -99 C208 -118 188 -126 163 -126 C149 -126 135 -123 122 -119 L122 -186 C142 -193 165 -195 188 -195 C258 -195 330 -168 330 -97 C330 -56 305 -22 245 -22 L248 -8 L262 -8 C313 -8 359 2 401 20 L401 147 C384 142 365 137 344 137 C315 137 283 154 283 203 L283 381 L401 381 Z " />
<glyph glyph-name="Tcaron" unicode="&#x164;" horiz-adv-x="571" d="M183 721 L389 721 L526 875 L356 875 L288 801 L284 801 L216 875 L46 875 L183 721 Z M188 0 L384 0 L384 521 L553 521 L553 680 L18 680 L18 521 L188 521 L188 0 Z " />
<glyph glyph-name="tcaron" unicode="&#x165;" horiz-adv-x="422" d="M324 531 L441 531 L487 690 L324 690 L324 531 Z M262 -8 C313 -8 359 2 401 20 L401 147 C384 142 365 137 344 137 C315 137 283 154 283 203 L283 381 L401 381 L401 500 L283 500 L283 620 L86 620 L86 500 L11 500 L11 381 L86 381 L86 159 C86 55 155 -8 262 -8 L262 -8 Z " />
<glyph glyph-name="Tbar" unicode="&#x166;" horiz-adv-x="571" d="M553 521 L553 680 L18 680 L18 521 L188 521 L188 375 L99 375 L99 265 L188 265 L188 0 L384 0 L384 265 L473 265 L473 375 L384 375 L384 521 L553 521 Z " />
<glyph glyph-name="tbar" unicode="&#x167;" horiz-adv-x="432" d="M401 381 L401 500 L283 500 L283 620 L86 620 L86 500 L11 500 L11 381 L86 381 L86 324 L31 324 L31 234 L86 234 L86 159 C86 55 155 -8 262 -8 C313 -8 359 2 401 20 L401 147 C384 142 365 137 344 137 C315 137 283 154 283 203 L283 234 L385 234 L385 324 L283 324 L283 381 L401 381 Z " />
<glyph glyph-name="Utilde" unicode="&#x168;" horiz-adv-x="736" d="M470 713 C538 713 576 774 588 851 L472 871 C469 853 457 838 439 838 C400 838 324 875 266 875 C199 875 159 815 148 738 L264 718 C267 737 279 751 297 751 C336 751 412 713 470 713 L470 713 Z M368 -16 C528 -16 661 61 661 251 L661 680 L465 680 L465 269 C465 192 423 158 368 158 C313 158 271 192 271 269 L271 680 L75 680 L75 251 C75 61 208 -16 368 -16 L368 -16 Z " />
<glyph glyph-name="utilde" unicode="&#x169;" horiz-adv-x="611" d="M212 542 C214 557 226 571 243 571 C277 571 347 538 399 538 C456 538 496 590 506 662 L400 681 C398 669 388 652 369 652 C335 652 265 684 213 684 C158 684 118 638 106 561 L212 542 Z M556 500 L360 500 L360 206 C360 162 335 144 303 144 C271 144 246 162 246 206 L246 500 L50 500 L50 168 C50 48 123 -16 220 -16 C295 -16 352 18 372 62 L374 60 L377 0 L556 0 L556 500 Z " />
<glyph glyph-name="Umacron" unicode="&#x16a;" horiz-adv-x="736" d="M187 743 L549 743 L549 853 L187 853 L187 743 Z M368 -16 C528 -16 661 61 661 251 L661 680 L465 680 L465 269 C465 192 423 158 368 158 C313 158 271 192 271 269 L271 680 L75 680 L75 251 C75 61 208 -16 368 -16 L368 -16 Z " />
<glyph glyph-name="umacron" unicode="&#x16b;" horiz-adv-x="611" d="M139 556 L473 556 L473 666 L139 666 L139 556 Z M556 500 L360 500 L360 206 C360 162 335 144 303 144 C271 144 246 162 246 206 L246 500 L50 500 L50 168 C50 48 123 -16 220 -16 C295 -16 352 18 372 62 L374 60 L377 0 L556 0 L556 500 Z " />
<glyph glyph-name="Ubreve" unicode="&#x16c;" horiz-adv-x="736" d="M368 712 C512 712 581 811 581 875 L436 875 C436 855 424 811 368 811 C312 811 300 855 300 875 L155 875 C155 813 224 712 368 712 L368 712 Z M368 -16 C528 -16 661 61 661 251 L661 680 L465 680 L465 269 C465 192 423 158 368 158 C313 158 271 192 271 269 L271 680 L75 680 L75 251 C75 61 208 -16 368 -16 L368 -16 Z " />
<glyph glyph-name="ubreve" unicode="&#x16d;" horiz-adv-x="611" d="M306 532 C450 532 497 631 497 680 L362 680 C362 661 347 628 306 628 C265 628 250 661 250 680 L115 680 C115 633 162 532 306 532 L306 532 Z M556 500 L360 500 L360 206 C360 162 335 144 303 144 C271 144 246 162 246 206 L246 500 L50 500 L50 168 C50 48 123 -16 220 -16 C295 -16 352 18 372 62 L374 60 L377 0 L556 0 L556 500 Z " />
<glyph glyph-name="Uring" unicode="&#x16e;" horiz-adv-x="736" d="M369 698 C473 698 545 751 545 829 C545 907 473 960 369 960 C265 960 191 907 191 829 C191 751 265 698 369 698 L369 698 Z M369 775 C331 775 302 800 302 829 C302 858 331 882 369 882 C406 882 435 858 435 829 C435 800 406 775 369 775 L369 775 Z M368 -16 C528 -16 661 61 661 251 L661 680 L465 680 L465 269 C465 192 423 158 368 158 C313 158 271 192 271 269 L271 680 L75 680 L75 251 C75 61 208 -16 368 -16 L368 -16 Z " />
<glyph glyph-name="uring" unicode="&#x16f;" horiz-adv-x="611" d="M307 532 C395 532 457 577 457 644 C457 711 395 756 307 756 C219 756 155 711 155 644 C155 577 219 532 307 532 L307 532 Z M307 599 C276 599 249 619 249 644 C249 668 276 688 307 688 C337 688 364 668 364 644 C364 619 337 599 307 599 L307 599 Z M556 500 L360 500 L360 206 C360 162 335 144 303 144 C271 144 246 162 246 206 L246 500 L50 500 L50 168 C50 48 123 -16 220 -16 C295 -16 352 18 372 62 L374 60 L377 0 L556 0 L556 500 Z " />
<glyph glyph-name="Uhungarumlaut" unicode="&#x170;" horiz-adv-x="736" d="M175 721 L321 721 L462 875 L253 875 L175 721 Z M413 721 L559 721 L700 875 L490 875 L413 721 Z M368 -16 C528 -16 661 61 661 251 L661 680 L465 680 L465 269 C465 192 423 158 368 158 C313 158 271 192 271 269 L271 680 L75 680 L75 251 C75 61 208 -16 368 -16 L368 -16 Z " />
<glyph glyph-name="uhungarumlaut" unicode="&#x171;" horiz-adv-x="611" d="M120 541 L252 541 L355 680 L166 680 L120 541 Z M337 541 L469 541 L572 680 L383 680 L337 541 Z M556 500 L360 500 L360 206 C360 162 335 144 303 144 C271 144 246 162 246 206 L246 500 L50 500 L50 168 C50 48 123 -16 220 -16 C295 -16 352 18 372 62 L374 60 L377 0 L556 0 L556 500 Z " />
<glyph glyph-name="Uogonek" unicode="&#x172;" horiz-adv-x="736" d="M465 680 L465 269 C465 192 423 158 368 158 C313 158 271 192 271 269 L271 680 L75 680 L75 251 C75 66 202 -12 357 -16 C340 -33 329 -54 329 -77 C329 -133 377 -168 443 -168 C472 -168 491 -164 513 -156 L513 -71 C504 -76 491 -80 479 -80 C463 -80 445 -69 445 -48 C445 -22 474 -5 500 5 L510 9 C511 9 512 10 513 10 C601 47 661 123 661 251 L661 680 L465 680 Z " />
<glyph glyph-name="uogonek" unicode="&#x173;" horiz-adv-x="611" d="M556 0 L556 500 L360 500 L360 206 C360 162 335 144 303 144 C271 144 246 162 246 206 L246 500 L50 500 L50 168 C50 48 123 -16 220 -16 C295 -16 352 18 372 62 L374 60 L377 0 L432 0 C400 -20 372 -52 372 -87 C372 -143 420 -178 486 -178 C515 -178 534 -174 556 -166 L556 -81 C547 -86 534 -90 522 -90 C506 -90 488 -79 488 -58 C488 -27 528 -10 556 0 L556 0 Z " />
<glyph glyph-name="Wcircumflex" unicode="&#x174;" horiz-adv-x="984" d="M261 721 L429 721 L485 794 L489 794 L545 721 L713 721 L588 875 L386 875 L261 721 Z M165 0 L385 0 L477 361 L481 361 L562 0 L785 0 L969 680 L756 680 L664 262 L660 262 L579 680 L389 680 L296 262 L292 262 L224 680 L15 680 L165 0 Z " />
<glyph glyph-name="wcircumflex" unicode="&#x175;" horiz-adv-x="841" d="M227 541 L379 541 L419 607 L423 607 L463 541 L615 541 L521 680 L321 680 L227 541 Z M134 0 L363 0 L418 319 L422 319 L477 0 L706 0 L836 500 L641 500 L586 177 L583 177 L527 500 L313 500 L257 177 L254 177 L200 500 L5 500 L134 0 Z " />
<glyph glyph-name="Ycircumflex" unicode="&#x176;" horiz-adv-x="671" d="M107 721 L275 721 L331 794 L335 794 L391 721 L559 721 L434 875 L232 875 L107 721 Z M235 0 L431 0 L431 249 L666 680 L449 680 L338 437 L334 437 L227 680 L5 680 L235 249 L235 0 Z " />
<glyph glyph-name="ycircumflex" unicode="&#x177;" horiz-adv-x="582" d="M97 541 L249 541 L289 607 L293 607 L333 541 L485 541 L391 680 L191 680 L97 541 Z M296 185 L292 185 L213 500 L5 500 L200 15 C192 -11 165 -34 126 -34 C105 -34 83 -27 65 -17 L65 -155 C98 -166 136 -172 172 -172 C298 -172 362 -94 396 1 L577 500 L375 500 L296 185 Z " />
<glyph glyph-name="Ydieresis" unicode="&#x178;" horiz-adv-x="671" d="M127 732 L312 732 L312 863 L127 863 L127 732 Z M353 732 L538 732 L538 863 L353 863 L353 732 Z M235 0 L431 0 L431 249 L666 680 L449 680 L338 437 L334 437 L227 680 L5 680 L235 249 L235 0 Z " />
<glyph glyph-name="Zacute" unicode="&#x179;" horiz-adv-x="594" d="M190 721 L356 721 L497 875 L269 875 L190 721 Z M30 0 L564 0 L564 159 L270 159 L559 537 L559 680 L36 680 L36 521 L314 521 L30 150 L30 0 Z " />
<glyph glyph-name="zacute" unicode="&#x17a;" horiz-adv-x="503" d="M163 541 L318 541 L461 680 L249 680 L163 541 Z M25 0 L478 0 L478 143 L243 143 L469 362 L469 500 L39 500 L39 357 L247 357 L25 138 L25 0 Z " />
<glyph glyph-name="Zdotaccent" unicode="&#x17b;" horiz-adv-x="594" d="M191 728 L397 728 L397 867 L191 867 L191 728 Z M30 0 L564 0 L564 159 L270 159 L559 537 L559 680 L36 680 L36 521 L314 521 L30 150 L30 0 Z " />
<glyph glyph-name="zdotaccent" unicode="&#x17c;" horiz-adv-x="503" d="M149 541 L355 541 L355 680 L149 680 L149 541 Z M25 0 L478 0 L478 143 L243 143 L469 362 L469 500 L39 500 L39 357 L247 357 L25 138 L25 0 Z " />
<glyph glyph-name="Zcaron" unicode="&#x17d;" horiz-adv-x="594" d="M191 721 L397 721 L534 875 L364 875 L296 801 L292 801 L224 875 L54 875 L191 721 Z M30 0 L564 0 L564 159 L270 159 L559 537 L559 680 L36 680 L36 521 L314 521 L30 150 L30 0 Z " />
<glyph glyph-name="zcaron" unicode="&#x17e;" horiz-adv-x="503" d="M152 541 L352 541 L455 680 L301 680 L254 614 L250 614 L203 680 L49 680 L152 541 Z M25 0 L478 0 L478 143 L243 143 L469 362 L469 500 L39 500 L39 357 L247 357 L25 138 L25 0 Z " />
<glyph glyph-name="florin" unicode="&#x192;" horiz-adv-x="530" d="M145 -170 C307 -170 373 -55 373 65 L373 240 L473 240 L473 327 L373 327 L373 478 C373 523 401 557 451 557 C466 557 479 553 490 548 L490 685 C461 692 431 697 395 697 C233 697 167 583 167 463 L167 327 L67 327 L67 240 L167 240 L167 50 C167 5 139 -29 89 -29 C74 -29 56 -26 40 -20 L40 -157 C69 -165 99 -170 145 -170 L145 -170 Z " />
<glyph glyph-name="uni01CD" unicode="&#x1cd;" horiz-adv-x="704" d="M455 721 L592 875 L422 875 L354 801 L350 801 L282 875 L112 875 L249 721 L455 721 Z M498 0 L699 0 L495 680 L208 680 L5 0 L206 0 L243 141 L460 141 L498 0 Z M280 280 L347 531 L356 531 L423 280 L280 280 Z " />
<glyph glyph-name="uni01CE" unicode="&#x1ce;" horiz-adv-x="579" d="M177 541 L377 541 L480 680 L326 680 L279 614 L275 614 L228 680 L74 680 L177 541 Z M261 517 C177 517 118 497 86 484 L86 360 C126 383 182 398 235 398 C309 398 338 375 338 335 L338 317 C311 319 291 320 255 320 C110 320 20 263 20 155 C20 53 96 -16 186 -16 C260 -16 307 13 333 58 L337 58 C337 37 339 17 342 0 L529 0 C526 33 524 67 524 100 L524 323 C524 461 415 517 261 517 L261 517 Z M338 229 L338 197 C340 139 292 111 250 111 C218 111 194 130 194 162 C194 202 225 229 283 229 L338 229 Z " />
<glyph glyph-name="uni01CF" unicode="&#x1cf;" horiz-adv-x="356" d="M75 721 L281 721 L418 875 L248 875 L180 801 L176 801 L108 875 L-62 875 L75 721 Z M80 0 L276 0 L276 680 L80 680 L80 0 Z " />
<glyph glyph-name="uni01D0" unicode="&#x1d0;" horiz-adv-x="306" d="M53 541 L253 541 L356 680 L202 680 L155 614 L151 614 L104 680 L-50 680 L53 541 Z M55 0 L251 0 L251 500 L55 500 L55 0 Z " />
<glyph glyph-name="uni01D1" unicode="&#x1d1;" horiz-adv-x="760" d="M277 721 L483 721 L620 875 L450 875 L382 801 L378 801 L310 875 L140 875 L277 721 Z M381 -16 C584 -16 720 113 720 340 C720 567 584 696 381 696 C179 696 40 567 40 340 C40 113 179 -16 381 -16 L381 -16 Z M381 158 C294 158 250 228 250 340 C250 452 294 522 381 522 C469 522 510 452 510 340 C510 228 469 158 381 158 L381 158 Z " />
<glyph glyph-name="uni01D2" unicode="&#x1d2;" horiz-adv-x="624" d="M212 541 L412 541 L515 680 L361 680 L314 614 L310 614 L263 680 L109 680 L212 541 Z M34 250 C34 76 153 -14 312 -14 C471 -14 590 76 590 250 C590 424 471 514 312 514 C153 514 34 424 34 250 L34 250 Z M231 250 C231 341 277 364 312 364 C347 364 393 341 393 250 C393 159 347 136 312 136 C277 136 231 159 231 250 L231 250 Z " />
<glyph glyph-name="uni01D3" unicode="&#x1d3;" horiz-adv-x="736" d="M265 721 L471 721 L608 875 L438 875 L370 801 L366 801 L298 875 L128 875 L265 721 Z M368 -16 C528 -16 661 61 661 251 L661 680 L465 680 L465 269 C465 192 423 158 368 158 C313 158 271 192 271 269 L271 680 L75 680 L75 251 C75 61 208 -16 368 -16 L368 -16 Z " />
<glyph glyph-name="uni01D4" unicode="&#x1d4;" horiz-adv-x="611" d="M206 541 L406 541 L509 680 L355 680 L308 614 L304 614 L257 680 L103 680 L206 541 Z M556 500 L360 500 L360 206 C360 162 335 144 303 144 C271 144 246 162 246 206 L246 500 L50 500 L50 168 C50 48 123 -16 220 -16 C295 -16 352 18 372 62 L374 60 L377 0 L556 0 L556 500 Z " />
<glyph glyph-name="uni01D5" unicode="&#x1d5;" horiz-adv-x="736" d="M187 926 L549 926 L549 1036 L187 1036 L187 926 Z M162 732 L347 732 L347 863 L162 863 L162 732 Z M388 732 L573 732 L573 863 L388 863 L388 732 Z M368 -16 C528 -16 661 61 661 251 L661 680 L465 680 L465 269 C465 192 423 158 368 158 C313 158 271 192 271 269 L271 680 L75 680 L75 251 C75 61 208 -16 368 -16 L368 -16 Z " />
<glyph glyph-name="uni01D6" unicode="&#x1d6;" horiz-adv-x="611" d="M139 736 L473 736 L473 846 L139 846 L139 736 Z M120 553 L285 553 L285 680 L120 680 L120 553 Z M326 553 L491 553 L491 680 L326 680 L326 553 Z M556 500 L360 500 L360 206 C360 162 335 144 303 144 C271 144 246 162 246 206 L246 500 L50 500 L50 168 C50 48 123 -16 220 -16 C295 -16 352 18 372 62 L374 60 L377 0 L556 0 L556 500 Z " />
<glyph glyph-name="uni01D7" unicode="&#x1d7;" horiz-adv-x="736" d="M264 904 L430 904 L571 1058 L343 1058 L264 904 Z M162 732 L347 732 L347 863 L162 863 L162 732 Z M388 732 L573 732 L573 863 L388 863 L388 732 Z M368 -16 C528 -16 661 61 661 251 L661 680 L465 680 L465 269 C465 192 423 158 368 158 C313 158 271 192 271 269 L271 680 L75 680 L75 251 C75 61 208 -16 368 -16 L368 -16 Z " />
<glyph glyph-name="uni01D8" unicode="&#x1d8;" horiz-adv-x="611" d="M217 721 L372 721 L515 860 L303 860 L217 721 Z M120 553 L285 553 L285 680 L120 680 L120 553 Z M326 553 L491 553 L491 680 L326 680 L326 553 Z M556 500 L360 500 L360 206 C360 162 335 144 303 144 C271 144 246 162 246 206 L246 500 L50 500 L50 168 C50 48 123 -16 220 -16 C295 -16 352 18 372 62 L374 60 L377 0 L556 0 L556 500 Z " />
<glyph glyph-name="uni01D9" unicode="&#x1d9;" horiz-adv-x="736" d="M265 904 L471 904 L608 1058 L438 1058 L370 984 L366 984 L298 1058 L128 1058 L265 904 Z M162 732 L347 732 L347 863 L162 863 L162 732 Z M388 732 L573 732 L573 863 L388 863 L388 732 Z M368 -16 C528 -16 661 61 661 251 L661 680 L465 680 L465 269 C465 192 423 158 368 158 C313 158 271 192 271 269 L271 680 L75 680 L75 251 C75 61 208 -16 368 -16 L368 -16 Z " />
<glyph glyph-name="uni01DA" unicode="&#x1da;" horiz-adv-x="611" d="M206 721 L406 721 L509 860 L355 860 L308 794 L304 794 L257 860 L103 860 L206 721 Z M120 553 L285 553 L285 680 L120 680 L120 553 Z M326 553 L491 553 L491 680 L326 680 L326 553 Z M556 500 L360 500 L360 206 C360 162 335 144 303 144 C271 144 246 162 246 206 L246 500 L50 500 L50 168 C50 48 123 -16 220 -16 C295 -16 352 18 372 62 L374 60 L377 0 L556 0 L556 500 Z " />
<glyph glyph-name="uni01DB" unicode="&#x1db;" horiz-adv-x="736" d="M295 904 L461 904 L382 1058 L154 1058 L295 904 Z M162 732 L347 732 L347 863 L162 863 L162 732 Z M388 732 L573 732 L573 863 L388 863 L388 732 Z M368 -16 C528 -16 661 61 661 251 L661 680 L465 680 L465 269 C465 192 423 158 368 158 C313 158 271 192 271 269 L271 680 L75 680 L75 251 C75 61 208 -16 368 -16 L368 -16 Z " />
<glyph glyph-name="uni01DC" unicode="&#x1dc;" horiz-adv-x="611" d="M250 721 L405 721 L319 860 L107 860 L250 721 Z M120 553 L285 553 L285 680 L120 680 L120 553 Z M326 553 L491 553 L491 680 L326 680 L326 553 Z M556 500 L360 500 L360 206 C360 162 335 144 303 144 C271 144 246 162 246 206 L246 500 L50 500 L50 168 C50 48 123 -16 220 -16 C295 -16 352 18 372 62 L374 60 L377 0 L556 0 L556 500 Z " />
<glyph glyph-name="AEacute" unicode="&#x1fc;" horiz-adv-x="1049" d="M399 721 L565 721 L706 875 L478 875 L399 721 Z M5 0 L247 0 L310 124 L521 124 L521 0 L990 0 L990 155 L718 155 L718 265 L981 265 L981 416 L718 416 L718 525 L989 525 L989 680 L380 680 L5 0 Z M388 279 L517 533 L521 533 L521 279 L388 279 Z " />
<glyph glyph-name="aeacute" unicode="&#x1fd;" horiz-adv-x="894" d="M358 541 L513 541 L656 680 L444 680 L358 541 Z M196 -16 C287 -16 359 8 416 63 C468 11 539 -16 613 -16 C702 -16 768 5 811 30 L811 163 C759 132 705 117 650 117 C588 117 530 147 525 211 L860 211 C864 428 745 516 602 516 C550 516 490 499 446 460 C400 502 341 517 261 517 C177 517 118 497 86 484 L86 360 C126 383 182 398 235 398 C309 398 338 375 338 335 L338 314 C311 316 291 317 255 317 C110 317 20 263 20 155 C20 53 96 -16 196 -16 L196 -16 Z M525 309 C528 362 561 395 606 395 C651 395 682 363 685 309 L525 309 Z M250 111 C218 111 194 130 194 162 C194 202 225 226 283 226 L338 226 L338 197 C338 139 292 111 250 111 L250 111 Z " />
<glyph glyph-name="Oslashacute" unicode="&#x1fe;" horiz-adv-x="760" d="M583 875 L355 875 L276 721 L442 721 L583 875 Z M611 618 L677 723 L566 723 L531 668 C487 686 437 696 381 696 C179 696 40 567 40 340 C40 217 80 124 150 63 L82 -44 L193 -44 L229 13 C274 -6 325 -16 381 -16 C584 -16 720 113 720 340 C720 463 680 558 611 618 L611 618 Z M250 340 C250 452 294 522 381 522 C401 522 418 519 433 512 L264 245 C255 271 250 303 250 340 L250 340 Z M381 158 C361 158 343 162 327 169 L496 437 C505 410 510 377 510 340 C510 228 469 158 381 158 L381 158 Z " />
<glyph glyph-name="oslashacute" unicode="&#x1ff;" horiz-adv-x="624" d="M521 680 L309 680 L223 541 L378 541 L521 680 Z M500 457 L557 543 L455 543 L424 497 C390 508 352 514 312 514 C153 514 34 424 34 250 C34 157 68 87 125 43 L68 -43 L170 -43 L201 3 C234 -8 272 -14 312 -14 C471 -14 590 76 590 250 C590 343 556 412 500 457 L500 457 Z M312 364 C322 364 334 362 345 357 L238 196 C234 210 231 228 231 250 C231 341 277 364 312 364 L312 364 Z M312 136 C302 136 291 138 280 143 L386 304 C390 290 393 272 393 250 C393 159 347 136 312 136 L312 136 Z " />
<glyph glyph-name="Scommaaccent" unicode="&#x218;" horiz-adv-x="618" d="M291 -16 C477 -16 580 101 580 214 C580 325 523 390 412 417 C367 428 342 432 308 439 C262 449 242 462 242 488 C242 518 276 537 352 537 C435 537 504 511 538 492 L538 661 C494 680 422 696 342 696 C173 696 48 607 48 469 C48 364 107 298 199 275 C250 262 277 256 321 245 C358 236 383 224 383 197 C383 163 347 144 281 144 C191 144 100 183 56 214 L56 36 C111 5 189 -16 291 -16 L291 -16 Z M179 -193 L308 -193 L395 -57 L217 -57 L179 -193 Z " />
<glyph glyph-name="scommaaccent" unicode="&#x219;" horiz-adv-x="502" d="M283 513 C115 513 35 429 35 346 C35 269 75 223 149 201 C180 192 192 189 221 184 C259 177 270 162 270 146 C270 127 251 110 200 110 C134 110 80 137 40 167 L40 25 C88 -2 156 -13 215 -13 C386 -13 472 74 472 165 C472 240 418 293 353 307 C318 315 303 318 279 322 C242 328 228 338 228 357 C228 378 255 393 300 393 C353 393 403 377 436 355 L436 480 C409 495 350 513 283 513 L283 513 Z M122 -197 L251 -197 L331 -61 L160 -61 L122 -197 Z " />
<glyph glyph-name="uni021A" unicode="&#x21a;" horiz-adv-x="571" d="M188 0 L384 0 L384 521 L553 521 L553 680 L18 680 L18 521 L188 521 L188 0 Z M168 -177 L297 -177 L384 -41 L206 -41 L168 -177 Z " />
<glyph glyph-name="uni021B" unicode="&#x21b;" horiz-adv-x="422" d="M262 -8 C313 -8 359 2 401 20 L401 147 C384 142 365 137 344 137 C315 137 283 154 283 203 L283 381 L401 381 L401 500 L283 500 L283 620 L86 620 L86 500 L11 500 L11 381 L86 381 L86 159 C86 55 155 -8 262 -8 L262 -8 Z M98 -177 L227 -177 L307 -41 L136 -41 L98 -177 Z " />
<glyph glyph-name="circumflex" unicode="&#x2c6;" horiz-adv-x="600" d="M49 541 L201 541 L241 607 L245 607 L285 541 L437 541 L343 680 L143 680 L49 541 Z " />
<glyph glyph-name="caron" unicode="&#x2c7;" horiz-adv-x="600" d="M152 541 L352 541 L455 680 L301 680 L254 614 L250 614 L203 680 L49 680 L152 541 Z " />
<glyph glyph-name="breve" unicode="&#x2d8;" horiz-adv-x="600" d="M240 532 C384 532 431 631 431 680 L296 680 C296 661 281 628 240 628 C199 628 184 661 184 680 L49 680 C49 633 96 532 240 532 L240 532 Z " />
<glyph glyph-name="dotaccent" unicode="&#x2d9;" horiz-adv-x="600" d="M49 541 L255 541 L255 680 L49 680 L49 541 Z " />
<glyph glyph-name="ring" unicode="&#x2da;" horiz-adv-x="600" d="M201 532 C289 532 351 577 351 644 C351 711 289 756 201 756 C113 756 49 711 49 644 C49 577 113 532 201 532 L201 532 Z M201 599 C170 599 143 619 143 644 C143 668 170 688 201 688 C231 688 258 668 258 644 C258 619 231 599 201 599 L201 599 Z " />
<glyph glyph-name="ogonek" unicode="&#x2db;" horiz-adv-x="600" d="M149 -177 C178 -177 197 -173 219 -165 L219 -80 C210 -85 197 -89 185 -89 C169 -89 151 -78 151 -57 C151 -26 191 -9 219 1 L113 11 C74 -7 35 -44 35 -86 C35 -142 83 -177 149 -177 L149 -177 Z " />
<glyph glyph-name="tilde" unicode="&#x2dc;" horiz-adv-x="600" d="M155 542 C157 557 169 571 186 571 C220 571 290 538 342 538 C399 538 439 590 449 662 L343 681 C341 669 331 652 312 652 C278 652 208 684 156 684 C101 684 61 638 49 561 L155 542 Z " />
<glyph glyph-name="hungarumlaut" unicode="&#x2dd;" horiz-adv-x="600" d="M49 541 L181 541 L284 680 L95 680 L49 541 Z M266 541 L398 541 L501 680 L312 680 L266 541 Z " />
<glyph glyph-name="gravecomb" unicode="&#x300;" d="M-194 541 L-39 541 L-125 680 L-337 680 L-194 541 Z " />
<glyph glyph-name="acutecomb" unicode="&#x301;" d="M-307 541 L-152 541 L-9 680 L-221 680 L-307 541 Z " />
<glyph glyph-name="uni0302" unicode="&#x302;" d="M-437 541 L-285 541 L-245 607 L-241 607 L-201 541 L-49 541 L-143 680 L-343 680 L-437 541 Z " />
<glyph glyph-name="tildecomb" unicode="&#x303;" d="M-343 542 C-341 557 -329 571 -312 571 C-278 571 -208 538 -156 538 C-99 538 -59 590 -49 662 L-155 681 C-157 669 -167 652 -186 652 C-220 652 -290 684 -342 684 C-397 684 -437 638 -449 561 L-343 542 Z " />
<glyph glyph-name="uni0304" unicode="&#x304;" d="M-383 556 L-49 556 L-49 666 L-383 666 L-383 556 Z " />
<glyph glyph-name="uni0306" unicode="&#x306;" d="M-240 532 C-96 532 -49 631 -49 680 L-184 680 C-184 661 -199 628 -240 628 C-281 628 -296 661 -296 680 L-431 680 C-431 633 -384 532 -240 532 L-240 532 Z " />
<glyph glyph-name="uni0307" unicode="&#x307;" d="M-255 541 L-49 541 L-49 680 L-255 680 L-255 541 Z " />
<glyph glyph-name="uni0308" unicode="&#x308;" d="M-420 553 L-255 553 L-255 680 L-420 680 L-420 553 Z M-214 553 L-49 553 L-49 680 L-214 680 L-214 553 Z " />
<glyph glyph-name="uni030A" unicode="&#x30a;" d="M-199 532 C-111 532 -49 577 -49 644 C-49 711 -111 756 -199 756 C-287 756 -351 711 -351 644 C-351 577 -287 532 -199 532 L-199 532 Z M-199 599 C-230 599 -257 619 -257 644 C-257 668 -230 688 -199 688 C-169 688 -142 668 -142 644 C-142 619 -169 599 -199 599 L-199 599 Z " />
<glyph glyph-name="uni030B" unicode="&#x30b;" d="M-501 541 L-369 541 L-266 680 L-455 680 L-501 541 Z M-284 541 L-152 541 L-49 680 L-238 680 L-284 541 Z " />
<glyph glyph-name="uni030C" unicode="&#x30c;" d="M-352 541 L-152 541 L-49 680 L-203 680 L-250 614 L-254 614 L-301 680 L-455 680 L-352 541 Z " />
<glyph glyph-name="uni0312" unicode="&#x312;" d="M-266 562 L-88 562 L-50 698 L-179 698 L-266 562 Z " />
<glyph glyph-name="uni0326" unicode="&#x326;" d="M-265 -177 L-136 -177 L-56 -41 L-227 -41 L-265 -177 Z " />
<glyph glyph-name="uni0327" unicode="&#x327;" d="M-191 -195 C-121 -195 -49 -168 -49 -97 C-49 -56 -74 -22 -134 -22 L-124 27 L-217 27 L-244 -75 C-233 -73 -222 -72 -211 -72 C-188 -72 -171 -80 -171 -99 C-171 -118 -191 -126 -216 -126 C-230 -126 -244 -123 -257 -119 L-257 -186 C-237 -193 -214 -195 -191 -195 L-191 -195 Z " />
<glyph glyph-name="uni0328" unicode="&#x328;" d="M-124 -177 C-95 -177 -76 -173 -54 -165 L-54 -80 C-63 -85 -76 -89 -88 -89 C-104 -89 -122 -78 -122 -57 C-122 -26 -82 -9 -54 1 L-160 11 C-199 -7 -238 -44 -238 -86 C-238 -142 -190 -177 -124 -177 L-124 -177 Z " />
<glyph glyph-name="uni0335" unicode="&#x335;" d="M-394 286 L-20 286 L-20 396 L-394 396 L-394 286 Z " />
<glyph glyph-name="uni0336" unicode="&#x336;" d="M-731 510 L-24 510 L-24 603 L-731 603 L-731 510 Z " />
<glyph glyph-name="uni0337" unicode="&#x337;" d="M-459 168 L-10 383 L-10 502 L-459 287 L-459 168 Z " />
<glyph glyph-name="uni0338" unicode="&#x338;" d="M-605 -43 L-494 -43 L-10 724 L-121 724 L-605 -43 Z " />
<glyph glyph-name="tonos" unicode="&#x384;" horiz-adv-x="358" d="M40 541 L195 541 L298 680 L96 680 L40 541 Z " />
<glyph glyph-name="dieresistonos" unicode="&#x385;" horiz-adv-x="605" d="M222 553 L347 553 L422 760 L258 760 L222 553 Z M50 553 L185 553 L185 680 L50 680 L50 553 Z M420 553 L555 553 L555 680 L420 680 L420 553 Z " />
<glyph glyph-name="Alphatonos" unicode="&#x386;" horiz-adv-x="704" d="M150 680 L-32 680 L-78 471 L57 471 L150 680 Z M498 0 L699 0 L495 680 L208 680 L5 0 L206 0 L243 141 L460 141 L498 0 Z M280 280 L347 531 L356 531 L423 280 L280 280 Z " />
<glyph glyph-name="anoteleia" unicode="&#x387;" horiz-adv-x="216" d="M20 349 L196 349 L196 500 L20 500 L20 349 Z " />
<glyph glyph-name="Epsilontonos" unicode="&#x388;" horiz-adv-x="608" d="M-188 471 L-53 471 L40 680 L-142 680 L-188 471 Z M80 0 L549 0 L549 155 L276 155 L276 265 L540 265 L540 416 L276 416 L276 525 L549 525 L549 680 L80 680 L80 0 Z " />
<glyph glyph-name="Etatonos" unicode="&#x389;" horiz-adv-x="753" d="M-188 471 L-53 471 L40 680 L-142 680 L-188 471 Z M80 680 L80 0 L276 0 L276 266 L477 266 L477 0 L673 0 L673 680 L477 680 L477 420 L276 420 L276 680 L80 680 Z " />
<glyph glyph-name="Iotatonos" unicode="&#x38a;" horiz-adv-x="356" d="M-188 471 L-53 471 L40 680 L-142 680 L-188 471 Z M80 0 L276 0 L276 680 L80 680 L80 0 Z " />
<glyph glyph-name="Omicrontonos" unicode="&#x38c;" horiz-adv-x="760" d="M381 -16 C584 -16 720 113 720 340 C720 567 584 696 381 696 C179 696 40 567 40 340 C40 113 179 -16 381 -16 L381 -16 Z M-148 471 L-13 471 L80 680 L-102 680 L-148 471 Z M381 158 C294 158 250 228 250 340 C250 452 294 522 381 522 C469 522 510 452 510 340 C510 228 469 158 381 158 L381 158 Z " />
<glyph glyph-name="Upsilontonos" unicode="&#x38e;" horiz-adv-x="671" d="M-238 471 L-103 471 L-10 680 L-192 680 L-238 471 Z M235 0 L431 0 L431 139 C431 269 498 377 558 485 L666 680 L449 680 C377 588 344 476 338 417 L334 417 C327 476 293 588 227 680 L5 680 L112 486 C173 376 235 268 235 139 L235 0 Z " />
<glyph glyph-name="Omegatonos" unicode="&#x38f;" horiz-adv-x="762" d="M45 0 L362 0 L362 145 C314 155 260 220 260 346 C260 461 300 528 381 528 C462 528 502 461 502 346 C502 220 448 155 400 145 L400 0 L717 0 L717 155 L590 155 C659 194 710 266 710 388 C710 563 586 696 381 696 C176 696 52 563 52 388 C52 266 103 194 172 155 L45 155 L45 0 Z M-148 471 L-13 471 L80 680 L-102 680 L-148 471 Z " />
<glyph glyph-name="iotadieresistonos" unicode="&#x390;" horiz-adv-x="343" d="M72 553 L197 553 L272 760 L108 760 L72 553 Z M-100 553 L35 553 L35 680 L-100 680 L-100 553 Z M270 553 L405 553 L405 680 L270 680 L270 553 Z M222 -8 C272 -8 311 2 338 16 L338 144 C327 140 311 137 294 137 C266 137 252 154 252 189 L252 500 L55 500 L55 159 C55 55 124 -8 222 -8 L222 -8 Z " />
<glyph glyph-name="Alpha" unicode="&#x391;" horiz-adv-x="704" d="M498 0 L699 0 L495 680 L208 680 L5 0 L206 0 L243 141 L460 141 L498 0 Z M280 280 L347 531 L356 531 L423 280 L280 280 Z " />
<glyph glyph-name="Beta" unicode="&#x392;" horiz-adv-x="698" d="M80 0 L413 0 C588 0 658 98 658 184 C658 299 580 337 529 350 L529 354 C575 372 627 415 627 498 C627 592 552 680 396 680 L80 680 L80 0 Z M276 402 L276 534 L366 534 C406 534 432 503 432 468 C432 433 406 402 366 402 L276 402 Z M276 146 L276 288 L387 288 C429 288 456 253 456 218 C456 179 429 146 387 146 L276 146 Z " />
<glyph glyph-name="Gamma" unicode="&#x393;" horiz-adv-x="539" d="M80 0 L276 0 L276 519 L519 519 L519 680 L80 680 L80 0 Z " />
<glyph glyph-name="uni0394" unicode="&#x394;" horiz-adv-x="687" d="M25 0 L662 0 L662 152 L465 680 L223 680 L25 152 L25 0 Z M232 155 L342 498 L346 498 L456 155 L232 155 Z " />
<glyph glyph-name="Epsilon" unicode="&#x395;" horiz-adv-x="608" d="M80 0 L549 0 L549 155 L276 155 L276 265 L540 265 L540 416 L276 416 L276 525 L549 525 L549 680 L80 680 L80 0 Z " />
<glyph glyph-name="Zeta" unicode="&#x396;" horiz-adv-x="594" d="M30 0 L564 0 L564 159 L270 159 L559 537 L559 680 L36 680 L36 521 L314 521 L30 150 L30 0 Z " />
<glyph glyph-name="Eta" unicode="&#x397;" horiz-adv-x="753" d="M80 680 L80 0 L276 0 L276 266 L477 266 L477 0 L673 0 L673 680 L477 680 L477 420 L276 420 L276 680 L80 680 Z " />
<glyph glyph-name="Theta" unicode="&#x398;" horiz-adv-x="760" d="M381 -16 C584 -16 720 113 720 340 C720 567 584 696 381 696 C179 696 40 567 40 340 C40 113 179 -16 381 -16 L381 -16 Z M381 158 C294 158 250 228 250 340 C250 452 294 522 381 522 C469 522 510 452 510 340 C510 228 469 158 381 158 L381 158 Z M299 277 L461 277 L461 404 L299 404 L299 277 Z " />
<glyph glyph-name="Iota" unicode="&#x399;" horiz-adv-x="356" d="M80 0 L276 0 L276 680 L80 680 L80 0 Z " />
<glyph glyph-name="Kappa" unicode="&#x39a;" horiz-adv-x="715" d="M708 0 L478 351 L705 680 L466 680 L276 367 L276 680 L80 680 L80 0 L276 0 L276 327 L473 0 L708 0 Z " />
<glyph glyph-name="Lambda" unicode="&#x39b;" horiz-adv-x="686" d="M5 0 L225 0 L341 469 L345 469 L461 0 L681 0 L467 680 L219 680 L5 0 Z " />
<glyph glyph-name="Mu" unicode="&#x39c;" horiz-adv-x="902" d="M80 0 L267 0 L267 415 L270 415 L446 126 L460 126 L628 416 L631 416 L631 0 L822 0 L822 680 L595 680 L455 439 L452 439 L312 680 L80 680 L80 0 Z " />
<glyph glyph-name="Nu" unicode="&#x39d;" horiz-adv-x="804" d="M80 0 L276 0 L276 408 L279 408 L485 0 L724 0 L724 680 L528 680 L528 274 L525 274 L321 680 L80 680 L80 0 Z " />
<glyph glyph-name="Xi" unicode="&#x39e;" horiz-adv-x="609" d="M40 525 L569 525 L569 680 L40 680 L40 525 Z M116 258 L493 258 L493 423 L116 423 L116 258 Z M40 0 L569 0 L569 155 L40 155 L40 0 Z " />
<glyph glyph-name="Omicron" unicode="&#x39f;" horiz-adv-x="760" d="M381 -16 C584 -16 720 113 720 340 C720 567 584 696 381 696 C179 696 40 567 40 340 C40 113 179 -16 381 -16 L381 -16 Z M381 158 C294 158 250 228 250 340 C250 452 294 522 381 522 C469 522 510 452 510 340 C510 228 469 158 381 158 L381 158 Z " />
<glyph glyph-name="Pi" unicode="&#x3a0;" horiz-adv-x="779" d="M80 0 L291 0 L291 511 L488 511 L488 0 L699 0 L699 680 L80 680 L80 0 Z " />
<glyph glyph-name="Rho" unicode="&#x3a1;" horiz-adv-x="659" d="M80 0 L276 0 L276 220 L376 220 C535 220 634 321 634 446 C634 571 535 680 376 680 L80 680 L80 0 Z M276 366 L276 534 L353 534 C396 534 435 498 435 450 C435 401 396 366 353 366 L276 366 Z " />
<glyph glyph-name="Sigma" unicode="&#x3a3;" horiz-adv-x="558" d="M30 0 L535 0 L535 155 L267 155 L434 340 L266 525 L535 525 L535 680 L30 680 L30 537 L204 340 L30 143 L30 0 Z " />
<glyph glyph-name="Tau" unicode="&#x3a4;" horiz-adv-x="571" d="M188 0 L384 0 L384 521 L553 521 L553 680 L18 680 L18 521 L188 521 L188 0 Z " />
<glyph glyph-name="Upsilon" unicode="&#x3a5;" horiz-adv-x="671" d="M235 0 L431 0 L431 139 C431 269 498 377 558 485 L666 680 L449 680 C377 588 344 476 338 417 L334 417 C327 476 293 588 227 680 L5 680 L112 486 C173 376 235 268 235 139 L235 0 Z " />
<glyph glyph-name="Phi" unicode="&#x3a6;" horiz-adv-x="806" d="M776 340 C776 509 659 618 496 641 L496 710 L310 710 L310 641 C148 617 30 508 30 340 C30 172 148 63 310 39 L310 -30 L496 -30 L496 39 C659 62 776 171 776 340 L776 340 Z M490 187 L490 493 C555 474 586 420 586 340 C586 260 555 206 490 187 L490 187 Z M220 340 C220 419 252 472 316 493 L316 187 C252 208 220 261 220 340 L220 340 Z " />
<glyph glyph-name="Chi" unicode="&#x3a7;" horiz-adv-x="728" d="M12 0 L241 0 L363 218 L367 218 L481 0 L709 0 L515 337 L716 680 L483 680 L371 450 L367 450 L259 680 L27 680 L219 338 L12 0 Z " />
<glyph glyph-name="Psi" unicode="&#x3a8;" horiz-adv-x="766" d="M560 680 L560 462 C560 399 525 365 471 354 L471 680 L295 680 L295 354 C241 365 206 399 206 462 L206 680 L30 680 L30 454 C30 279 151 200 295 188 L295 0 L471 0 L471 188 C615 200 736 279 736 454 L736 680 L560 680 Z " />
<glyph glyph-name="uni03A9" unicode="&#x3a9;" horiz-adv-x="762" d="M45 0 L362 0 L362 145 C314 155 260 220 260 346 C260 461 300 528 381 528 C462 528 502 461 502 346 C502 220 448 155 400 145 L400 0 L717 0 L717 155 L590 155 C659 194 710 266 710 388 C710 563 586 696 381 696 C176 696 52 563 52 388 C52 266 103 194 172 155 L45 155 L45 0 Z " />
<glyph glyph-name="Iotadieresis" unicode="&#x3aa;" horiz-adv-x="356" d="M-28 732 L157 732 L157 863 L-28 863 L-28 732 Z M198 732 L383 732 L383 863 L198 863 L198 732 Z M80 0 L276 0 L276 680 L80 680 L80 0 Z " />
<glyph glyph-name="Upsilondieresis" unicode="&#x3ab;" horiz-adv-x="671" d="M130 732 L315 732 L315 863 L130 863 L130 732 Z M356 732 L541 732 L541 863 L356 863 L356 732 Z M235 0 L431 0 L431 139 C431 269 498 377 558 485 L666 680 L449 680 C377 588 344 476 338 417 L334 417 C327 476 293 588 227 680 L5 680 L112 486 C173 376 235 268 235 139 L235 0 Z " />
<glyph glyph-name="alphatonos" unicode="&#x3ac;" horiz-adv-x="667" d="M248 541 L403 541 L506 680 L304 680 L248 541 Z M264 -16 C350 -16 396 17 425 77 L429 77 L451 0 L647 0 L559 250 L647 500 L442 500 L423 428 L419 428 C398 482 343 516 272 516 C152 516 34 423 34 245 C34 84 150 -16 264 -16 L264 -16 Z M313 134 C278 134 235 159 235 250 C235 343 278 366 313 366 C347 366 391 341 391 250 C391 159 347 134 313 134 L313 134 Z " />
<glyph glyph-name="epsilontonos" unicode="&#x3ad;" horiz-adv-x="487" d="M180 541 L335 541 L438 680 L236 680 L180 541 Z M282 -16 C366 -16 437 0 464 13 L464 139 C420 120 377 111 317 111 C253 111 227 129 227 153 C227 176 253 193 316 193 C359 193 388 193 423 191 L423 308 C388 306 359 306 321 306 C261 306 227 320 227 347 C227 371 254 387 328 387 C377 387 418 380 452 361 L452 484 C425 497 366 513 282 513 C114 513 39 439 39 356 C39 310 61 275 97 253 C55 234 29 192 29 147 C29 58 114 -16 282 -16 L282 -16 Z " />
<glyph glyph-name="etatonos" unicode="&#x3ae;" horiz-adv-x="611" d="M217 541 L372 541 L475 680 L273 680 L217 541 Z M365 -160 L561 -160 L561 346 C561 458 480 516 393 516 C326 516 276 486 249 442 L245 442 L245 500 L55 500 L55 0 L251 0 L251 291 C251 335 276 353 308 353 C340 353 365 335 365 291 L365 -160 Z " />
<glyph glyph-name="iotatonos" unicode="&#x3af;" horiz-adv-x="343" d="M68 541 L223 541 L326 680 L124 680 L68 541 Z M222 -8 C272 -8 311 2 338 16 L338 144 C327 140 311 137 294 137 C266 137 252 154 252 189 L252 500 L55 500 L55 159 C55 55 124 -8 222 -8 L222 -8 Z " />
<glyph glyph-name="upsilondieresistonos" unicode="&#x3b0;" horiz-adv-x="606" d="M221 553 L346 553 L421 760 L257 760 L221 553 Z M49 553 L184 553 L184 680 L49 680 L49 553 Z M419 553 L554 553 L554 680 L419 680 L419 553 Z M303 -21 C442 -21 556 53 556 178 L556 500 L360 500 L360 191 C360 147 335 129 303 129 C271 129 246 147 246 191 L246 500 L50 500 L50 178 C50 53 164 -21 303 -21 L303 -21 Z " />
<glyph glyph-name="alpha" unicode="&#x3b1;" horiz-adv-x="667" d="M264 -16 C350 -16 396 17 425 77 L429 77 L451 0 L647 0 L559 250 L647 500 L442 500 L423 428 L419 428 C398 482 343 516 272 516 C152 516 34 423 34 245 C34 84 150 -16 264 -16 L264 -16 Z M313 134 C278 134 235 159 235 250 C235 343 278 366 313 366 C347 366 391 341 391 250 C391 159 347 134 313 134 L313 134 Z " />
<glyph glyph-name="beta" unicode="&#x3b2;" horiz-adv-x="634" d="M55 -160 L260 -160 L260 30 C285 6 323 -12 373 -12 C493 -12 600 57 600 198 C600 295 541 345 495 360 L495 364 C534 388 558 434 558 498 C558 590 489 696 324 696 C171 696 55 613 55 443 L55 -160 Z M314 132 C292 132 275 136 260 143 L260 478 C260 520 284 555 325 555 C364 555 388 527 388 484 C388 438 360 415 326 415 C317 415 313 415 307 416 L307 298 C312 299 315 299 326 299 C361 299 396 274 396 216 C396 154 354 132 314 132 L314 132 Z " />
<glyph glyph-name="gamma" unicode="&#x3b3;" horiz-adv-x="582" d="M202 -160 L398 -160 L398 16 L577 500 L375 500 L296 215 L292 215 L210 500 L5 500 L202 15 L202 -160 Z " />
<glyph glyph-name="delta" unicode="&#x3b4;" horiz-adv-x="622" d="M311 -16 C479 -16 588 81 588 235 C588 336 538 400 457 458 C417 487 359 520 325 539 C323 540 322 541 322 542 C322 543 323 544 325 544 L542 544 L542 680 L232 680 C158 680 110 643 110 589 C110 550 128 521 157 497 L196 463 L196 462 C103 439 34 346 34 235 C34 82 142 -16 311 -16 L311 -16 Z M311 127 C271 127 228 156 228 235 C228 314 271 343 311 343 C351 343 394 314 394 235 C394 156 351 127 311 127 L311 127 Z " />
<glyph glyph-name="epsilon" unicode="&#x3b5;" horiz-adv-x="487" d="M282 -16 C366 -16 437 0 464 13 L464 139 C420 120 377 111 317 111 C253 111 227 129 227 153 C227 176 253 193 316 193 C359 193 388 193 423 191 L423 308 C388 306 359 306 321 306 C261 306 227 320 227 347 C227 371 254 387 328 387 C377 387 418 380 452 361 L452 484 C425 497 366 513 282 513 C114 513 39 439 39 356 C39 310 61 275 97 253 C55 234 29 192 29 147 C29 58 114 -16 282 -16 L282 -16 Z " />
<glyph glyph-name="zeta" unicode="&#x3b6;" horiz-adv-x="456" d="M320 -173 C401 -113 452 -57 452 19 C452 92 397 125 330 136 C261 148 227 168 227 222 C227 299 293 390 429 535 L429 680 L35 680 L35 535 L228 535 C112 437 20 311 20 199 C20 78 110 9 236 0 C259 -2 272 -12 272 -29 C272 -38 267 -47 260 -57 C252 -68 239 -80 227 -89 L320 -173 Z " />
<glyph glyph-name="eta" unicode="&#x3b7;" horiz-adv-x="611" d="M365 -160 L561 -160 L561 346 C561 458 480 516 393 516 C326 516 276 486 249 442 L245 442 L245 500 L55 500 L55 0 L251 0 L251 291 C251 335 276 353 308 353 C340 353 365 335 365 291 L365 -160 Z " />
<glyph glyph-name="theta" unicode="&#x3b8;" horiz-adv-x="620" d="M310 697 C160 697 40 578 40 339 C40 100 160 -19 310 -19 C460 -19 580 100 580 339 C580 578 460 697 310 697 L310 697 Z M310 539 C354 539 391 508 402 405 L218 405 C229 508 266 539 310 539 L310 539 Z M310 139 C266 139 229 170 218 272 L402 272 C391 170 354 139 310 139 L310 139 Z " />
<glyph glyph-name="iota" unicode="&#x3b9;" horiz-adv-x="343" d="M222 -8 C272 -8 311 2 338 16 L338 144 C327 140 311 137 294 137 C266 137 252 154 252 189 L252 500 L55 500 L55 159 C55 55 124 -8 222 -8 L222 -8 Z " />
<glyph glyph-name="kappa" unicode="&#x3ba;" horiz-adv-x="625" d="M616 0 L447 276 L598 500 L365 500 L251 279 L251 500 L55 500 L55 0 L251 0 L251 249 L391 0 L616 0 Z " />
<glyph glyph-name="lambda" unicode="&#x3bb;" horiz-adv-x="572" d="M0 0 L208 0 L290 310 L294 310 L370 0 L572 0 L393 528 C361 624 302 697 176 697 C131 697 93 690 67 680 L67 547 C83 554 104 559 126 559 C169 559 197 536 202 505 L0 0 Z " />
<glyph glyph-name="uni03BC" unicode="&#x3bc;" horiz-adv-x="616" d="M55 -160 L243 -160 L243 -1 C250 -4 261 -6 277 -6 C315 -6 357 17 377 60 L379 60 L387 0 L561 0 L561 500 L365 500 L365 206 C365 162 340 144 308 144 C276 144 251 162 251 206 L251 500 L55 500 L55 -160 Z " />
<glyph glyph-name="nu" unicode="&#x3bd;" horiz-adv-x="578" d="M155 0 L423 0 L573 500 L370 500 L291 167 L287 167 L208 500 L5 500 L155 0 Z " />
<glyph glyph-name="xi" unicode="&#x3be;" horiz-adv-x="452" d="M335 -173 C416 -113 467 -57 467 19 C467 92 412 124 345 136 C268 150 222 169 222 217 C222 265 272 291 336 291 C364 291 383 289 403 285 L403 414 C380 412 365 412 346 412 C259 412 225 443 225 486 C225 529 262 555 333 555 C377 555 410 546 434 529 L434 668 C404 684 360 696 295 696 C130 696 43 600 43 508 C43 431 90 390 134 364 L134 360 C83 341 20 290 20 201 C20 69 153 14 252 0 C273 -3 287 -12 287 -29 C287 -40 280 -52 270 -63 C262 -72 252 -81 242 -89 L335 -173 Z " />
<glyph glyph-name="omicron" unicode="&#x3bf;" horiz-adv-x="624" d="M34 250 C34 76 153 -14 312 -14 C471 -14 590 76 590 250 C590 424 471 514 312 514 C153 514 34 424 34 250 L34 250 Z M231 250 C231 341 277 364 312 364 C347 364 393 341 393 250 C393 159 347 136 312 136 C277 136 231 159 231 250 L231 250 Z " />
<glyph glyph-name="pi" unicode="&#x3c0;" horiz-adv-x="675" d="M549 -17 C589 -17 618 -9 645 5 L645 132 C634 129 623 128 611 128 C593 128 579 141 579 170 L579 380 L655 380 L655 500 L10 500 L10 380 L90 380 L90 0 L286 0 L286 380 L383 380 L382 150 C382 46 451 -17 549 -17 L549 -17 Z " />
<glyph glyph-name="rho" unicode="&#x3c1;" horiz-adv-x="630" d="M50 -160 L246 -160 L246 23 L250 25 C273 5 314 -16 377 -16 C495 -16 596 95 596 245 C596 410 491 516 318 516 C155 516 50 413 50 260 L50 -160 Z M318 134 C284 134 240 159 240 250 C240 341 284 366 318 366 C353 366 396 341 396 250 C396 159 353 134 318 134 L318 134 Z " />
<glyph glyph-name="uni03C2" unicode="&#x3c2;" horiz-adv-x="493" d="M331 -173 C407 -123 463 -57 463 19 C463 82 417 117 347 136 C297 150 235 172 235 261 C235 337 300 372 355 372 C393 372 421 363 448 346 L448 483 C425 498 379 511 314 511 C174 511 34 427 34 260 C34 73 163 22 236 8 C268 2 283 -12 283 -29 C283 -39 277 -50 267 -62 C259 -71 248 -81 238 -89 L331 -173 Z " />
<glyph glyph-name="sigma" unicode="&#x3c3;" horiz-adv-x="634" d="M634 500 L414 500 C382 509 348 514 312 514 C153 514 34 424 34 250 C34 76 153 -14 312 -14 C471 -14 590 76 590 240 C590 296 570 350 534 381 L634 381 L634 500 Z M312 136 C277 136 231 159 231 250 C231 341 277 364 312 364 C347 364 393 341 393 250 C393 159 347 136 312 136 L312 136 Z " />
<glyph glyph-name="tau" unicode="&#x3c4;" horiz-adv-x="461" d="M301 -8 C352 -8 398 2 440 20 L440 147 C423 142 404 137 383 137 C354 137 322 154 322 203 L322 381 L440 381 L440 500 L20 500 L20 381 L125 381 L125 159 C125 55 194 -8 301 -8 L301 -8 Z " />
<glyph glyph-name="upsilon" unicode="&#x3c5;" horiz-adv-x="606" d="M303 -21 C442 -21 556 53 556 178 L556 500 L360 500 L360 191 C360 147 335 129 303 129 C271 129 246 147 246 191 L246 500 L50 500 L50 178 C50 53 164 -21 303 -21 L303 -21 Z " />
<glyph glyph-name="phi" unicode="&#x3c6;" horiz-adv-x="838" d="M326 -160 L512 -160 L512 -14 C675 -14 804 69 804 249 C804 427 678 507 555 507 C436 507 326 430 326 295 L326 130 C257 130 211 162 211 243 C211 309 238 351 290 351 C295 351 300 351 305 350 L305 489 C294 492 276 495 254 495 C131 495 34 400 34 243 C34 69 163 -14 326 -14 L326 -160 Z M497 132 L497 303 C497 330 519 350 545 350 C584 350 627 324 627 249 C627 162 556 132 497 132 L497 132 Z " />
<glyph glyph-name="chi" unicode="&#x3c7;" horiz-adv-x="610" d="M5 -161 L215 -161 L303 62 L307 62 L391 -161 L605 -161 L439 164 L588 500 L373 500 L304 302 L300 302 L229 500 L18 500 L174 166 L5 -161 Z " />
<glyph glyph-name="psi" unicode="&#x3c8;" horiz-adv-x="802" d="M308 -160 L494 -160 L494 -13 C643 -13 752 71 752 206 L752 500 L576 500 L576 219 C576 165 536 137 489 137 L489 680 L313 680 L313 137 C266 137 226 165 226 219 L226 500 L50 500 L50 206 C50 71 159 -13 308 -13 L308 -160 Z " />
<glyph glyph-name="omega" unicode="&#x3c9;" horiz-adv-x="878" d="M269 -21 C347 -21 424 22 439 85 C454 22 531 -21 609 -21 C738 -21 838 79 838 254 C838 411 746 509 615 509 C600 509 588 508 577 505 L577 368 C581 369 585 370 590 370 C627 370 661 343 661 250 C661 159 627 131 589 131 C557 131 526 153 526 236 L526 420 L352 420 L352 236 C352 153 321 131 289 131 C251 131 217 159 217 250 C217 343 251 370 288 370 C293 370 297 369 301 368 L301 505 C290 508 278 509 263 509 C132 509 40 411 40 254 C40 79 140 -21 269 -21 L269 -21 Z " />
<glyph glyph-name="iotadieresis" unicode="&#x3ca;" horiz-adv-x="343" d="M-29 553 L136 553 L136 680 L-29 680 L-29 553 Z M177 553 L342 553 L342 680 L177 680 L177 553 Z M222 -8 C272 -8 311 2 338 16 L338 144 C327 140 311 137 294 137 C266 137 252 154 252 189 L252 500 L55 500 L55 159 C55 55 124 -8 222 -8 L222 -8 Z " />
<glyph glyph-name="upsilondieresis" unicode="&#x3cb;" horiz-adv-x="606" d="M120 553 L285 553 L285 680 L120 680 L120 553 Z M326 553 L491 553 L491 680 L326 680 L326 553 Z M303 -21 C442 -21 556 53 556 178 L556 500 L360 500 L360 191 C360 147 335 129 303 129 C271 129 246 147 246 191 L246 500 L50 500 L50 178 C50 53 164 -21 303 -21 L303 -21 Z " />
<glyph glyph-name="omicrontonos" unicode="&#x3cc;" horiz-adv-x="624" d="M223 541 L378 541 L481 680 L279 680 L223 541 Z M34 250 C34 76 153 -14 312 -14 C471 -14 590 76 590 250 C590 424 471 514 312 514 C153 514 34 424 34 250 L34 250 Z M231 250 C231 341 277 364 312 364 C347 364 393 341 393 250 C393 159 347 136 312 136 C277 136 231 159 231 250 L231 250 Z " />
<glyph glyph-name="upsilontonos" unicode="&#x3cd;" horiz-adv-x="606" d="M217 541 L372 541 L475 680 L273 680 L217 541 Z M303 -21 C442 -21 556 53 556 178 L556 500 L360 500 L360 191 C360 147 335 129 303 129 C271 129 246 147 246 191 L246 500 L50 500 L50 178 C50 53 164 -21 303 -21 L303 -21 Z " />
<glyph glyph-name="omegatonos" unicode="&#x3ce;" horiz-adv-x="878" d="M350 541 L505 541 L608 680 L406 680 L350 541 Z M269 -21 C347 -21 424 22 439 85 C454 22 531 -21 609 -21 C738 -21 838 79 838 254 C838 411 746 509 615 509 C600 509 588 508 577 505 L577 368 C581 369 585 370 590 370 C627 370 661 343 661 250 C661 159 627 131 589 131 C557 131 526 153 526 236 L526 420 L352 420 L352 236 C352 153 321 131 289 131 C251 131 217 159 217 250 C217 343 251 370 288 370 C293 370 297 369 301 368 L301 505 C290 508 278 509 263 509 C132 509 40 411 40 254 C40 79 140 -21 269 -21 L269 -21 Z " />
<glyph glyph-name="uni03DC" unicode="&#x3dc;" horiz-adv-x="585" d="M80 680 L80 0 L276 0 L276 263 L542 263 L542 414 L276 414 L276 525 L545 525 L545 680 L80 680 Z " />
<glyph glyph-name="uni03DD" unicode="&#x3dd;" horiz-adv-x="525" d="M80 500 L80 -160 L276 -160 L276 83 L472 83 L472 214 L276 214 L276 365 L475 365 L475 500 L80 500 Z " />
<glyph glyph-name="Wgrave" unicode="&#x1e80;" horiz-adv-x="984" d="M414 721 L580 721 L501 875 L273 875 L414 721 Z M165 0 L385 0 L477 361 L481 361 L562 0 L785 0 L969 680 L756 680 L664 262 L660 262 L579 680 L389 680 L296 262 L292 262 L224 680 L15 680 L165 0 Z " />
<glyph glyph-name="wgrave" unicode="&#x1e81;" horiz-adv-x="841" d="M365 541 L520 541 L434 680 L222 680 L365 541 Z M134 0 L363 0 L418 319 L422 319 L477 0 L706 0 L836 500 L641 500 L586 177 L583 177 L527 500 L313 500 L257 177 L254 177 L200 500 L5 500 L134 0 Z " />
<glyph glyph-name="Wacute" unicode="&#x1e82;" horiz-adv-x="984" d="M383 721 L549 721 L690 875 L462 875 L383 721 Z M165 0 L385 0 L477 361 L481 361 L562 0 L785 0 L969 680 L756 680 L664 262 L660 262 L579 680 L389 680 L296 262 L292 262 L224 680 L15 680 L165 0 Z " />
<glyph glyph-name="wacute" unicode="&#x1e83;" horiz-adv-x="841" d="M332 541 L487 541 L630 680 L418 680 L332 541 Z M134 0 L363 0 L418 319 L422 319 L477 0 L706 0 L836 500 L641 500 L586 177 L583 177 L527 500 L313 500 L257 177 L254 177 L200 500 L5 500 L134 0 Z " />
<glyph glyph-name="Wdieresis" unicode="&#x1e84;" horiz-adv-x="984" d="M281 732 L466 732 L466 863 L281 863 L281 732 Z M507 732 L692 732 L692 863 L507 863 L507 732 Z M165 0 L385 0 L477 361 L481 361 L562 0 L785 0 L969 680 L756 680 L664 262 L660 262 L579 680 L389 680 L296 262 L292 262 L224 680 L15 680 L165 0 Z " />
<glyph glyph-name="wdieresis" unicode="&#x1e85;" horiz-adv-x="841" d="M235 553 L400 553 L400 680 L235 680 L235 553 Z M441 553 L606 553 L606 680 L441 680 L441 553 Z M134 0 L363 0 L418 319 L422 319 L477 0 L706 0 L836 500 L641 500 L586 177 L583 177 L527 500 L313 500 L257 177 L254 177 L200 500 L5 500 L134 0 Z " />
<glyph glyph-name="Ygrave" unicode="&#x1ef2;" horiz-adv-x="671" d="M260 721 L426 721 L347 875 L119 875 L260 721 Z M235 0 L431 0 L431 249 L666 680 L449 680 L338 437 L334 437 L227 680 L5 680 L235 249 L235 0 Z " />
<glyph glyph-name="ygrave" unicode="&#x1ef3;" horiz-adv-x="582" d="M235 541 L390 541 L304 680 L92 680 L235 541 Z M296 185 L292 185 L213 500 L5 500 L200 15 C192 -11 165 -34 126 -34 C105 -34 83 -27 65 -17 L65 -155 C98 -166 136 -172 172 -172 C298 -172 362 -94 396 1 L577 500 L375 500 L296 185 Z " />
<glyph glyph-name="endash" unicode="&#x2013;" horiz-adv-x="600" d="M50 334 L50 231 L550 231 L550 334 L50 334 Z " />
<glyph glyph-name="emdash" unicode="&#x2014;" horiz-adv-x="1100" d="M50 334 L50 231 L1050 231 L1050 334 L50 334 Z " />
<glyph glyph-name="quoteleft" unicode="&#x2018;" horiz-adv-x="246" d="M40 396 L176 396 L206 680 L120 680 L40 396 Z " />
<glyph glyph-name="quoteright" unicode="&#x2019;" horiz-adv-x="246" d="M40 396 L126 396 L206 680 L70 680 L40 396 Z " />
<glyph glyph-name="quotesinglbase" unicode="&#x201a;" horiz-adv-x="246" d="M40 -125 L126 -125 L206 159 L70 159 L40 -125 Z " />
<glyph glyph-name="quotedblleft" unicode="&#x201c;" horiz-adv-x="443" d="M40 396 L176 396 L206 680 L120 680 L40 396 Z M237 396 L373 396 L403 680 L317 680 L237 396 Z " />
<glyph glyph-name="quotedblright" unicode="&#x201d;" horiz-adv-x="443" d="M40 396 L126 396 L206 680 L70 680 L40 396 Z M237 396 L323 396 L403 680 L267 680 L237 396 Z " />
<glyph glyph-name="quotedblbase" unicode="&#x201e;" horiz-adv-x="443" d="M40 -125 L126 -125 L206 159 L70 159 L40 -125 Z M237 -125 L323 -125 L403 159 L267 159 L237 -125 Z " />
<glyph glyph-name="dagger" unicode="&#x2020;" horiz-adv-x="543" d="M221 -160 L323 -160 L319 405 L493 401 L493 500 L319 496 L323 680 L221 680 L225 496 L50 500 L50 401 L225 405 L221 -160 Z " />
<glyph glyph-name="daggerdbl" unicode="&#x2021;" horiz-adv-x="543" d="M221 -160 L323 -160 L319 4 L493 0 L493 99 L323 95 L323 405 L493 401 L493 500 L319 496 L323 680 L221 680 L225 496 L50 500 L50 401 L225 405 L225 95 L50 99 L50 0 L225 4 L221 -160 Z " />
<glyph glyph-name="bullet" unicode="&#x2022;" horiz-adv-x="305" d="M50 340 C50 283 95 238 152 238 C209 238 255 283 255 340 C255 397 209 443 152 443 C95 443 50 397 50 340 L50 340 Z " />
<glyph glyph-name="ellipsis" unicode="&#x2026;" horiz-adv-x="1026" d="M50 0 L236 0 L236 159 L50 159 L50 0 Z M420 0 L606 0 L606 159 L420 159 L420 0 Z M790 0 L976 0 L976 159 L790 159 L790 0 Z " />
<glyph glyph-name="perthousand" unicode="&#x2030;" horiz-adv-x="1350" d="M228 276 C348 276 416 357 416 483 C416 609 348 690 228 690 C108 690 40 609 40 483 C40 357 108 276 228 276 L228 276 Z M210 0 L318 0 L730 680 L622 680 L210 0 Z M228 389 C194 389 166 411 166 483 C166 555 194 577 228 577 C262 577 290 555 290 483 C290 411 262 389 228 389 L228 389 Z M712 -10 C832 -10 900 71 900 197 C900 323 832 404 712 404 C592 404 524 323 524 197 C524 71 592 -10 712 -10 L712 -10 Z M1122 -10 C1242 -10 1310 71 1310 197 C1310 323 1242 404 1122 404 C1002 404 934 323 934 197 C934 71 1002 -10 1122 -10 L1122 -10 Z M712 103 C678 103 650 125 650 197 C650 269 678 291 712 291 C746 291 774 269 774 197 C774 125 746 103 712 103 L712 103 Z M1122 103 C1088 103 1060 125 1060 197 C1060 269 1088 291 1122 291 C1156 291 1184 269 1184 197 C1184 125 1156 103 1122 103 L1122 103 Z " />
<glyph glyph-name="guilsinglleft" unicode="&#x2039;" horiz-adv-x="290" d="M240 20 L240 170 L148 248 L148 252 L240 330 L240 480 L50 314 L50 186 L240 20 Z " />
<glyph glyph-name="guilsinglright" unicode="&#x203a;" horiz-adv-x="290" d="M50 20 L240 186 L240 314 L50 480 L50 330 L142 252 L142 248 L50 170 L50 20 Z " />
<glyph glyph-name="fraction" unicode="&#x2044;" horiz-adv-x="228" d="M297 680 L-190 0 L-69 0 L418 680 L297 680 Z " />
<glyph glyph-name="uni2070" unicode="&#x2070;" horiz-adv-x="476" d="M238 457 C358 457 437 528 437 671 C437 814 358 885 238 885 C118 885 39 814 39 671 C39 528 118 457 238 457 L238 457 Z M238 560 C204 560 175 582 175 671 C175 760 204 782 238 782 C272 782 300 760 300 671 C300 582 272 560 238 560 L238 560 Z " />
<glyph glyph-name="uni2074" unicode="&#x2074;" horiz-adv-x="407" d="M210 467 L337 467 L337 547 L382 547 L382 641 L337 641 L337 875 L185 875 L21 643 L21 547 L210 547 L210 467 Z M127 641 L208 762 L210 762 L210 641 L127 641 Z " />
<glyph glyph-name="uni2075" unicode="&#x2075;" horiz-adv-x="388" d="M172 456 C295 456 356 526 356 600 C356 685 296 731 223 731 C184 731 162 720 154 715 L152 715 L152 780 L337 780 L337 875 L58 875 L58 625 L133 622 C139 637 154 648 177 648 C204 648 225 634 225 600 C225 564 194 549 154 549 C121 549 95 551 54 585 L54 479 C77 469 108 456 172 456 L172 456 Z " />
<glyph glyph-name="uni2076" unicode="&#x2076;" horiz-adv-x="427" d="M34 663 C34 528 111 456 221 456 C333 456 396 527 396 598 C396 684 329 736 251 736 C210 736 179 723 159 704 L156 704 C155 746 188 796 258 796 C302 796 333 779 349 767 L349 866 C321 878 287 886 237 886 C113 886 34 794 34 663 L34 663 Z M167 600 C167 633 192 653 218 653 C243 653 268 633 268 600 C268 570 249 548 218 548 C186 548 167 570 167 600 L167 600 Z " />
<glyph glyph-name="uni2077" unicode="&#x2077;" horiz-adv-x="354" d="M50 467 L184 467 L333 783 L333 875 L21 875 L21 782 L202 782 L50 467 Z " />
<glyph glyph-name="uni2078" unicode="&#x2078;" horiz-adv-x="428" d="M214 456 C339 456 394 518 394 584 C394 642 357 667 327 678 L327 680 C355 696 379 724 379 766 C379 827 323 886 214 886 C104 886 48 827 48 766 C48 724 73 699 101 683 L101 681 C71 669 34 642 34 584 C34 518 89 456 214 456 L214 456 Z M214 709 C188 709 166 727 166 752 C166 779 188 797 214 797 C240 797 262 779 262 752 C262 727 240 709 214 709 L214 709 Z M214 543 C182 543 160 565 160 594 C160 622 183 643 214 643 C245 643 268 622 268 594 C268 565 246 543 214 543 L214 543 Z " />
<glyph glyph-name="uni2079" unicode="&#x2079;" horiz-adv-x="427" d="M179 456 C314 456 393 551 393 682 C393 815 316 886 206 886 C94 886 31 819 31 741 C31 664 98 610 176 610 C217 610 248 623 268 642 L271 642 C272 600 238 546 169 546 C125 546 94 563 78 575 L78 476 C106 464 139 456 179 456 L179 456 Z M209 692 C184 692 159 711 159 744 C159 774 178 795 209 795 C241 795 260 774 260 744 C260 711 235 692 209 692 L209 692 Z " />
<glyph glyph-name="uni2080" unicode="&#x2080;" horiz-adv-x="476" d="M238 -205 C358 -205 437 -134 437 9 C437 152 358 223 238 223 C118 223 39 152 39 9 C39 -134 118 -205 238 -205 L238 -205 Z M238 -102 C204 -102 175 -80 175 9 C175 98 204 120 238 120 C272 120 300 98 300 9 C300 -80 272 -102 238 -102 L238 -102 Z " />
<glyph glyph-name="uni2081" unicode="&#x2081;" horiz-adv-x="328" d="M127 -195 L254 -195 L254 213 L146 213 L27 173 L27 106 L127 106 L127 -195 Z " />
<glyph glyph-name="uni2082" unicode="&#x2082;" horiz-adv-x="398" d="M46 -195 L363 -195 L363 -95 L219 -95 L219 -93 C231 -86 252 -70 268 -58 C297 -35 348 11 348 82 C348 158 294 224 182 224 C127 224 83 212 48 195 L48 94 C78 107 110 114 141 114 C181 114 214 101 214 62 C214 23 181 -3 140 -34 C100 -65 78 -82 46 -103 L46 -195 Z " />
<glyph glyph-name="uni2083" unicode="&#x2083;" horiz-adv-x="383" d="M157 -206 C284 -206 347 -148 347 -72 C347 -25 312 6 283 17 L283 19 C309 33 336 63 336 102 C336 181 258 224 170 224 C110 224 64 211 37 199 L37 102 C61 114 95 125 135 125 C174 125 197 111 197 87 C197 63 173 51 141 51 L109 51 L109 -31 L145 -31 C183 -31 203 -45 203 -69 C203 -95 176 -107 135 -107 C97 -107 56 -96 33 -86 L33 -190 C63 -198 98 -206 157 -206 L157 -206 Z " />
<glyph glyph-name="uni2084" unicode="&#x2084;" horiz-adv-x="407" d="M210 -195 L337 -195 L337 -115 L382 -115 L382 -21 L337 -21 L337 213 L185 213 L21 -19 L21 -115 L210 -115 L210 -195 Z M127 -21 L208 100 L210 100 L210 -21 L127 -21 Z " />
<glyph glyph-name="uni2085" unicode="&#x2085;" horiz-adv-x="388" d="M172 -206 C295 -206 356 -136 356 -62 C356 23 296 69 223 69 C184 69 162 58 154 53 L152 53 L152 118 L337 118 L337 213 L58 213 L58 -37 L133 -40 C139 -25 154 -14 177 -14 C204 -14 225 -28 225 -62 C225 -98 194 -113 154 -113 C121 -113 95 -111 54 -77 L54 -183 C77 -193 108 -206 172 -206 L172 -206 Z " />
<glyph glyph-name="uni2086" unicode="&#x2086;" horiz-adv-x="427" d="M34 1 C34 -134 111 -206 221 -206 C333 -206 396 -135 396 -64 C396 22 329 74 251 74 C210 74 179 61 159 42 L156 42 C155 84 188 134 258 134 C302 134 333 117 349 105 L349 204 C321 216 287 224 237 224 C113 224 34 132 34 1 L34 1 Z M167 -62 C167 -29 192 -9 218 -9 C243 -9 268 -29 268 -62 C268 -92 249 -114 218 -114 C186 -114 167 -92 167 -62 L167 -62 Z " />
<glyph glyph-name="uni2087" unicode="&#x2087;" horiz-adv-x="354" d="M50 -195 L184 -195 L333 121 L333 213 L21 213 L21 120 L202 120 L50 -195 Z " />
<glyph glyph-name="uni2088" unicode="&#x2088;" horiz-adv-x="428" d="M214 -206 C339 -206 394 -144 394 -78 C394 -20 357 5 327 16 L327 18 C355 34 379 62 379 104 C379 165 323 224 214 224 C104 224 48 165 48 104 C48 62 73 37 101 21 L101 19 C71 7 34 -20 34 -78 C34 -144 89 -206 214 -206 L214 -206 Z M214 47 C188 47 166 65 166 90 C166 117 188 135 214 135 C240 135 262 117 262 90 C262 65 240 47 214 47 L214 47 Z M214 -119 C182 -119 160 -97 160 -68 C160 -40 183 -19 214 -19 C245 -19 268 -40 268 -68 C268 -97 246 -119 214 -119 L214 -119 Z " />
<glyph glyph-name="uni2089" unicode="&#x2089;" horiz-adv-x="427" d="M179 -206 C314 -206 393 -111 393 20 C393 153 316 224 206 224 C94 224 31 157 31 79 C31 2 98 -52 176 -52 C217 -52 248 -39 268 -20 L271 -20 C272 -62 238 -116 169 -116 C125 -116 94 -99 78 -87 L78 -186 C106 -198 139 -206 179 -206 L179 -206 Z M209 30 C184 30 159 49 159 82 C159 112 178 133 209 133 C241 133 260 112 260 82 C260 49 235 30 209 30 L209 30 Z " />
<glyph glyph-name="Euro" unicode="&#x20ac;" horiz-adv-x="660" d="M453 -16 C526 -16 590 -2 632 14 L632 178 C589 156 541 146 494 146 C439 146 373 164 330 217 L438 217 L497 305 L296 305 C295 314 294 323 294 332 C294 342 293 351 296 360 L528 360 L589 448 L322 448 C361 505 422 535 484 535 C536 535 584 522 627 500 L627 663 C585 682 527 696 458 696 C288 696 156 597 112 448 L20 448 L20 360 L101 360 C100 352 100 343 100 335 C100 325 101 315 102 305 L20 305 L20 217 L117 217 C165 76 296 -16 453 -16 L453 -16 Z " />
<glyph glyph-name="trademark" unicode="&#x2122;" horiz-adv-x="742" d="M117 386 L216 386 L216 602 L294 602 L294 680 L39 680 L39 602 L117 602 L117 386 Z M327 386 L423 386 L423 560 L425 560 L502 436 L508 436 L584 560 L586 560 L586 386 L682 386 L682 680 L566 680 L505 572 L504 572 L444 680 L327 680 L327 386 Z " />
<glyph glyph-name="oneeighth" unicode="&#x215b;" horiz-adv-x="964" d="M127 272 L254 272 L254 680 L146 680 L27 640 L27 573 L127 573 L127 272 Z M625 680 L138 0 L259 0 L746 680 L625 680 Z M750 -11 C875 -11 930 51 930 117 C930 175 893 200 863 211 L863 213 C891 229 915 257 915 299 C915 360 859 419 750 419 C640 419 584 360 584 299 C584 257 609 232 637 216 L637 214 C607 202 570 175 570 117 C570 51 625 -11 750 -11 L750 -11 Z M750 242 C724 242 702 260 702 285 C702 312 724 330 750 330 C776 330 798 312 798 285 C798 260 776 242 750 242 L750 242 Z M750 76 C718 76 696 98 696 127 C696 155 719 176 750 176 C781 176 804 155 804 127 C804 98 782 76 750 76 L750 76 Z " />
<glyph glyph-name="threeeighths" unicode="&#x215c;" horiz-adv-x="1019" d="M157 271 C284 271 347 329 347 405 C347 452 312 483 283 494 L283 496 C309 510 336 540 336 579 C336 658 258 701 170 701 C110 701 64 688 37 676 L37 579 C61 591 95 602 135 602 C174 602 197 588 197 564 C197 540 173 528 141 528 L109 528 L109 446 L145 446 C183 446 203 432 203 408 C203 382 176 370 135 370 C97 370 56 381 33 391 L33 287 C63 279 98 271 157 271 L157 271 Z M680 680 L193 0 L314 0 L801 680 L680 680 Z M805 -11 C930 -11 985 51 985 117 C985 175 948 200 918 211 L918 213 C946 229 970 257 970 299 C970 360 914 419 805 419 C695 419 639 360 639 299 C639 257 664 232 692 216 L692 214 C662 202 625 175 625 117 C625 51 680 -11 805 -11 L805 -11 Z M805 242 C779 242 757 260 757 285 C757 312 779 330 805 330 C831 330 853 312 853 285 C853 260 831 242 805 242 L805 242 Z M805 76 C773 76 751 98 751 127 C751 155 774 176 805 176 C836 176 859 155 859 127 C859 98 837 76 805 76 L805 76 Z " />
<glyph glyph-name="fiveeighths" unicode="&#x215d;" horiz-adv-x="1024" d="M172 261 C295 261 356 331 356 405 C356 490 296 536 223 536 C184 536 162 525 154 520 L152 520 L152 585 L337 585 L337 680 L58 680 L58 430 L133 427 C139 442 154 453 177 453 C204 453 225 439 225 405 C225 369 194 354 154 354 C121 354 95 356 54 390 L54 284 C77 274 108 261 172 261 L172 261 Z M685 680 L198 0 L319 0 L806 680 L685 680 Z M810 -11 C935 -11 990 51 990 117 C990 175 953 200 923 211 L923 213 C951 229 975 257 975 299 C975 360 919 419 810 419 C700 419 644 360 644 299 C644 257 669 232 697 216 L697 214 C667 202 630 175 630 117 C630 51 685 -11 810 -11 L810 -11 Z M810 242 C784 242 762 260 762 285 C762 312 784 330 810 330 C836 330 858 312 858 285 C858 260 836 242 810 242 L810 242 Z M810 76 C778 76 756 98 756 127 C756 155 779 176 810 176 C841 176 864 155 864 127 C864 98 842 76 810 76 L810 76 Z " />
<glyph glyph-name="seveneighths" unicode="&#x215e;" horiz-adv-x="940" d="M50 272 L184 272 L333 588 L333 680 L21 680 L21 587 L202 587 L50 272 Z M601 680 L114 0 L235 0 L722 680 L601 680 Z M726 -11 C851 -11 906 51 906 117 C906 175 869 200 839 211 L839 213 C867 229 891 257 891 299 C891 360 835 419 726 419 C616 419 560 360 560 299 C560 257 585 232 613 216 L613 214 C583 202 546 175 546 117 C546 51 601 -11 726 -11 L726 -11 Z M726 242 C700 242 678 260 678 285 C678 312 700 330 726 330 C752 330 774 312 774 285 C774 260 752 242 726 242 L726 242 Z M726 76 C694 76 672 98 672 127 C672 155 695 176 726 176 C757 176 780 155 780 127 C780 98 758 76 726 76 L726 76 Z " />
<glyph glyph-name="partialdiff" unicode="&#x2202;" horiz-adv-x="614" d="M307 -16 C465 -16 594 100 594 279 C594 489 443 634 348 680 L147 680 C215 646 317 572 354 463 L352 461 C334 472 298 480 264 480 C147 480 20 402 20 237 C20 72 148 -16 307 -16 L307 -16 Z M307 132 C270 132 224 158 224 237 C224 316 270 342 307 342 C344 342 390 316 390 237 C390 158 344 132 307 132 L307 132 Z " />
<glyph glyph-name="product" unicode="&#x220f;" horiz-adv-x="717" d="M49 0 L260 0 L260 511 L457 511 L457 0 L668 0 L668 680 L49 680 L49 0 Z " />
<glyph glyph-name="summation" unicode="&#x2211;" horiz-adv-x="616" d="M39 0 L577 0 L577 155 L269 155 L416 340 L269 525 L577 525 L577 680 L39 680 L39 537 L196 340 L39 143 L39 0 Z " />
<glyph glyph-name="minus" unicode="&#x2212;" horiz-adv-x="584" d="M50 187 L534 187 L534 290 L50 290 L50 187 Z " />
<glyph glyph-name="radical" unicode="&#x221a;" horiz-adv-x="677" d="M262 0 L414 0 L667 818 L555 818 L340 87 L336 87 L213 500 L10 500 L10 401 L136 401 L262 0 Z " />
<glyph glyph-name="infinity" unicode="&#x221e;" horiz-adv-x="770" d="M212 72 C293 72 337 111 385 171 C433 111 477 72 558 72 C659 72 720 142 720 240 C720 338 659 408 558 408 C477 408 433 367 385 308 C337 367 293 408 212 408 C111 408 50 338 50 240 C50 142 111 72 212 72 L212 72 Z M219 167 C175 167 149 196 149 240 C149 284 180 312 219 312 C261 312 292 278 322 240 C295 199 265 167 219 167 L219 167 Z M551 167 C505 167 475 199 448 240 C478 278 509 312 551 312 C590 312 621 284 621 240 C621 196 595 167 551 167 L551 167 Z " />
<glyph glyph-name="integral" unicode="&#x222b;" horiz-adv-x="510" d="M135 -170 C297 -170 363 -55 363 65 L363 478 C363 523 391 557 441 557 C456 557 469 553 480 548 L480 685 C451 692 421 697 385 697 C223 697 157 583 157 463 L157 50 C157 5 129 -29 79 -29 C64 -29 46 -26 30 -20 L30 -157 C59 -165 89 -170 135 -170 L135 -170 Z " />
<glyph glyph-name="approxequal" unicode="&#x2248;" horiz-adv-x="584" d="M403 247 C460 247 485 271 503 289 L503 391 C480 369 447 351 414 351 C346 351 273 408 194 408 C137 408 99 378 81 358 L81 250 C104 281 146 306 190 306 C269 306 328 247 403 247 L403 247 Z M403 57 C460 57 485 81 503 99 L503 201 C480 179 447 161 414 161 C346 161 273 218 194 218 C137 218 99 188 81 168 L81 60 C104 91 146 116 190 116 C269 116 328 57 403 57 L403 57 Z " />
<glyph glyph-name="notequal" unicode="&#x2260;" horiz-adv-x="584" d="M125 0 L225 0 L268 94 L534 94 L534 197 L316 197 L355 282 L534 282 L534 385 L403 385 L445 475 L345 475 L303 385 L50 385 L50 282 L255 282 L216 197 L50 197 L50 94 L168 94 L125 0 Z " />
<glyph glyph-name="lessequal" unicode="&#x2264;" horiz-adv-x="584" d="M534 144 L534 259 L178 383 L178 387 L534 511 L534 626 L50 436 L50 334 L534 144 Z M50 0 L534 0 L534 103 L50 103 L50 0 Z " />
<glyph glyph-name="greaterequal" unicode="&#x2265;" horiz-adv-x="584" d="M50 144 L534 334 L534 436 L50 626 L50 511 L406 387 L406 383 L50 259 L50 144 Z M50 0 L534 0 L534 103 L50 103 L50 0 Z " />
<glyph glyph-name="lozenge" unicode="&#x25ca;" horiz-adv-x="560" d="M229 0 L331 0 L510 340 L331 680 L229 680 L50 340 L229 0 Z M278 110 L157 340 L278 570 L282 570 L403 340 L282 110 L278 110 Z " />
<glyph glyph-name="fi" unicode="&#xfb01;" horiz-adv-x="653" d="M82 0 L278 0 L278 381 L402 381 L402 0 L598 0 L598 500 L270 500 L270 519 C270 551 299 576 338 576 C360 576 371 573 382 567 L382 683 C347 693 327 696 290 696 C166 696 82 617 82 506 L82 500 L24 500 L24 381 L82 381 L82 0 Z M422 541 L598 541 L598 680 L422 680 L422 541 Z " />
<glyph glyph-name="fl" unicode="&#xfb02;" horiz-adv-x="643" d="M81 0 L278 0 L278 381 L362 381 L362 500 L270 500 L270 519 C270 551 299 576 338 576 C362 576 378 571 392 562 L392 0 L588 0 L588 680 L422 680 C394 689 356 696 309 696 C175 696 81 617 81 506 L81 500 L24 500 L24 381 L81 381 L81 0 Z " />
</font>
</svg>
